M48
; DRILL file {KiCad 7.0.7} date Wed Mar 20 16:58:15 2024
; FORMAT={-:-/ absolute / metric / decimal}
; #@! TF.CreationDate,2024-03-20T16:58:15-04:00
; #@! TF.GenerationSoftware,Kicad,Pcbnew,7.0.7
; #@! TF.FileFunction,Plated,1,2,PTH
FMAT,2
METRIC
; #@! TA.AperFunction,Plated,PTH,ComponentDrill
T1C0.750
; #@! TA.AperFunction,Plated,PTH,ComponentDrill
T2C0.800
; #@! TA.AperFunction,Plated,PTH,ComponentDrill
T3C0.889
; #@! TA.AperFunction,Plated,PTH,ComponentDrill
T4C1.000
%
G90
G05
T1
X201.422Y-88.862
X201.422Y-90.862
X201.422Y-92.862
X201.422Y-94.862
X201.422Y-96.862
X201.422Y-98.862
X201.422Y-100.862
T2
X114.7Y-105.385
X117.24Y-105.385
X119.78Y-105.385
X122.32Y-105.385
X124.86Y-85.065
X124.86Y-105.385
X127.4Y-85.065
X127.4Y-105.385
X129.94Y-85.065
X129.94Y-105.385
X132.48Y-85.065
X132.48Y-105.385
X135.02Y-85.065
X135.02Y-105.385
X137.56Y-85.065
X137.56Y-105.385
X140.1Y-85.065
X140.1Y-105.385
X142.64Y-85.065
X142.64Y-105.385
X145.18Y-85.065
X145.18Y-105.385
X147.72Y-85.065
X147.72Y-105.385
X150.26Y-85.065
X150.26Y-105.385
X152.8Y-85.065
X152.8Y-105.385
X163.068Y-82.816
X170.688Y-82.816
X175.514Y-82.804
X178.308Y-88.138
X183.134Y-82.804
X185.928Y-88.138
T3
X105.864Y-86.135
X105.864Y-88.672
X105.864Y-91.265
X105.864Y-93.805
X105.864Y-96.345
X105.864Y-98.885
X105.864Y-101.425
X105.875Y-83.645
X170.355Y-97.479
X170.355Y-100.019
X170.355Y-102.559
X188.135Y-97.479
X188.135Y-100.019
X188.135Y-102.559
T4
X101.6Y-83.82
X101.6Y-86.36
X101.6Y-88.9
X197.74Y-86.42
X197.74Y-88.96
X197.74Y-91.5
X197.74Y-94.04
X197.74Y-96.58
X197.74Y-99.12
X197.74Y-101.66
X197.74Y-104.2
T0
M30
