%TF.GenerationSoftware,KiCad,Pcbnew,7.0.7*%
%TF.CreationDate,2024-03-20T16:58:12-04:00*%
%TF.ProjectId,kicad-openctd_rev7,6b696361-642d-46f7-9065-6e6374645f72,rev?*%
%TF.SameCoordinates,Original*%
%TF.FileFunction,Legend,Bot*%
%TF.FilePolarity,Positive*%
%FSLAX46Y46*%
G04 Gerber Fmt 4.6, Leading zero omitted, Abs format (unit mm)*
G04 Created by KiCad (PCBNEW 7.0.7) date 2024-03-20 16:58:12*
%MOMM*%
%LPD*%
G01*
G04 APERTURE LIST*
G04 Aperture macros list*
%AMRoundRect*
0 Rectangle with rounded corners*
0 $1 Rounding radius*
0 $2 $3 $4 $5 $6 $7 $8 $9 X,Y pos of 4 corners*
0 Add a 4 corners polygon primitive as box body*
4,1,4,$2,$3,$4,$5,$6,$7,$8,$9,$2,$3,0*
0 Add four circle primitives for the rounded corners*
1,1,$1+$1,$2,$3*
1,1,$1+$1,$4,$5*
1,1,$1+$1,$6,$7*
1,1,$1+$1,$8,$9*
0 Add four rect primitives between the rounded corners*
20,1,$1+$1,$2,$3,$4,$5,0*
20,1,$1+$1,$4,$5,$6,$7,0*
20,1,$1+$1,$6,$7,$8,$9,0*
20,1,$1+$1,$8,$9,$2,$3,0*%
G04 Aperture macros list end*
%ADD10C,0.150000*%
%ADD11C,0.120000*%
%ADD12C,1.600000*%
%ADD13O,1.600000X1.600000*%
%ADD14C,2.540000*%
%ADD15R,1.600000X1.600000*%
%ADD16R,1.651000X1.651000*%
%ADD17C,1.651000*%
%ADD18R,1.700000X1.700000*%
%ADD19O,1.700000X1.700000*%
%ADD20C,4.300000*%
%ADD21RoundRect,0.250000X0.625000X-0.350000X0.625000X0.350000X-0.625000X0.350000X-0.625000X-0.350000X0*%
%ADD22O,1.750000X1.200000*%
G04 APERTURE END LIST*
D10*
X175688380Y-100253009D02*
X175355047Y-100253009D01*
X175212190Y-100776819D02*
X175688380Y-100776819D01*
X175688380Y-100776819D02*
X175688380Y-99776819D01*
X175688380Y-99776819D02*
X175212190Y-99776819D01*
X174212190Y-100681580D02*
X174259809Y-100729200D01*
X174259809Y-100729200D02*
X174402666Y-100776819D01*
X174402666Y-100776819D02*
X174497904Y-100776819D01*
X174497904Y-100776819D02*
X174640761Y-100729200D01*
X174640761Y-100729200D02*
X174735999Y-100633961D01*
X174735999Y-100633961D02*
X174783618Y-100538723D01*
X174783618Y-100538723D02*
X174831237Y-100348247D01*
X174831237Y-100348247D02*
X174831237Y-100205390D01*
X174831237Y-100205390D02*
X174783618Y-100014914D01*
X174783618Y-100014914D02*
X174735999Y-99919676D01*
X174735999Y-99919676D02*
X174640761Y-99824438D01*
X174640761Y-99824438D02*
X174497904Y-99776819D01*
X174497904Y-99776819D02*
X174402666Y-99776819D01*
X174402666Y-99776819D02*
X174259809Y-99824438D01*
X174259809Y-99824438D02*
X174212190Y-99872057D01*
X174021714Y-100872057D02*
X173259809Y-100872057D01*
X173164570Y-99776819D02*
X172593142Y-99776819D01*
X172878856Y-100776819D02*
X172878856Y-99776819D01*
X172355046Y-99776819D02*
X171688380Y-100776819D01*
X171688380Y-99776819D02*
X172355046Y-100776819D01*
X109926285Y-91847200D02*
X109783428Y-91894819D01*
X109783428Y-91894819D02*
X109545333Y-91894819D01*
X109545333Y-91894819D02*
X109450095Y-91847200D01*
X109450095Y-91847200D02*
X109402476Y-91799580D01*
X109402476Y-91799580D02*
X109354857Y-91704342D01*
X109354857Y-91704342D02*
X109354857Y-91609104D01*
X109354857Y-91609104D02*
X109402476Y-91513866D01*
X109402476Y-91513866D02*
X109450095Y-91466247D01*
X109450095Y-91466247D02*
X109545333Y-91418628D01*
X109545333Y-91418628D02*
X109735809Y-91371009D01*
X109735809Y-91371009D02*
X109831047Y-91323390D01*
X109831047Y-91323390D02*
X109878666Y-91275771D01*
X109878666Y-91275771D02*
X109926285Y-91180533D01*
X109926285Y-91180533D02*
X109926285Y-91085295D01*
X109926285Y-91085295D02*
X109878666Y-90990057D01*
X109878666Y-90990057D02*
X109831047Y-90942438D01*
X109831047Y-90942438D02*
X109735809Y-90894819D01*
X109735809Y-90894819D02*
X109497714Y-90894819D01*
X109497714Y-90894819D02*
X109354857Y-90942438D01*
X108926285Y-91894819D02*
X108926285Y-90894819D01*
X108926285Y-90894819D02*
X108688190Y-90894819D01*
X108688190Y-90894819D02*
X108545333Y-90942438D01*
X108545333Y-90942438D02*
X108450095Y-91037676D01*
X108450095Y-91037676D02*
X108402476Y-91132914D01*
X108402476Y-91132914D02*
X108354857Y-91323390D01*
X108354857Y-91323390D02*
X108354857Y-91466247D01*
X108354857Y-91466247D02*
X108402476Y-91656723D01*
X108402476Y-91656723D02*
X108450095Y-91751961D01*
X108450095Y-91751961D02*
X108545333Y-91847200D01*
X108545333Y-91847200D02*
X108688190Y-91894819D01*
X108688190Y-91894819D02*
X108926285Y-91894819D01*
X107973904Y-91609104D02*
X107497714Y-91609104D01*
X108069142Y-91894819D02*
X107735809Y-90894819D01*
X107735809Y-90894819D02*
X107402476Y-91894819D01*
X195571904Y-102054819D02*
X195571904Y-101054819D01*
X195571904Y-101054819D02*
X195190952Y-101054819D01*
X195190952Y-101054819D02*
X195095714Y-101102438D01*
X195095714Y-101102438D02*
X195048095Y-101150057D01*
X195048095Y-101150057D02*
X195000476Y-101245295D01*
X195000476Y-101245295D02*
X195000476Y-101388152D01*
X195000476Y-101388152D02*
X195048095Y-101483390D01*
X195048095Y-101483390D02*
X195095714Y-101531009D01*
X195095714Y-101531009D02*
X195190952Y-101578628D01*
X195190952Y-101578628D02*
X195571904Y-101578628D01*
X194000476Y-102054819D02*
X194333809Y-101578628D01*
X194571904Y-102054819D02*
X194571904Y-101054819D01*
X194571904Y-101054819D02*
X194190952Y-101054819D01*
X194190952Y-101054819D02*
X194095714Y-101102438D01*
X194095714Y-101102438D02*
X194048095Y-101150057D01*
X194048095Y-101150057D02*
X194000476Y-101245295D01*
X194000476Y-101245295D02*
X194000476Y-101388152D01*
X194000476Y-101388152D02*
X194048095Y-101483390D01*
X194048095Y-101483390D02*
X194095714Y-101531009D01*
X194095714Y-101531009D02*
X194190952Y-101578628D01*
X194190952Y-101578628D02*
X194571904Y-101578628D01*
X193238571Y-101531009D02*
X193095714Y-101578628D01*
X193095714Y-101578628D02*
X193048095Y-101626247D01*
X193048095Y-101626247D02*
X193000476Y-101721485D01*
X193000476Y-101721485D02*
X193000476Y-101864342D01*
X193000476Y-101864342D02*
X193048095Y-101959580D01*
X193048095Y-101959580D02*
X193095714Y-102007200D01*
X193095714Y-102007200D02*
X193190952Y-102054819D01*
X193190952Y-102054819D02*
X193571904Y-102054819D01*
X193571904Y-102054819D02*
X193571904Y-101054819D01*
X193571904Y-101054819D02*
X193238571Y-101054819D01*
X193238571Y-101054819D02*
X193143333Y-101102438D01*
X193143333Y-101102438D02*
X193095714Y-101150057D01*
X193095714Y-101150057D02*
X193048095Y-101245295D01*
X193048095Y-101245295D02*
X193048095Y-101340533D01*
X193048095Y-101340533D02*
X193095714Y-101435771D01*
X193095714Y-101435771D02*
X193143333Y-101483390D01*
X193143333Y-101483390D02*
X193238571Y-101531009D01*
X193238571Y-101531009D02*
X193571904Y-101531009D01*
X195802094Y-95998819D02*
X195183047Y-95998819D01*
X195183047Y-95998819D02*
X195516380Y-96379771D01*
X195516380Y-96379771D02*
X195373523Y-96379771D01*
X195373523Y-96379771D02*
X195278285Y-96427390D01*
X195278285Y-96427390D02*
X195230666Y-96475009D01*
X195230666Y-96475009D02*
X195183047Y-96570247D01*
X195183047Y-96570247D02*
X195183047Y-96808342D01*
X195183047Y-96808342D02*
X195230666Y-96903580D01*
X195230666Y-96903580D02*
X195278285Y-96951200D01*
X195278285Y-96951200D02*
X195373523Y-96998819D01*
X195373523Y-96998819D02*
X195659237Y-96998819D01*
X195659237Y-96998819D02*
X195754475Y-96951200D01*
X195754475Y-96951200D02*
X195802094Y-96903580D01*
X194897332Y-95998819D02*
X194563999Y-96998819D01*
X194563999Y-96998819D02*
X194230666Y-95998819D01*
X193992570Y-95998819D02*
X193373523Y-95998819D01*
X193373523Y-95998819D02*
X193706856Y-96379771D01*
X193706856Y-96379771D02*
X193563999Y-96379771D01*
X193563999Y-96379771D02*
X193468761Y-96427390D01*
X193468761Y-96427390D02*
X193421142Y-96475009D01*
X193421142Y-96475009D02*
X193373523Y-96570247D01*
X193373523Y-96570247D02*
X193373523Y-96808342D01*
X193373523Y-96808342D02*
X193421142Y-96903580D01*
X193421142Y-96903580D02*
X193468761Y-96951200D01*
X193468761Y-96951200D02*
X193563999Y-96998819D01*
X193563999Y-96998819D02*
X193849713Y-96998819D01*
X193849713Y-96998819D02*
X193944951Y-96951200D01*
X193944951Y-96951200D02*
X193992570Y-96903580D01*
X201755333Y-102324819D02*
X201755333Y-103039104D01*
X201755333Y-103039104D02*
X201802952Y-103181961D01*
X201802952Y-103181961D02*
X201898190Y-103277200D01*
X201898190Y-103277200D02*
X202041047Y-103324819D01*
X202041047Y-103324819D02*
X202136285Y-103324819D01*
X200850571Y-102658152D02*
X200850571Y-103324819D01*
X201088666Y-102277200D02*
X201326761Y-102991485D01*
X201326761Y-102991485D02*
X200707714Y-102991485D01*
X175807428Y-97459009D02*
X175474095Y-97459009D01*
X175331238Y-97982819D02*
X175807428Y-97982819D01*
X175807428Y-97982819D02*
X175807428Y-96982819D01*
X175807428Y-96982819D02*
X175331238Y-96982819D01*
X174331238Y-97887580D02*
X174378857Y-97935200D01*
X174378857Y-97935200D02*
X174521714Y-97982819D01*
X174521714Y-97982819D02*
X174616952Y-97982819D01*
X174616952Y-97982819D02*
X174759809Y-97935200D01*
X174759809Y-97935200D02*
X174855047Y-97839961D01*
X174855047Y-97839961D02*
X174902666Y-97744723D01*
X174902666Y-97744723D02*
X174950285Y-97554247D01*
X174950285Y-97554247D02*
X174950285Y-97411390D01*
X174950285Y-97411390D02*
X174902666Y-97220914D01*
X174902666Y-97220914D02*
X174855047Y-97125676D01*
X174855047Y-97125676D02*
X174759809Y-97030438D01*
X174759809Y-97030438D02*
X174616952Y-96982819D01*
X174616952Y-96982819D02*
X174521714Y-96982819D01*
X174521714Y-96982819D02*
X174378857Y-97030438D01*
X174378857Y-97030438D02*
X174331238Y-97078057D01*
X174140762Y-98078057D02*
X173378857Y-98078057D01*
X172569333Y-97982819D02*
X172902666Y-97506628D01*
X173140761Y-97982819D02*
X173140761Y-96982819D01*
X173140761Y-96982819D02*
X172759809Y-96982819D01*
X172759809Y-96982819D02*
X172664571Y-97030438D01*
X172664571Y-97030438D02*
X172616952Y-97078057D01*
X172616952Y-97078057D02*
X172569333Y-97173295D01*
X172569333Y-97173295D02*
X172569333Y-97316152D01*
X172569333Y-97316152D02*
X172616952Y-97411390D01*
X172616952Y-97411390D02*
X172664571Y-97459009D01*
X172664571Y-97459009D02*
X172759809Y-97506628D01*
X172759809Y-97506628D02*
X173140761Y-97506628D01*
X172235999Y-96982819D02*
X171569333Y-97982819D01*
X171569333Y-96982819D02*
X172235999Y-97982819D01*
X195778285Y-91847200D02*
X195635428Y-91894819D01*
X195635428Y-91894819D02*
X195397333Y-91894819D01*
X195397333Y-91894819D02*
X195302095Y-91847200D01*
X195302095Y-91847200D02*
X195254476Y-91799580D01*
X195254476Y-91799580D02*
X195206857Y-91704342D01*
X195206857Y-91704342D02*
X195206857Y-91609104D01*
X195206857Y-91609104D02*
X195254476Y-91513866D01*
X195254476Y-91513866D02*
X195302095Y-91466247D01*
X195302095Y-91466247D02*
X195397333Y-91418628D01*
X195397333Y-91418628D02*
X195587809Y-91371009D01*
X195587809Y-91371009D02*
X195683047Y-91323390D01*
X195683047Y-91323390D02*
X195730666Y-91275771D01*
X195730666Y-91275771D02*
X195778285Y-91180533D01*
X195778285Y-91180533D02*
X195778285Y-91085295D01*
X195778285Y-91085295D02*
X195730666Y-90990057D01*
X195730666Y-90990057D02*
X195683047Y-90942438D01*
X195683047Y-90942438D02*
X195587809Y-90894819D01*
X195587809Y-90894819D02*
X195349714Y-90894819D01*
X195349714Y-90894819D02*
X195206857Y-90942438D01*
X194778285Y-91894819D02*
X194778285Y-90894819D01*
X194778285Y-90894819D02*
X194540190Y-90894819D01*
X194540190Y-90894819D02*
X194397333Y-90942438D01*
X194397333Y-90942438D02*
X194302095Y-91037676D01*
X194302095Y-91037676D02*
X194254476Y-91132914D01*
X194254476Y-91132914D02*
X194206857Y-91323390D01*
X194206857Y-91323390D02*
X194206857Y-91466247D01*
X194206857Y-91466247D02*
X194254476Y-91656723D01*
X194254476Y-91656723D02*
X194302095Y-91751961D01*
X194302095Y-91751961D02*
X194397333Y-91847200D01*
X194397333Y-91847200D02*
X194540190Y-91894819D01*
X194540190Y-91894819D02*
X194778285Y-91894819D01*
X193825904Y-91609104D02*
X193349714Y-91609104D01*
X193921142Y-91894819D02*
X193587809Y-90894819D01*
X193587809Y-90894819D02*
X193254476Y-91894819D01*
X195325904Y-93482438D02*
X195421142Y-93434819D01*
X195421142Y-93434819D02*
X195563999Y-93434819D01*
X195563999Y-93434819D02*
X195706856Y-93482438D01*
X195706856Y-93482438D02*
X195802094Y-93577676D01*
X195802094Y-93577676D02*
X195849713Y-93672914D01*
X195849713Y-93672914D02*
X195897332Y-93863390D01*
X195897332Y-93863390D02*
X195897332Y-94006247D01*
X195897332Y-94006247D02*
X195849713Y-94196723D01*
X195849713Y-94196723D02*
X195802094Y-94291961D01*
X195802094Y-94291961D02*
X195706856Y-94387200D01*
X195706856Y-94387200D02*
X195563999Y-94434819D01*
X195563999Y-94434819D02*
X195468761Y-94434819D01*
X195468761Y-94434819D02*
X195325904Y-94387200D01*
X195325904Y-94387200D02*
X195278285Y-94339580D01*
X195278285Y-94339580D02*
X195278285Y-94006247D01*
X195278285Y-94006247D02*
X195468761Y-94006247D01*
X194849713Y-94434819D02*
X194849713Y-93434819D01*
X194849713Y-93434819D02*
X194278285Y-94434819D01*
X194278285Y-94434819D02*
X194278285Y-93434819D01*
X193802094Y-94434819D02*
X193802094Y-93434819D01*
X193802094Y-93434819D02*
X193563999Y-93434819D01*
X193563999Y-93434819D02*
X193421142Y-93482438D01*
X193421142Y-93482438D02*
X193325904Y-93577676D01*
X193325904Y-93577676D02*
X193278285Y-93672914D01*
X193278285Y-93672914D02*
X193230666Y-93863390D01*
X193230666Y-93863390D02*
X193230666Y-94006247D01*
X193230666Y-94006247D02*
X193278285Y-94196723D01*
X193278285Y-94196723D02*
X193325904Y-94291961D01*
X193325904Y-94291961D02*
X193421142Y-94387200D01*
X193421142Y-94387200D02*
X193563999Y-94434819D01*
X193563999Y-94434819D02*
X193802094Y-94434819D01*
X195810094Y-86838819D02*
X195810094Y-85838819D01*
X195810094Y-85838819D02*
X195571999Y-85838819D01*
X195571999Y-85838819D02*
X195429142Y-85886438D01*
X195429142Y-85886438D02*
X195333904Y-85981676D01*
X195333904Y-85981676D02*
X195286285Y-86076914D01*
X195286285Y-86076914D02*
X195238666Y-86267390D01*
X195238666Y-86267390D02*
X195238666Y-86410247D01*
X195238666Y-86410247D02*
X195286285Y-86600723D01*
X195286285Y-86600723D02*
X195333904Y-86695961D01*
X195333904Y-86695961D02*
X195429142Y-86791200D01*
X195429142Y-86791200D02*
X195571999Y-86838819D01*
X195571999Y-86838819D02*
X195810094Y-86838819D01*
X194381523Y-85838819D02*
X194571999Y-85838819D01*
X194571999Y-85838819D02*
X194667237Y-85886438D01*
X194667237Y-85886438D02*
X194714856Y-85934057D01*
X194714856Y-85934057D02*
X194810094Y-86076914D01*
X194810094Y-86076914D02*
X194857713Y-86267390D01*
X194857713Y-86267390D02*
X194857713Y-86648342D01*
X194857713Y-86648342D02*
X194810094Y-86743580D01*
X194810094Y-86743580D02*
X194762475Y-86791200D01*
X194762475Y-86791200D02*
X194667237Y-86838819D01*
X194667237Y-86838819D02*
X194476761Y-86838819D01*
X194476761Y-86838819D02*
X194381523Y-86791200D01*
X194381523Y-86791200D02*
X194333904Y-86743580D01*
X194333904Y-86743580D02*
X194286285Y-86648342D01*
X194286285Y-86648342D02*
X194286285Y-86410247D01*
X194286285Y-86410247D02*
X194333904Y-86315009D01*
X194333904Y-86315009D02*
X194381523Y-86267390D01*
X194381523Y-86267390D02*
X194476761Y-86219771D01*
X194476761Y-86219771D02*
X194667237Y-86219771D01*
X194667237Y-86219771D02*
X194762475Y-86267390D01*
X194762475Y-86267390D02*
X194810094Y-86315009D01*
X194810094Y-86315009D02*
X194857713Y-86410247D01*
X186650094Y-97982819D02*
X186650094Y-96982819D01*
X186650094Y-96982819D02*
X186269142Y-96982819D01*
X186269142Y-96982819D02*
X186173904Y-97030438D01*
X186173904Y-97030438D02*
X186126285Y-97078057D01*
X186126285Y-97078057D02*
X186078666Y-97173295D01*
X186078666Y-97173295D02*
X186078666Y-97316152D01*
X186078666Y-97316152D02*
X186126285Y-97411390D01*
X186126285Y-97411390D02*
X186173904Y-97459009D01*
X186173904Y-97459009D02*
X186269142Y-97506628D01*
X186269142Y-97506628D02*
X186650094Y-97506628D01*
X185078666Y-97982819D02*
X185411999Y-97506628D01*
X185650094Y-97982819D02*
X185650094Y-96982819D01*
X185650094Y-96982819D02*
X185269142Y-96982819D01*
X185269142Y-96982819D02*
X185173904Y-97030438D01*
X185173904Y-97030438D02*
X185126285Y-97078057D01*
X185126285Y-97078057D02*
X185078666Y-97173295D01*
X185078666Y-97173295D02*
X185078666Y-97316152D01*
X185078666Y-97316152D02*
X185126285Y-97411390D01*
X185126285Y-97411390D02*
X185173904Y-97459009D01*
X185173904Y-97459009D02*
X185269142Y-97506628D01*
X185269142Y-97506628D02*
X185650094Y-97506628D01*
X184316761Y-97459009D02*
X184173904Y-97506628D01*
X184173904Y-97506628D02*
X184126285Y-97554247D01*
X184126285Y-97554247D02*
X184078666Y-97649485D01*
X184078666Y-97649485D02*
X184078666Y-97792342D01*
X184078666Y-97792342D02*
X184126285Y-97887580D01*
X184126285Y-97887580D02*
X184173904Y-97935200D01*
X184173904Y-97935200D02*
X184269142Y-97982819D01*
X184269142Y-97982819D02*
X184650094Y-97982819D01*
X184650094Y-97982819D02*
X184650094Y-96982819D01*
X184650094Y-96982819D02*
X184316761Y-96982819D01*
X184316761Y-96982819D02*
X184221523Y-97030438D01*
X184221523Y-97030438D02*
X184173904Y-97078057D01*
X184173904Y-97078057D02*
X184126285Y-97173295D01*
X184126285Y-97173295D02*
X184126285Y-97268533D01*
X184126285Y-97268533D02*
X184173904Y-97363771D01*
X184173904Y-97363771D02*
X184221523Y-97411390D01*
X184221523Y-97411390D02*
X184316761Y-97459009D01*
X184316761Y-97459009D02*
X184650094Y-97459009D01*
X183459618Y-96982819D02*
X183364380Y-96982819D01*
X183364380Y-96982819D02*
X183269142Y-97030438D01*
X183269142Y-97030438D02*
X183221523Y-97078057D01*
X183221523Y-97078057D02*
X183173904Y-97173295D01*
X183173904Y-97173295D02*
X183126285Y-97363771D01*
X183126285Y-97363771D02*
X183126285Y-97601866D01*
X183126285Y-97601866D02*
X183173904Y-97792342D01*
X183173904Y-97792342D02*
X183221523Y-97887580D01*
X183221523Y-97887580D02*
X183269142Y-97935200D01*
X183269142Y-97935200D02*
X183364380Y-97982819D01*
X183364380Y-97982819D02*
X183459618Y-97982819D01*
X183459618Y-97982819D02*
X183554856Y-97935200D01*
X183554856Y-97935200D02*
X183602475Y-97887580D01*
X183602475Y-97887580D02*
X183650094Y-97792342D01*
X183650094Y-97792342D02*
X183697713Y-97601866D01*
X183697713Y-97601866D02*
X183697713Y-97363771D01*
X183697713Y-97363771D02*
X183650094Y-97173295D01*
X183650094Y-97173295D02*
X183602475Y-97078057D01*
X183602475Y-97078057D02*
X183554856Y-97030438D01*
X183554856Y-97030438D02*
X183459618Y-96982819D01*
X195571904Y-104594819D02*
X195571904Y-103594819D01*
X195571904Y-103594819D02*
X195190952Y-103594819D01*
X195190952Y-103594819D02*
X195095714Y-103642438D01*
X195095714Y-103642438D02*
X195048095Y-103690057D01*
X195048095Y-103690057D02*
X195000476Y-103785295D01*
X195000476Y-103785295D02*
X195000476Y-103928152D01*
X195000476Y-103928152D02*
X195048095Y-104023390D01*
X195048095Y-104023390D02*
X195095714Y-104071009D01*
X195095714Y-104071009D02*
X195190952Y-104118628D01*
X195190952Y-104118628D02*
X195571904Y-104118628D01*
X194000476Y-104594819D02*
X194333809Y-104118628D01*
X194571904Y-104594819D02*
X194571904Y-103594819D01*
X194571904Y-103594819D02*
X194190952Y-103594819D01*
X194190952Y-103594819D02*
X194095714Y-103642438D01*
X194095714Y-103642438D02*
X194048095Y-103690057D01*
X194048095Y-103690057D02*
X194000476Y-103785295D01*
X194000476Y-103785295D02*
X194000476Y-103928152D01*
X194000476Y-103928152D02*
X194048095Y-104023390D01*
X194048095Y-104023390D02*
X194095714Y-104071009D01*
X194095714Y-104071009D02*
X194190952Y-104118628D01*
X194190952Y-104118628D02*
X194571904Y-104118628D01*
X193238571Y-104071009D02*
X193095714Y-104118628D01*
X193095714Y-104118628D02*
X193048095Y-104166247D01*
X193048095Y-104166247D02*
X193000476Y-104261485D01*
X193000476Y-104261485D02*
X193000476Y-104404342D01*
X193000476Y-104404342D02*
X193048095Y-104499580D01*
X193048095Y-104499580D02*
X193095714Y-104547200D01*
X193095714Y-104547200D02*
X193190952Y-104594819D01*
X193190952Y-104594819D02*
X193571904Y-104594819D01*
X193571904Y-104594819D02*
X193571904Y-103594819D01*
X193571904Y-103594819D02*
X193238571Y-103594819D01*
X193238571Y-103594819D02*
X193143333Y-103642438D01*
X193143333Y-103642438D02*
X193095714Y-103690057D01*
X193095714Y-103690057D02*
X193048095Y-103785295D01*
X193048095Y-103785295D02*
X193048095Y-103880533D01*
X193048095Y-103880533D02*
X193095714Y-103975771D01*
X193095714Y-103975771D02*
X193143333Y-104023390D01*
X193143333Y-104023390D02*
X193238571Y-104071009D01*
X193238571Y-104071009D02*
X193571904Y-104071009D01*
X195754475Y-89307200D02*
X195611618Y-89354819D01*
X195611618Y-89354819D02*
X195373523Y-89354819D01*
X195373523Y-89354819D02*
X195278285Y-89307200D01*
X195278285Y-89307200D02*
X195230666Y-89259580D01*
X195230666Y-89259580D02*
X195183047Y-89164342D01*
X195183047Y-89164342D02*
X195183047Y-89069104D01*
X195183047Y-89069104D02*
X195230666Y-88973866D01*
X195230666Y-88973866D02*
X195278285Y-88926247D01*
X195278285Y-88926247D02*
X195373523Y-88878628D01*
X195373523Y-88878628D02*
X195563999Y-88831009D01*
X195563999Y-88831009D02*
X195659237Y-88783390D01*
X195659237Y-88783390D02*
X195706856Y-88735771D01*
X195706856Y-88735771D02*
X195754475Y-88640533D01*
X195754475Y-88640533D02*
X195754475Y-88545295D01*
X195754475Y-88545295D02*
X195706856Y-88450057D01*
X195706856Y-88450057D02*
X195659237Y-88402438D01*
X195659237Y-88402438D02*
X195563999Y-88354819D01*
X195563999Y-88354819D02*
X195325904Y-88354819D01*
X195325904Y-88354819D02*
X195183047Y-88402438D01*
X194183047Y-89259580D02*
X194230666Y-89307200D01*
X194230666Y-89307200D02*
X194373523Y-89354819D01*
X194373523Y-89354819D02*
X194468761Y-89354819D01*
X194468761Y-89354819D02*
X194611618Y-89307200D01*
X194611618Y-89307200D02*
X194706856Y-89211961D01*
X194706856Y-89211961D02*
X194754475Y-89116723D01*
X194754475Y-89116723D02*
X194802094Y-88926247D01*
X194802094Y-88926247D02*
X194802094Y-88783390D01*
X194802094Y-88783390D02*
X194754475Y-88592914D01*
X194754475Y-88592914D02*
X194706856Y-88497676D01*
X194706856Y-88497676D02*
X194611618Y-88402438D01*
X194611618Y-88402438D02*
X194468761Y-88354819D01*
X194468761Y-88354819D02*
X194373523Y-88354819D01*
X194373523Y-88354819D02*
X194230666Y-88402438D01*
X194230666Y-88402438D02*
X194183047Y-88450057D01*
X193278285Y-89354819D02*
X193754475Y-89354819D01*
X193754475Y-89354819D02*
X193754475Y-88354819D01*
X186650094Y-100522819D02*
X186650094Y-99522819D01*
X186650094Y-99522819D02*
X186269142Y-99522819D01*
X186269142Y-99522819D02*
X186173904Y-99570438D01*
X186173904Y-99570438D02*
X186126285Y-99618057D01*
X186126285Y-99618057D02*
X186078666Y-99713295D01*
X186078666Y-99713295D02*
X186078666Y-99856152D01*
X186078666Y-99856152D02*
X186126285Y-99951390D01*
X186126285Y-99951390D02*
X186173904Y-99999009D01*
X186173904Y-99999009D02*
X186269142Y-100046628D01*
X186269142Y-100046628D02*
X186650094Y-100046628D01*
X185078666Y-100522819D02*
X185411999Y-100046628D01*
X185650094Y-100522819D02*
X185650094Y-99522819D01*
X185650094Y-99522819D02*
X185269142Y-99522819D01*
X185269142Y-99522819D02*
X185173904Y-99570438D01*
X185173904Y-99570438D02*
X185126285Y-99618057D01*
X185126285Y-99618057D02*
X185078666Y-99713295D01*
X185078666Y-99713295D02*
X185078666Y-99856152D01*
X185078666Y-99856152D02*
X185126285Y-99951390D01*
X185126285Y-99951390D02*
X185173904Y-99999009D01*
X185173904Y-99999009D02*
X185269142Y-100046628D01*
X185269142Y-100046628D02*
X185650094Y-100046628D01*
X184316761Y-99999009D02*
X184173904Y-100046628D01*
X184173904Y-100046628D02*
X184126285Y-100094247D01*
X184126285Y-100094247D02*
X184078666Y-100189485D01*
X184078666Y-100189485D02*
X184078666Y-100332342D01*
X184078666Y-100332342D02*
X184126285Y-100427580D01*
X184126285Y-100427580D02*
X184173904Y-100475200D01*
X184173904Y-100475200D02*
X184269142Y-100522819D01*
X184269142Y-100522819D02*
X184650094Y-100522819D01*
X184650094Y-100522819D02*
X184650094Y-99522819D01*
X184650094Y-99522819D02*
X184316761Y-99522819D01*
X184316761Y-99522819D02*
X184221523Y-99570438D01*
X184221523Y-99570438D02*
X184173904Y-99618057D01*
X184173904Y-99618057D02*
X184126285Y-99713295D01*
X184126285Y-99713295D02*
X184126285Y-99808533D01*
X184126285Y-99808533D02*
X184173904Y-99903771D01*
X184173904Y-99903771D02*
X184221523Y-99951390D01*
X184221523Y-99951390D02*
X184316761Y-99999009D01*
X184316761Y-99999009D02*
X184650094Y-99999009D01*
X183126285Y-100522819D02*
X183697713Y-100522819D01*
X183411999Y-100522819D02*
X183411999Y-99522819D01*
X183411999Y-99522819D02*
X183507237Y-99665676D01*
X183507237Y-99665676D02*
X183602475Y-99760914D01*
X183602475Y-99760914D02*
X183697713Y-99808533D01*
X186150094Y-102062819D02*
X185531047Y-102062819D01*
X185531047Y-102062819D02*
X185864380Y-102443771D01*
X185864380Y-102443771D02*
X185721523Y-102443771D01*
X185721523Y-102443771D02*
X185626285Y-102491390D01*
X185626285Y-102491390D02*
X185578666Y-102539009D01*
X185578666Y-102539009D02*
X185531047Y-102634247D01*
X185531047Y-102634247D02*
X185531047Y-102872342D01*
X185531047Y-102872342D02*
X185578666Y-102967580D01*
X185578666Y-102967580D02*
X185626285Y-103015200D01*
X185626285Y-103015200D02*
X185721523Y-103062819D01*
X185721523Y-103062819D02*
X186007237Y-103062819D01*
X186007237Y-103062819D02*
X186102475Y-103015200D01*
X186102475Y-103015200D02*
X186150094Y-102967580D01*
X185245332Y-102062819D02*
X184911999Y-103062819D01*
X184911999Y-103062819D02*
X184578666Y-102062819D01*
X184340570Y-102062819D02*
X183721523Y-102062819D01*
X183721523Y-102062819D02*
X184054856Y-102443771D01*
X184054856Y-102443771D02*
X183911999Y-102443771D01*
X183911999Y-102443771D02*
X183816761Y-102491390D01*
X183816761Y-102491390D02*
X183769142Y-102539009D01*
X183769142Y-102539009D02*
X183721523Y-102634247D01*
X183721523Y-102634247D02*
X183721523Y-102872342D01*
X183721523Y-102872342D02*
X183769142Y-102967580D01*
X183769142Y-102967580D02*
X183816761Y-103015200D01*
X183816761Y-103015200D02*
X183911999Y-103062819D01*
X183911999Y-103062819D02*
X184197713Y-103062819D01*
X184197713Y-103062819D02*
X184292951Y-103015200D01*
X184292951Y-103015200D02*
X184340570Y-102967580D01*
X195603713Y-99538819D02*
X195603713Y-98538819D01*
X195603713Y-98538819D02*
X195032285Y-99538819D01*
X195032285Y-99538819D02*
X195032285Y-98538819D01*
X193984666Y-99443580D02*
X194032285Y-99491200D01*
X194032285Y-99491200D02*
X194175142Y-99538819D01*
X194175142Y-99538819D02*
X194270380Y-99538819D01*
X194270380Y-99538819D02*
X194413237Y-99491200D01*
X194413237Y-99491200D02*
X194508475Y-99395961D01*
X194508475Y-99395961D02*
X194556094Y-99300723D01*
X194556094Y-99300723D02*
X194603713Y-99110247D01*
X194603713Y-99110247D02*
X194603713Y-98967390D01*
X194603713Y-98967390D02*
X194556094Y-98776914D01*
X194556094Y-98776914D02*
X194508475Y-98681676D01*
X194508475Y-98681676D02*
X194413237Y-98586438D01*
X194413237Y-98586438D02*
X194270380Y-98538819D01*
X194270380Y-98538819D02*
X194175142Y-98538819D01*
X194175142Y-98538819D02*
X194032285Y-98586438D01*
X194032285Y-98586438D02*
X193984666Y-98634057D01*
X117196856Y-83723819D02*
X117196856Y-82723819D01*
X117196856Y-82723819D02*
X116958761Y-82723819D01*
X116958761Y-82723819D02*
X116815904Y-82771438D01*
X116815904Y-82771438D02*
X116720666Y-82866676D01*
X116720666Y-82866676D02*
X116673047Y-82961914D01*
X116673047Y-82961914D02*
X116625428Y-83152390D01*
X116625428Y-83152390D02*
X116625428Y-83295247D01*
X116625428Y-83295247D02*
X116673047Y-83485723D01*
X116673047Y-83485723D02*
X116720666Y-83580961D01*
X116720666Y-83580961D02*
X116815904Y-83676200D01*
X116815904Y-83676200D02*
X116958761Y-83723819D01*
X116958761Y-83723819D02*
X117196856Y-83723819D01*
X116244475Y-83676200D02*
X116101618Y-83723819D01*
X116101618Y-83723819D02*
X115863523Y-83723819D01*
X115863523Y-83723819D02*
X115768285Y-83676200D01*
X115768285Y-83676200D02*
X115720666Y-83628580D01*
X115720666Y-83628580D02*
X115673047Y-83533342D01*
X115673047Y-83533342D02*
X115673047Y-83438104D01*
X115673047Y-83438104D02*
X115720666Y-83342866D01*
X115720666Y-83342866D02*
X115768285Y-83295247D01*
X115768285Y-83295247D02*
X115863523Y-83247628D01*
X115863523Y-83247628D02*
X116053999Y-83200009D01*
X116053999Y-83200009D02*
X116149237Y-83152390D01*
X116149237Y-83152390D02*
X116196856Y-83104771D01*
X116196856Y-83104771D02*
X116244475Y-83009533D01*
X116244475Y-83009533D02*
X116244475Y-82914295D01*
X116244475Y-82914295D02*
X116196856Y-82819057D01*
X116196856Y-82819057D02*
X116149237Y-82771438D01*
X116149237Y-82771438D02*
X116053999Y-82723819D01*
X116053999Y-82723819D02*
X115815904Y-82723819D01*
X115815904Y-82723819D02*
X115673047Y-82771438D01*
X115339713Y-82723819D02*
X114720666Y-82723819D01*
X114720666Y-82723819D02*
X115053999Y-83104771D01*
X115053999Y-83104771D02*
X114911142Y-83104771D01*
X114911142Y-83104771D02*
X114815904Y-83152390D01*
X114815904Y-83152390D02*
X114768285Y-83200009D01*
X114768285Y-83200009D02*
X114720666Y-83295247D01*
X114720666Y-83295247D02*
X114720666Y-83533342D01*
X114720666Y-83533342D02*
X114768285Y-83628580D01*
X114768285Y-83628580D02*
X114815904Y-83676200D01*
X114815904Y-83676200D02*
X114911142Y-83723819D01*
X114911142Y-83723819D02*
X115196856Y-83723819D01*
X115196856Y-83723819D02*
X115292094Y-83676200D01*
X115292094Y-83676200D02*
X115339713Y-83628580D01*
X114339713Y-82819057D02*
X114292094Y-82771438D01*
X114292094Y-82771438D02*
X114196856Y-82723819D01*
X114196856Y-82723819D02*
X113958761Y-82723819D01*
X113958761Y-82723819D02*
X113863523Y-82771438D01*
X113863523Y-82771438D02*
X113815904Y-82819057D01*
X113815904Y-82819057D02*
X113768285Y-82914295D01*
X113768285Y-82914295D02*
X113768285Y-83009533D01*
X113768285Y-83009533D02*
X113815904Y-83152390D01*
X113815904Y-83152390D02*
X114387332Y-83723819D01*
X114387332Y-83723819D02*
X113768285Y-83723819D01*
X113434951Y-82723819D02*
X112815904Y-82723819D01*
X112815904Y-82723819D02*
X113149237Y-83104771D01*
X113149237Y-83104771D02*
X113006380Y-83104771D01*
X113006380Y-83104771D02*
X112911142Y-83152390D01*
X112911142Y-83152390D02*
X112863523Y-83200009D01*
X112863523Y-83200009D02*
X112815904Y-83295247D01*
X112815904Y-83295247D02*
X112815904Y-83533342D01*
X112815904Y-83533342D02*
X112863523Y-83628580D01*
X112863523Y-83628580D02*
X112911142Y-83676200D01*
X112911142Y-83676200D02*
X113006380Y-83723819D01*
X113006380Y-83723819D02*
X113292094Y-83723819D01*
X113292094Y-83723819D02*
X113387332Y-83676200D01*
X113387332Y-83676200D02*
X113434951Y-83628580D01*
X111863523Y-83723819D02*
X112434951Y-83723819D01*
X112149237Y-83723819D02*
X112149237Y-82723819D01*
X112149237Y-82723819D02*
X112244475Y-82866676D01*
X112244475Y-82866676D02*
X112339713Y-82961914D01*
X112339713Y-82961914D02*
X112434951Y-83009533D01*
X119911143Y-85333819D02*
X120244476Y-84857628D01*
X120482571Y-85333819D02*
X120482571Y-84333819D01*
X120482571Y-84333819D02*
X120101619Y-84333819D01*
X120101619Y-84333819D02*
X120006381Y-84381438D01*
X120006381Y-84381438D02*
X119958762Y-84429057D01*
X119958762Y-84429057D02*
X119911143Y-84524295D01*
X119911143Y-84524295D02*
X119911143Y-84667152D01*
X119911143Y-84667152D02*
X119958762Y-84762390D01*
X119958762Y-84762390D02*
X120006381Y-84810009D01*
X120006381Y-84810009D02*
X120101619Y-84857628D01*
X120101619Y-84857628D02*
X120482571Y-84857628D01*
X119101619Y-85286200D02*
X119196857Y-85333819D01*
X119196857Y-85333819D02*
X119387333Y-85333819D01*
X119387333Y-85333819D02*
X119482571Y-85286200D01*
X119482571Y-85286200D02*
X119530190Y-85190961D01*
X119530190Y-85190961D02*
X119530190Y-84810009D01*
X119530190Y-84810009D02*
X119482571Y-84714771D01*
X119482571Y-84714771D02*
X119387333Y-84667152D01*
X119387333Y-84667152D02*
X119196857Y-84667152D01*
X119196857Y-84667152D02*
X119101619Y-84714771D01*
X119101619Y-84714771D02*
X119054000Y-84810009D01*
X119054000Y-84810009D02*
X119054000Y-84905247D01*
X119054000Y-84905247D02*
X119530190Y-85000485D01*
X118196857Y-85333819D02*
X118196857Y-84810009D01*
X118196857Y-84810009D02*
X118244476Y-84714771D01*
X118244476Y-84714771D02*
X118339714Y-84667152D01*
X118339714Y-84667152D02*
X118530190Y-84667152D01*
X118530190Y-84667152D02*
X118625428Y-84714771D01*
X118196857Y-85286200D02*
X118292095Y-85333819D01*
X118292095Y-85333819D02*
X118530190Y-85333819D01*
X118530190Y-85333819D02*
X118625428Y-85286200D01*
X118625428Y-85286200D02*
X118673047Y-85190961D01*
X118673047Y-85190961D02*
X118673047Y-85095723D01*
X118673047Y-85095723D02*
X118625428Y-85000485D01*
X118625428Y-85000485D02*
X118530190Y-84952866D01*
X118530190Y-84952866D02*
X118292095Y-84952866D01*
X118292095Y-84952866D02*
X118196857Y-84905247D01*
X117577809Y-85333819D02*
X117673047Y-85286200D01*
X117673047Y-85286200D02*
X117720666Y-85190961D01*
X117720666Y-85190961D02*
X117720666Y-84333819D01*
X116577808Y-84333819D02*
X116006380Y-84333819D01*
X116292094Y-85333819D02*
X116292094Y-84333819D01*
X115673046Y-85333819D02*
X115673046Y-84667152D01*
X115673046Y-84333819D02*
X115720665Y-84381438D01*
X115720665Y-84381438D02*
X115673046Y-84429057D01*
X115673046Y-84429057D02*
X115625427Y-84381438D01*
X115625427Y-84381438D02*
X115673046Y-84333819D01*
X115673046Y-84333819D02*
X115673046Y-84429057D01*
X115196856Y-85333819D02*
X115196856Y-84667152D01*
X115196856Y-84762390D02*
X115149237Y-84714771D01*
X115149237Y-84714771D02*
X115053999Y-84667152D01*
X115053999Y-84667152D02*
X114911142Y-84667152D01*
X114911142Y-84667152D02*
X114815904Y-84714771D01*
X114815904Y-84714771D02*
X114768285Y-84810009D01*
X114768285Y-84810009D02*
X114768285Y-85333819D01*
X114768285Y-84810009D02*
X114720666Y-84714771D01*
X114720666Y-84714771D02*
X114625428Y-84667152D01*
X114625428Y-84667152D02*
X114482571Y-84667152D01*
X114482571Y-84667152D02*
X114387332Y-84714771D01*
X114387332Y-84714771D02*
X114339713Y-84810009D01*
X114339713Y-84810009D02*
X114339713Y-85333819D01*
X113482571Y-85286200D02*
X113577809Y-85333819D01*
X113577809Y-85333819D02*
X113768285Y-85333819D01*
X113768285Y-85333819D02*
X113863523Y-85286200D01*
X113863523Y-85286200D02*
X113911142Y-85190961D01*
X113911142Y-85190961D02*
X113911142Y-84810009D01*
X113911142Y-84810009D02*
X113863523Y-84714771D01*
X113863523Y-84714771D02*
X113768285Y-84667152D01*
X113768285Y-84667152D02*
X113577809Y-84667152D01*
X113577809Y-84667152D02*
X113482571Y-84714771D01*
X113482571Y-84714771D02*
X113434952Y-84810009D01*
X113434952Y-84810009D02*
X113434952Y-84905247D01*
X113434952Y-84905247D02*
X113911142Y-85000485D01*
X111673047Y-85238580D02*
X111720666Y-85286200D01*
X111720666Y-85286200D02*
X111863523Y-85333819D01*
X111863523Y-85333819D02*
X111958761Y-85333819D01*
X111958761Y-85333819D02*
X112101618Y-85286200D01*
X112101618Y-85286200D02*
X112196856Y-85190961D01*
X112196856Y-85190961D02*
X112244475Y-85095723D01*
X112244475Y-85095723D02*
X112292094Y-84905247D01*
X112292094Y-84905247D02*
X112292094Y-84762390D01*
X112292094Y-84762390D02*
X112244475Y-84571914D01*
X112244475Y-84571914D02*
X112196856Y-84476676D01*
X112196856Y-84476676D02*
X112101618Y-84381438D01*
X112101618Y-84381438D02*
X111958761Y-84333819D01*
X111958761Y-84333819D02*
X111863523Y-84333819D01*
X111863523Y-84333819D02*
X111720666Y-84381438D01*
X111720666Y-84381438D02*
X111673047Y-84429057D01*
X111101618Y-85333819D02*
X111196856Y-85286200D01*
X111196856Y-85286200D02*
X111244475Y-85190961D01*
X111244475Y-85190961D02*
X111244475Y-84333819D01*
X110577808Y-85333819D02*
X110673046Y-85286200D01*
X110673046Y-85286200D02*
X110720665Y-85238580D01*
X110720665Y-85238580D02*
X110768284Y-85143342D01*
X110768284Y-85143342D02*
X110768284Y-84857628D01*
X110768284Y-84857628D02*
X110720665Y-84762390D01*
X110720665Y-84762390D02*
X110673046Y-84714771D01*
X110673046Y-84714771D02*
X110577808Y-84667152D01*
X110577808Y-84667152D02*
X110434951Y-84667152D01*
X110434951Y-84667152D02*
X110339713Y-84714771D01*
X110339713Y-84714771D02*
X110292094Y-84762390D01*
X110292094Y-84762390D02*
X110244475Y-84857628D01*
X110244475Y-84857628D02*
X110244475Y-85143342D01*
X110244475Y-85143342D02*
X110292094Y-85238580D01*
X110292094Y-85238580D02*
X110339713Y-85286200D01*
X110339713Y-85286200D02*
X110434951Y-85333819D01*
X110434951Y-85333819D02*
X110577808Y-85333819D01*
X109387332Y-85286200D02*
X109482570Y-85333819D01*
X109482570Y-85333819D02*
X109673046Y-85333819D01*
X109673046Y-85333819D02*
X109768284Y-85286200D01*
X109768284Y-85286200D02*
X109815903Y-85238580D01*
X109815903Y-85238580D02*
X109863522Y-85143342D01*
X109863522Y-85143342D02*
X109863522Y-84857628D01*
X109863522Y-84857628D02*
X109815903Y-84762390D01*
X109815903Y-84762390D02*
X109768284Y-84714771D01*
X109768284Y-84714771D02*
X109673046Y-84667152D01*
X109673046Y-84667152D02*
X109482570Y-84667152D01*
X109482570Y-84667152D02*
X109387332Y-84714771D01*
X108958760Y-85333819D02*
X108958760Y-84333819D01*
X108863522Y-84952866D02*
X108577808Y-85333819D01*
X108577808Y-84667152D02*
X108958760Y-85048104D01*
X109902475Y-89053200D02*
X109759618Y-89100819D01*
X109759618Y-89100819D02*
X109521523Y-89100819D01*
X109521523Y-89100819D02*
X109426285Y-89053200D01*
X109426285Y-89053200D02*
X109378666Y-89005580D01*
X109378666Y-89005580D02*
X109331047Y-88910342D01*
X109331047Y-88910342D02*
X109331047Y-88815104D01*
X109331047Y-88815104D02*
X109378666Y-88719866D01*
X109378666Y-88719866D02*
X109426285Y-88672247D01*
X109426285Y-88672247D02*
X109521523Y-88624628D01*
X109521523Y-88624628D02*
X109711999Y-88577009D01*
X109711999Y-88577009D02*
X109807237Y-88529390D01*
X109807237Y-88529390D02*
X109854856Y-88481771D01*
X109854856Y-88481771D02*
X109902475Y-88386533D01*
X109902475Y-88386533D02*
X109902475Y-88291295D01*
X109902475Y-88291295D02*
X109854856Y-88196057D01*
X109854856Y-88196057D02*
X109807237Y-88148438D01*
X109807237Y-88148438D02*
X109711999Y-88100819D01*
X109711999Y-88100819D02*
X109473904Y-88100819D01*
X109473904Y-88100819D02*
X109331047Y-88148438D01*
X108331047Y-89005580D02*
X108378666Y-89053200D01*
X108378666Y-89053200D02*
X108521523Y-89100819D01*
X108521523Y-89100819D02*
X108616761Y-89100819D01*
X108616761Y-89100819D02*
X108759618Y-89053200D01*
X108759618Y-89053200D02*
X108854856Y-88957961D01*
X108854856Y-88957961D02*
X108902475Y-88862723D01*
X108902475Y-88862723D02*
X108950094Y-88672247D01*
X108950094Y-88672247D02*
X108950094Y-88529390D01*
X108950094Y-88529390D02*
X108902475Y-88338914D01*
X108902475Y-88338914D02*
X108854856Y-88243676D01*
X108854856Y-88243676D02*
X108759618Y-88148438D01*
X108759618Y-88148438D02*
X108616761Y-88100819D01*
X108616761Y-88100819D02*
X108521523Y-88100819D01*
X108521523Y-88100819D02*
X108378666Y-88148438D01*
X108378666Y-88148438D02*
X108331047Y-88196057D01*
X107426285Y-89100819D02*
X107902475Y-89100819D01*
X107902475Y-89100819D02*
X107902475Y-88100819D01*
X117080180Y-94546904D02*
X116270657Y-94546904D01*
X116270657Y-94546904D02*
X116175419Y-94499285D01*
X116175419Y-94499285D02*
X116127800Y-94451666D01*
X116127800Y-94451666D02*
X116080180Y-94356428D01*
X116080180Y-94356428D02*
X116080180Y-94165952D01*
X116080180Y-94165952D02*
X116127800Y-94070714D01*
X116127800Y-94070714D02*
X116175419Y-94023095D01*
X116175419Y-94023095D02*
X116270657Y-93975476D01*
X116270657Y-93975476D02*
X117080180Y-93975476D01*
X116080180Y-92975476D02*
X116080180Y-93546904D01*
X116080180Y-93261190D02*
X117080180Y-93261190D01*
X117080180Y-93261190D02*
X116937323Y-93356428D01*
X116937323Y-93356428D02*
X116842085Y-93451666D01*
X116842085Y-93451666D02*
X116794466Y-93546904D01*
X104515180Y-84668808D02*
X103515180Y-84335475D01*
X103515180Y-84335475D02*
X104515180Y-84002142D01*
X103515180Y-83668808D02*
X104181847Y-83668808D01*
X104515180Y-83668808D02*
X104467561Y-83716427D01*
X104467561Y-83716427D02*
X104419942Y-83668808D01*
X104419942Y-83668808D02*
X104467561Y-83621189D01*
X104467561Y-83621189D02*
X104515180Y-83668808D01*
X104515180Y-83668808D02*
X104419942Y-83668808D01*
X104181847Y-83192618D02*
X103515180Y-83192618D01*
X104086609Y-83192618D02*
X104134228Y-83144999D01*
X104134228Y-83144999D02*
X104181847Y-83049761D01*
X104181847Y-83049761D02*
X104181847Y-82906904D01*
X104181847Y-82906904D02*
X104134228Y-82811666D01*
X104134228Y-82811666D02*
X104038990Y-82764047D01*
X104038990Y-82764047D02*
X103515180Y-82764047D01*
X198073333Y-105984819D02*
X198073333Y-106699104D01*
X198073333Y-106699104D02*
X198120952Y-106841961D01*
X198120952Y-106841961D02*
X198216190Y-106937200D01*
X198216190Y-106937200D02*
X198359047Y-106984819D01*
X198359047Y-106984819D02*
X198454285Y-106984819D01*
X197692380Y-105984819D02*
X197073333Y-105984819D01*
X197073333Y-105984819D02*
X197406666Y-106365771D01*
X197406666Y-106365771D02*
X197263809Y-106365771D01*
X197263809Y-106365771D02*
X197168571Y-106413390D01*
X197168571Y-106413390D02*
X197120952Y-106461009D01*
X197120952Y-106461009D02*
X197073333Y-106556247D01*
X197073333Y-106556247D02*
X197073333Y-106794342D01*
X197073333Y-106794342D02*
X197120952Y-106889580D01*
X197120952Y-106889580D02*
X197168571Y-106937200D01*
X197168571Y-106937200D02*
X197263809Y-106984819D01*
X197263809Y-106984819D02*
X197549523Y-106984819D01*
X197549523Y-106984819D02*
X197644761Y-106937200D01*
X197644761Y-106937200D02*
X197692380Y-106889580D01*
D11*
%TO.C,U1*%
X121115000Y-103965000D02*
X103335000Y-103965000D01*
X103335000Y-103965000D02*
X103335000Y-81105000D01*
X103335000Y-81105000D02*
X121115000Y-81105000D01*
X121115000Y-81105000D02*
X121115000Y-103965000D01*
%TO.C,J4*%
X201282000Y-87722000D02*
X201282000Y-88002000D01*
%TO.C,G\u002A\u002A\u002A*%
G36*
X143105526Y-95681197D02*
G01*
X143122841Y-95694662D01*
X143082926Y-95703798D01*
X143044984Y-95701153D01*
X143033828Y-95684151D01*
X143047062Y-95676738D01*
X143105526Y-95681197D01*
G37*
G36*
X130809528Y-97882214D02*
G01*
X130828704Y-97940012D01*
X130816845Y-97955490D01*
X130770363Y-97968802D01*
X130681087Y-97978255D01*
X130541015Y-97984367D01*
X130342150Y-97987655D01*
X130076489Y-97988636D01*
X129324275Y-97988636D01*
X129349947Y-97885764D01*
X129358218Y-97856270D01*
X129385220Y-97804922D01*
X129519425Y-97804922D01*
X129527438Y-97810759D01*
X129593580Y-97821989D01*
X129716303Y-97830941D01*
X129883199Y-97836863D01*
X130081861Y-97839004D01*
X130227404Y-97838913D01*
X130400479Y-97837723D01*
X130515631Y-97833920D01*
X130583168Y-97825984D01*
X130613399Y-97812395D01*
X130616635Y-97791636D01*
X130603185Y-97762187D01*
X130530422Y-97673902D01*
X130392823Y-97587274D01*
X130223122Y-97531369D01*
X130043629Y-97513037D01*
X129876656Y-97539129D01*
X129838478Y-97553665D01*
X129730089Y-97610366D01*
X129626919Y-97681459D01*
X129549765Y-97751469D01*
X129519425Y-97804922D01*
X129385220Y-97804922D01*
X129449609Y-97682479D01*
X129599360Y-97543264D01*
X129797326Y-97445873D01*
X130033361Y-97397553D01*
X130167628Y-97398994D01*
X130385064Y-97454630D01*
X130577480Y-97568877D01*
X130725832Y-97732523D01*
X130760681Y-97789229D01*
X130761945Y-97791636D01*
X130809528Y-97882214D01*
G37*
G36*
X144184603Y-97988636D02*
G01*
X143413108Y-97988636D01*
X143158053Y-97988149D01*
X142962708Y-97986183D01*
X142824498Y-97982033D01*
X142734488Y-97974992D01*
X142683745Y-97964354D01*
X142663333Y-97949414D01*
X142664319Y-97929465D01*
X142674737Y-97898607D01*
X142687025Y-97837247D01*
X142693953Y-97818370D01*
X142702911Y-97804922D01*
X142836657Y-97804922D01*
X142844510Y-97810707D01*
X142910346Y-97821955D01*
X143032788Y-97830924D01*
X143199408Y-97836858D01*
X143397776Y-97839004D01*
X143493023Y-97838527D01*
X143678198Y-97834529D01*
X143825854Y-97827091D01*
X143923563Y-97816971D01*
X143958895Y-97804922D01*
X143948846Y-97772388D01*
X143884855Y-97703178D01*
X143778352Y-97631162D01*
X143648738Y-97566787D01*
X143515412Y-97520501D01*
X143397776Y-97502750D01*
X143337361Y-97508162D01*
X143208842Y-97542622D01*
X143075111Y-97599976D01*
X142955570Y-97669775D01*
X142869618Y-97741573D01*
X142836657Y-97804922D01*
X142702911Y-97804922D01*
X142737666Y-97752747D01*
X142808280Y-97666098D01*
X142963066Y-97528494D01*
X143163131Y-97429346D01*
X143375899Y-97390176D01*
X143588244Y-97409564D01*
X143787041Y-97486090D01*
X143959164Y-97618335D01*
X144091487Y-97804880D01*
X144091508Y-97804922D01*
X144184603Y-97988636D01*
G37*
G36*
X153438337Y-93447020D02*
G01*
X153460515Y-93516896D01*
X153457971Y-93518542D01*
X153404602Y-93524443D01*
X153290378Y-93529540D01*
X153126357Y-93533540D01*
X152923595Y-93536154D01*
X152693150Y-93537090D01*
X151925785Y-93537090D01*
X151984184Y-93397321D01*
X151985423Y-93394796D01*
X152113829Y-93394796D01*
X152125774Y-93400865D01*
X152198288Y-93410376D01*
X152325585Y-93417986D01*
X152494947Y-93423036D01*
X152693652Y-93424866D01*
X152796941Y-93424362D01*
X152988284Y-93420344D01*
X153139106Y-93412880D01*
X153237979Y-93402651D01*
X153273475Y-93390336D01*
X153265567Y-93361041D01*
X153207856Y-93287129D01*
X153110819Y-93206762D01*
X152994302Y-93135146D01*
X152878156Y-93087484D01*
X152791478Y-93066498D01*
X152667024Y-93058114D01*
X152529376Y-93083984D01*
X152446015Y-93115437D01*
X152330503Y-93179937D01*
X152223382Y-93257910D01*
X152144530Y-93334486D01*
X152113829Y-93394796D01*
X151985423Y-93394796D01*
X152033534Y-93296764D01*
X152168454Y-93129620D01*
X152356981Y-93009265D01*
X152362616Y-93006697D01*
X152574240Y-92948256D01*
X152799619Y-92948400D01*
X153015627Y-93004278D01*
X153199138Y-93113042D01*
X153231061Y-93143420D01*
X153307935Y-93236063D01*
X153382252Y-93345336D01*
X153407072Y-93390336D01*
X153438337Y-93447020D01*
G37*
G36*
X134060475Y-93984730D02*
G01*
X133984717Y-94195638D01*
X133856287Y-94374800D01*
X133679052Y-94508180D01*
X133501554Y-94572532D01*
X133284965Y-94585186D01*
X133072766Y-94534355D01*
X132880209Y-94424027D01*
X132722548Y-94258187D01*
X132625712Y-94059279D01*
X132587416Y-93835069D01*
X132594541Y-93748877D01*
X132705569Y-93748877D01*
X132723222Y-93957620D01*
X132798084Y-94148982D01*
X132925305Y-94308268D01*
X133100035Y-94420784D01*
X133104817Y-94422807D01*
X133299113Y-94468477D01*
X133485775Y-94448390D01*
X133654798Y-94371341D01*
X133796179Y-94246127D01*
X133899915Y-94081544D01*
X133956003Y-93886389D01*
X133954439Y-93669459D01*
X133941187Y-93599773D01*
X133861334Y-93397924D01*
X133730294Y-93249228D01*
X133552208Y-93157296D01*
X133331217Y-93125742D01*
X133250916Y-93129160D01*
X133056429Y-93177540D01*
X132903021Y-93286689D01*
X132783269Y-93461150D01*
X132749975Y-93537444D01*
X132705569Y-93748877D01*
X132594541Y-93748877D01*
X132606407Y-93605333D01*
X132681084Y-93389353D01*
X132809848Y-93206409D01*
X132888848Y-93135796D01*
X133078906Y-93030606D01*
X133284663Y-92987690D01*
X133492189Y-93004823D01*
X133687551Y-93079779D01*
X133856818Y-93210333D01*
X133986059Y-93394260D01*
X134038496Y-93523821D01*
X134079691Y-93756113D01*
X134068741Y-93886389D01*
X134060475Y-93984730D01*
G37*
G36*
X149748142Y-97792245D02*
G01*
X149757860Y-99559770D01*
X148747479Y-99559770D01*
X147737098Y-99559770D01*
X147737098Y-99185691D01*
X147737098Y-98811611D01*
X148354330Y-98811611D01*
X148971561Y-98811611D01*
X148971561Y-98418828D01*
X148971561Y-98026044D01*
X148354330Y-98026044D01*
X147737098Y-98026044D01*
X147737098Y-97651965D01*
X147737098Y-97390109D01*
X147845904Y-97390109D01*
X147856965Y-97642613D01*
X147868026Y-97895116D01*
X148475905Y-97905395D01*
X149083785Y-97915674D01*
X149083785Y-98419754D01*
X149083785Y-98923835D01*
X148466553Y-98923835D01*
X147849322Y-98923835D01*
X147849322Y-99185691D01*
X147849322Y-99447546D01*
X148728409Y-99447546D01*
X149607496Y-99447546D01*
X149607496Y-97801597D01*
X149607496Y-96155647D01*
X148728409Y-96155647D01*
X147849322Y-96155647D01*
X147849322Y-96398798D01*
X147849322Y-96641950D01*
X148466553Y-96641950D01*
X149083785Y-96641950D01*
X149083785Y-97016030D01*
X149083785Y-97390109D01*
X148464844Y-97390109D01*
X147845904Y-97390109D01*
X147737098Y-97390109D01*
X147737098Y-97277885D01*
X148354330Y-97277885D01*
X148971561Y-97277885D01*
X148971561Y-97034733D01*
X148971561Y-96791582D01*
X148354330Y-96791582D01*
X147737098Y-96791582D01*
X147737098Y-96398187D01*
X147737098Y-96004793D01*
X148737761Y-96014756D01*
X149738424Y-96024719D01*
X149739144Y-96155647D01*
X149748142Y-97792245D01*
G37*
G36*
X144779430Y-93816827D02*
G01*
X144746850Y-94031980D01*
X144663668Y-94229436D01*
X144532514Y-94394617D01*
X144356021Y-94512947D01*
X144235335Y-94556840D01*
X144013209Y-94584298D01*
X143802594Y-94547239D01*
X143614553Y-94452221D01*
X143460153Y-94305803D01*
X143350457Y-94114543D01*
X143296532Y-93884998D01*
X143295246Y-93870000D01*
X143298969Y-93692461D01*
X143408594Y-93692461D01*
X143410997Y-93887983D01*
X143469779Y-94083223D01*
X143589580Y-94266257D01*
X143613090Y-94291023D01*
X143725688Y-94379189D01*
X143840397Y-94433764D01*
X144010332Y-94462065D01*
X144215113Y-94440180D01*
X144389297Y-94356520D01*
X144524748Y-94217491D01*
X144613327Y-94029498D01*
X144646898Y-93798946D01*
X144625134Y-93596196D01*
X144546018Y-93403222D01*
X144416102Y-93255223D01*
X144242700Y-93160216D01*
X144033127Y-93126218D01*
X143870010Y-93146016D01*
X143693280Y-93223434D01*
X143554375Y-93348263D01*
X143457934Y-93508580D01*
X143408594Y-93692461D01*
X143298969Y-93692461D01*
X143300246Y-93631564D01*
X143360925Y-93430855D01*
X143482105Y-93251411D01*
X143509792Y-93220849D01*
X143654432Y-93097936D01*
X143814064Y-93032605D01*
X144014351Y-93013379D01*
X144056571Y-93013965D01*
X144267350Y-93042030D01*
X144436705Y-93118004D01*
X144584022Y-93249936D01*
X144682255Y-93391736D01*
X144758775Y-93598554D01*
X144777738Y-93798946D01*
X144779430Y-93816827D01*
G37*
G36*
X141823194Y-93821688D02*
G01*
X141776508Y-94057547D01*
X141670657Y-94255159D01*
X141511009Y-94406880D01*
X141302930Y-94505065D01*
X141170936Y-94529892D01*
X140958151Y-94518059D01*
X140754382Y-94450990D01*
X140578987Y-94336059D01*
X140451323Y-94180642D01*
X140422008Y-94123753D01*
X140351046Y-93896026D01*
X140347785Y-93767191D01*
X140480014Y-93767191D01*
X140507703Y-93987362D01*
X140594144Y-94173290D01*
X140737991Y-94312559D01*
X140887033Y-94377297D01*
X141073034Y-94401488D01*
X141259101Y-94380168D01*
X141415535Y-94313305D01*
X141536000Y-94219821D01*
X141632362Y-94100331D01*
X141681784Y-93955085D01*
X141695714Y-93761538D01*
X141686319Y-93596252D01*
X141643858Y-93445275D01*
X141556249Y-93323028D01*
X141411715Y-93206493D01*
X141384728Y-93188663D01*
X141298121Y-93146337D01*
X141199559Y-93129907D01*
X141058187Y-93132956D01*
X140910483Y-93153442D01*
X140722487Y-93228637D01*
X140587903Y-93356184D01*
X140506992Y-93535797D01*
X140480014Y-93767191D01*
X140347785Y-93767191D01*
X140345201Y-93665084D01*
X140403274Y-93446191D01*
X140524068Y-93254610D01*
X140537565Y-93239397D01*
X140659272Y-93123028D01*
X140784872Y-93052787D01*
X140947555Y-93009460D01*
X141166803Y-92997696D01*
X141379637Y-93048983D01*
X141560917Y-93158762D01*
X141701600Y-93319282D01*
X141792642Y-93522791D01*
X141824999Y-93761538D01*
X141823194Y-93821688D01*
G37*
G36*
X137171276Y-93925266D02*
G01*
X137105275Y-94162111D01*
X136979499Y-94354063D01*
X136793716Y-94501505D01*
X136756505Y-94522112D01*
X136658978Y-94561465D01*
X136548747Y-94577380D01*
X136395245Y-94575535D01*
X136305664Y-94569889D01*
X136185945Y-94551442D01*
X136094777Y-94514186D01*
X136002462Y-94448515D01*
X135987321Y-94436094D01*
X135836305Y-94278926D01*
X135745129Y-94100574D01*
X135702174Y-93879005D01*
X135701263Y-93780017D01*
X135823244Y-93780017D01*
X135827794Y-93887776D01*
X135876339Y-94100835D01*
X135979713Y-94265753D01*
X136140062Y-94386637D01*
X136198463Y-94414240D01*
X136396581Y-94462454D01*
X136586346Y-94446107D01*
X136757741Y-94373013D01*
X136900750Y-94250986D01*
X137005357Y-94087842D01*
X137061545Y-93891395D01*
X137059299Y-93669459D01*
X137046048Y-93599773D01*
X136966194Y-93397924D01*
X136835154Y-93249228D01*
X136657068Y-93157296D01*
X136436077Y-93125742D01*
X136256297Y-93146292D01*
X136073730Y-93225857D01*
X135937853Y-93361038D01*
X135852935Y-93547276D01*
X135823244Y-93780017D01*
X135701263Y-93780017D01*
X135700512Y-93698440D01*
X135749524Y-93465157D01*
X135853980Y-93271185D01*
X136007921Y-93123649D01*
X136205388Y-93029675D01*
X136440420Y-92996387D01*
X136582688Y-93007320D01*
X136793239Y-93076996D01*
X136964891Y-93210535D01*
X137096779Y-93407397D01*
X137134282Y-93487759D01*
X137172769Y-93599434D01*
X137185253Y-93711577D01*
X137178319Y-93860807D01*
X137174977Y-93891395D01*
X137171276Y-93925266D01*
G37*
G36*
X155727136Y-98468557D02*
G01*
X155641085Y-98687083D01*
X155501195Y-98861473D01*
X155312209Y-98983670D01*
X155292486Y-98991865D01*
X155097480Y-99032400D01*
X154886268Y-99017235D01*
X154683584Y-98950890D01*
X154514160Y-98837882D01*
X154474977Y-98798930D01*
X154359644Y-98633969D01*
X154299405Y-98437031D01*
X154293532Y-98293508D01*
X154402378Y-98293508D01*
X154443750Y-98505914D01*
X154536321Y-98682879D01*
X154674072Y-98810251D01*
X154800495Y-98870688D01*
X155001106Y-98907569D01*
X155199348Y-98882224D01*
X155378454Y-98797686D01*
X155521653Y-98656987D01*
X155562055Y-98592959D01*
X155593037Y-98510638D01*
X155607745Y-98402392D01*
X155611472Y-98243883D01*
X155611058Y-98196492D01*
X155595626Y-98013771D01*
X155550215Y-97877551D01*
X155464329Y-97766181D01*
X155327473Y-97658006D01*
X155310276Y-97646466D01*
X155220969Y-97600165D01*
X155123150Y-97582162D01*
X154984387Y-97585614D01*
X154900412Y-97595191D01*
X154697869Y-97659418D01*
X154546820Y-97777808D01*
X154448250Y-97949363D01*
X154403144Y-98173090D01*
X154402378Y-98293508D01*
X154293532Y-98293508D01*
X154289478Y-98194421D01*
X154292494Y-98142861D01*
X154310402Y-97992383D01*
X154345352Y-97878357D01*
X154405533Y-97770905D01*
X154422553Y-97746243D01*
X154578104Y-97590397D01*
X154775340Y-97496404D01*
X155012945Y-97464925D01*
X155072383Y-97466681D01*
X155304553Y-97512988D01*
X155494154Y-97618116D01*
X155635901Y-97776602D01*
X155724510Y-97982981D01*
X155754694Y-98231788D01*
X155753286Y-98243883D01*
X155727136Y-98468557D01*
G37*
G36*
X150507087Y-93950148D02*
G01*
X150469306Y-94116913D01*
X150438255Y-94180539D01*
X150336510Y-94319734D01*
X150206406Y-94446184D01*
X150075095Y-94531346D01*
X150009073Y-94555074D01*
X149819232Y-94581710D01*
X149615402Y-94564638D01*
X149429799Y-94505165D01*
X149276108Y-94400905D01*
X149143913Y-94237832D01*
X149059799Y-94041791D01*
X149025857Y-93827402D01*
X149037693Y-93686495D01*
X149160597Y-93686495D01*
X149164945Y-93836195D01*
X149177183Y-93965001D01*
X149219716Y-94128172D01*
X149300371Y-94256559D01*
X149430568Y-94373251D01*
X149465479Y-94393872D01*
X149585836Y-94434289D01*
X149733429Y-94459551D01*
X149876071Y-94465334D01*
X149981576Y-94447310D01*
X150119134Y-94369774D01*
X150266234Y-94217974D01*
X150360085Y-94023792D01*
X150393063Y-93799234D01*
X150377054Y-93619321D01*
X150306127Y-93424609D01*
X150173261Y-93258920D01*
X150166908Y-93253000D01*
X150079489Y-93187116D01*
X149979913Y-93151072D01*
X149836994Y-93133211D01*
X149709297Y-93130923D01*
X149517637Y-93167033D01*
X149366906Y-93259107D01*
X149246682Y-93412068D01*
X149204841Y-93489106D01*
X149171961Y-93580837D01*
X149160597Y-93686495D01*
X149037693Y-93686495D01*
X149044179Y-93609284D01*
X149116856Y-93402055D01*
X149245980Y-93220335D01*
X149322460Y-93149936D01*
X149517151Y-93033753D01*
X149724745Y-92983189D01*
X149932873Y-92996381D01*
X150129169Y-93071462D01*
X150301263Y-93206570D01*
X150436787Y-93399839D01*
X150488909Y-93557131D01*
X150513112Y-93752313D01*
X150511683Y-93799234D01*
X150507087Y-93950148D01*
G37*
G36*
X136462040Y-98468557D02*
G01*
X136375989Y-98687083D01*
X136236100Y-98861473D01*
X136047113Y-98983670D01*
X136027391Y-98991865D01*
X135832384Y-99032400D01*
X135621172Y-99017235D01*
X135418488Y-98950890D01*
X135249064Y-98837882D01*
X135209881Y-98798930D01*
X135094549Y-98633969D01*
X135034310Y-98437031D01*
X135028437Y-98293508D01*
X135137283Y-98293508D01*
X135178655Y-98505914D01*
X135271225Y-98682879D01*
X135408977Y-98810251D01*
X135535399Y-98870688D01*
X135736010Y-98907569D01*
X135934253Y-98882224D01*
X136113358Y-98797686D01*
X136256558Y-98656987D01*
X136296959Y-98592959D01*
X136327941Y-98510638D01*
X136342650Y-98402392D01*
X136346377Y-98243883D01*
X136345962Y-98196492D01*
X136330530Y-98013771D01*
X136285119Y-97877551D01*
X136199234Y-97766181D01*
X136062378Y-97658006D01*
X136045181Y-97646466D01*
X135955873Y-97600165D01*
X135858054Y-97582162D01*
X135719291Y-97585614D01*
X135635316Y-97595191D01*
X135432773Y-97659418D01*
X135281724Y-97777808D01*
X135183154Y-97949363D01*
X135138048Y-98173090D01*
X135137283Y-98293508D01*
X135028437Y-98293508D01*
X135024383Y-98194421D01*
X135027399Y-98142861D01*
X135045307Y-97992383D01*
X135080257Y-97878357D01*
X135140437Y-97770905D01*
X135157458Y-97746243D01*
X135313009Y-97590397D01*
X135510244Y-97496404D01*
X135747849Y-97464925D01*
X135807288Y-97466681D01*
X136039457Y-97512988D01*
X136229058Y-97618116D01*
X136370805Y-97776602D01*
X136459414Y-97982981D01*
X136489598Y-98231788D01*
X136488190Y-98243883D01*
X136462040Y-98468557D01*
G37*
G36*
X159950795Y-93350050D02*
G01*
X159950787Y-93368914D01*
X159948869Y-93544513D01*
X159940837Y-93668404D01*
X159922743Y-93761784D01*
X159890639Y-93845850D01*
X159840576Y-93941801D01*
X159725492Y-94114053D01*
X159519298Y-94317728D01*
X159273837Y-94464179D01*
X158999868Y-94545677D01*
X158912158Y-94556800D01*
X158622318Y-94547810D01*
X158350345Y-94470611D01*
X158105590Y-94330133D01*
X157897404Y-94131305D01*
X157735139Y-93879055D01*
X157735029Y-93878831D01*
X157681358Y-93758166D01*
X157650132Y-93648929D01*
X157635806Y-93522448D01*
X157632837Y-93350050D01*
X157632854Y-93346597D01*
X157633634Y-93335068D01*
X157745836Y-93335068D01*
X157775205Y-93611271D01*
X157864981Y-93864241D01*
X158009477Y-94083625D01*
X158203006Y-94259068D01*
X158439880Y-94380218D01*
X158589881Y-94414187D01*
X158775609Y-94429692D01*
X158960556Y-94425286D01*
X159109358Y-94399929D01*
X159306004Y-94313926D01*
X159516990Y-94156730D01*
X159687422Y-93955201D01*
X159800698Y-93725531D01*
X159843718Y-93542084D01*
X159851715Y-93269815D01*
X159800795Y-93001085D01*
X159695032Y-92754200D01*
X159538499Y-92547465D01*
X159433621Y-92453067D01*
X159257057Y-92344284D01*
X159055498Y-92284651D01*
X158807845Y-92266041D01*
X158690387Y-92270357D01*
X158423066Y-92323451D01*
X158197161Y-92437890D01*
X158010125Y-92614789D01*
X157914058Y-92740187D01*
X157840421Y-92862455D01*
X157794407Y-92987891D01*
X157762104Y-93146309D01*
X157745836Y-93335068D01*
X157633634Y-93335068D01*
X157650174Y-93090604D01*
X157705329Y-92879428D01*
X157807753Y-92688917D01*
X157966883Y-92494917D01*
X158075121Y-92390332D01*
X158288371Y-92246499D01*
X158528396Y-92164577D01*
X158809852Y-92138367D01*
X158934799Y-92143655D01*
X159219592Y-92203283D01*
X159468461Y-92328324D01*
X159679589Y-92517673D01*
X159851155Y-92770227D01*
X159892078Y-92852392D01*
X159923201Y-92938439D01*
X159940947Y-93036009D01*
X159948937Y-93166185D01*
X159949984Y-93269815D01*
X159950795Y-93350050D01*
G37*
G36*
X156391321Y-98408696D02*
G01*
X156320054Y-98708129D01*
X156183188Y-98987155D01*
X155982579Y-99234959D01*
X155861128Y-99341850D01*
X155613727Y-99500793D01*
X155354006Y-99601255D01*
X155350637Y-99602089D01*
X155252126Y-99615289D01*
X155110051Y-99622000D01*
X154953969Y-99620781D01*
X154660381Y-99578549D01*
X154384623Y-99474530D01*
X154144080Y-99318009D01*
X153943414Y-99117853D01*
X153787285Y-98882931D01*
X153680356Y-98622113D01*
X153627287Y-98344267D01*
X153631702Y-98112693D01*
X153761783Y-98112693D01*
X153765727Y-98281889D01*
X153781502Y-98456537D01*
X153857212Y-98752049D01*
X153992919Y-99002921D01*
X154188553Y-99209040D01*
X154444044Y-99370295D01*
X154530490Y-99408749D01*
X154819246Y-99489451D01*
X155107746Y-99503222D01*
X155385938Y-99453897D01*
X155643771Y-99345313D01*
X155871191Y-99181304D01*
X156058147Y-98965706D01*
X156194585Y-98702356D01*
X156217606Y-98632359D01*
X156259763Y-98392197D01*
X156260812Y-98133246D01*
X156222097Y-97883428D01*
X156144960Y-97670669D01*
X156121563Y-97628206D01*
X155967244Y-97417698D01*
X155769841Y-97229166D01*
X155555361Y-97088299D01*
X155511429Y-97068004D01*
X155294475Y-97005642D01*
X155047167Y-96981581D01*
X154797514Y-96996844D01*
X154573527Y-97052452D01*
X154430395Y-97118827D01*
X154197135Y-97282310D01*
X153999038Y-97491648D01*
X153855506Y-97728570D01*
X153837529Y-97769261D01*
X153793095Y-97884659D01*
X153769376Y-97989710D01*
X153761783Y-98112693D01*
X153631702Y-98112693D01*
X153632740Y-98058262D01*
X153701376Y-97772966D01*
X153837857Y-97497249D01*
X153952275Y-97343052D01*
X154178179Y-97131059D01*
X154439980Y-96975910D01*
X154726759Y-96880723D01*
X155027591Y-96848619D01*
X155331556Y-96882714D01*
X155627732Y-96986129D01*
X155656603Y-97000918D01*
X155828001Y-97117307D01*
X156001250Y-97274777D01*
X156152934Y-97449874D01*
X156259640Y-97619142D01*
X156329644Y-97791871D01*
X156395136Y-98099672D01*
X156394722Y-98133246D01*
X156391321Y-98408696D01*
G37*
G36*
X137137590Y-98278128D02*
G01*
X137095403Y-98585678D01*
X136982308Y-98885180D01*
X136963051Y-98921098D01*
X136800668Y-99145492D01*
X136587332Y-99344485D01*
X136343320Y-99501824D01*
X136088910Y-99601255D01*
X136085541Y-99602089D01*
X135987030Y-99615289D01*
X135844956Y-99622000D01*
X135688873Y-99620781D01*
X135625806Y-99617019D01*
X135325545Y-99558104D01*
X135053896Y-99438608D01*
X134817461Y-99267144D01*
X134622839Y-99052326D01*
X134476631Y-98802765D01*
X134385437Y-98527076D01*
X134355858Y-98233870D01*
X134371355Y-98112693D01*
X134496687Y-98112693D01*
X134500631Y-98281889D01*
X134516406Y-98456537D01*
X134592116Y-98752049D01*
X134727823Y-99002921D01*
X134923458Y-99209040D01*
X135178948Y-99370295D01*
X135265394Y-99408749D01*
X135554150Y-99489451D01*
X135842650Y-99503222D01*
X136120843Y-99453897D01*
X136378675Y-99345313D01*
X136606095Y-99181304D01*
X136793051Y-98965706D01*
X136929489Y-98702356D01*
X136952510Y-98632359D01*
X136994667Y-98392197D01*
X136995717Y-98133246D01*
X136957001Y-97883428D01*
X136879864Y-97670669D01*
X136856467Y-97628206D01*
X136702148Y-97417698D01*
X136504745Y-97229166D01*
X136290265Y-97088299D01*
X136246333Y-97068004D01*
X136029379Y-97005642D01*
X135782071Y-96981581D01*
X135532418Y-96996844D01*
X135308431Y-97052452D01*
X135165299Y-97118827D01*
X134932039Y-97282310D01*
X134733942Y-97491648D01*
X134590411Y-97728570D01*
X134572434Y-97769261D01*
X134528000Y-97884659D01*
X134504280Y-97989710D01*
X134496687Y-98112693D01*
X134371355Y-98112693D01*
X134394493Y-97931760D01*
X134407132Y-97883659D01*
X134528272Y-97578818D01*
X134706325Y-97320480D01*
X134936675Y-97112952D01*
X135214703Y-96960537D01*
X135535793Y-96867542D01*
X135591286Y-96858643D01*
X135898764Y-96852012D01*
X136193922Y-96917617D01*
X136470517Y-97053406D01*
X136722307Y-97257330D01*
X136855062Y-97409656D01*
X137015783Y-97679871D01*
X137110504Y-97972777D01*
X137124738Y-98133246D01*
X137137590Y-98278128D01*
G37*
G36*
X157799838Y-97577149D02*
G01*
X157687614Y-97577149D01*
X157575390Y-97577149D01*
X157575390Y-98568460D01*
X157575390Y-99559770D01*
X157182606Y-99559770D01*
X156789823Y-99559770D01*
X156789823Y-98570414D01*
X156789823Y-97581059D01*
X156593431Y-97569752D01*
X156397039Y-97558445D01*
X156397039Y-97240477D01*
X156397039Y-96922510D01*
X156595398Y-96911134D01*
X156793757Y-96899759D01*
X156782438Y-96724095D01*
X156771119Y-96548430D01*
X156574727Y-96556580D01*
X156378336Y-96564730D01*
X156378336Y-96417502D01*
X156490559Y-96417502D01*
X156654315Y-96417502D01*
X156696224Y-96418973D01*
X156797769Y-96435427D01*
X156856611Y-96464262D01*
X156877176Y-96519905D01*
X156895991Y-96628147D01*
X156907951Y-96763604D01*
X156920751Y-97016186D01*
X156724359Y-97016108D01*
X156527967Y-97016030D01*
X156527967Y-97240477D01*
X156527967Y-97464925D01*
X156733711Y-97464925D01*
X156939455Y-97464925D01*
X156939455Y-98456236D01*
X156939455Y-99447546D01*
X157182606Y-99447546D01*
X157425758Y-99447546D01*
X157425758Y-98456236D01*
X157425758Y-97464925D01*
X157537982Y-97464925D01*
X157650206Y-97464925D01*
X157650206Y-97240477D01*
X157650206Y-97016030D01*
X157537982Y-97016030D01*
X157425758Y-97016030D01*
X157425758Y-96677500D01*
X157420886Y-96514214D01*
X157390657Y-96310577D01*
X157327320Y-96165655D01*
X157224594Y-96071782D01*
X157076198Y-96021293D01*
X156875849Y-96006526D01*
X156842381Y-96006658D01*
X156680212Y-96011445D01*
X156577262Y-96028763D01*
X156520215Y-96066505D01*
X156495754Y-96132562D01*
X156490559Y-96234825D01*
X156490559Y-96417502D01*
X156378336Y-96417502D01*
X156378336Y-96269569D01*
X156378336Y-95974409D01*
X156499911Y-95935974D01*
X156761689Y-95877076D01*
X157007678Y-95876137D01*
X157217836Y-95938306D01*
X157389373Y-96063182D01*
X157439413Y-96118265D01*
X157481475Y-96182186D01*
X157509727Y-96261861D01*
X157530721Y-96376901D01*
X157551011Y-96546917D01*
X157589704Y-96903806D01*
X157694771Y-96903806D01*
X157799838Y-96903806D01*
X157799838Y-97240477D01*
X157799838Y-97464925D01*
X157799838Y-97577149D01*
G37*
G36*
X141677010Y-99559770D02*
G01*
X141302930Y-99559770D01*
X140928851Y-99559770D01*
X140928567Y-98951891D01*
X140928321Y-98869845D01*
X140920964Y-98494698D01*
X140903650Y-98180188D01*
X140876725Y-97929736D01*
X140840533Y-97746764D01*
X140795422Y-97634694D01*
X140725589Y-97567681D01*
X140610620Y-97539794D01*
X140480859Y-97576665D01*
X140457673Y-97586079D01*
X140425811Y-97579288D01*
X140393229Y-97535863D01*
X140352428Y-97444310D01*
X140295910Y-97293130D01*
X140270829Y-97221581D01*
X140228455Y-97087060D01*
X140212895Y-97024805D01*
X140336212Y-97024805D01*
X140350895Y-97104790D01*
X140402702Y-97240477D01*
X140424890Y-97293372D01*
X140468558Y-97370341D01*
X140521652Y-97403774D01*
X140606823Y-97412790D01*
X140611097Y-97412947D01*
X140728487Y-97437022D01*
X140822258Y-97487606D01*
X140862079Y-97525812D01*
X140913031Y-97590099D01*
X140952082Y-97669004D01*
X140981080Y-97772559D01*
X141001874Y-97910796D01*
X141016313Y-98093747D01*
X141026246Y-98331446D01*
X141033521Y-98633923D01*
X141049311Y-99447546D01*
X141307567Y-99447546D01*
X141565823Y-99447546D01*
X141555952Y-98241140D01*
X141546082Y-97034733D01*
X141330986Y-97023515D01*
X141115891Y-97012296D01*
X141115891Y-97163795D01*
X141115057Y-97195451D01*
X141101002Y-97281684D01*
X141074213Y-97315293D01*
X141045930Y-97302227D01*
X140977887Y-97245834D01*
X140894738Y-97160014D01*
X140839196Y-97099840D01*
X140760858Y-97035344D01*
X140673264Y-97003129D01*
X140543632Y-96987046D01*
X140446787Y-96980568D01*
X140365795Y-96987679D01*
X140336212Y-97024805D01*
X140212895Y-97024805D01*
X140203463Y-96987071D01*
X140200606Y-96939255D01*
X140208496Y-96931159D01*
X140271612Y-96898543D01*
X140369891Y-96865816D01*
X140492235Y-96846847D01*
X140692748Y-96875531D01*
X140890369Y-96977857D01*
X141003667Y-97058532D01*
X141003667Y-96981169D01*
X141007155Y-96948756D01*
X141028250Y-96924166D01*
X141081287Y-96910666D01*
X141180554Y-96904973D01*
X141340338Y-96903806D01*
X141677010Y-96903806D01*
X141677010Y-98231788D01*
X141677010Y-99447546D01*
X141677010Y-99559770D01*
G37*
G36*
X139245493Y-95108224D02*
G01*
X138871414Y-95108224D01*
X138497334Y-95108224D01*
X138497125Y-94313305D01*
X138495815Y-94054552D01*
X138490034Y-93787949D01*
X138478609Y-93579819D01*
X138460426Y-93421094D01*
X138434370Y-93302705D01*
X138399326Y-93215584D01*
X138354178Y-93150662D01*
X138291331Y-93107234D01*
X138195152Y-93099261D01*
X138051427Y-93129371D01*
X138041578Y-93129793D01*
X138000144Y-93093300D01*
X137946758Y-92993766D01*
X137878653Y-92826339D01*
X137852462Y-92755280D01*
X137807224Y-92623812D01*
X137794944Y-92582589D01*
X137941681Y-92582589D01*
X137954676Y-92664200D01*
X138000523Y-92801041D01*
X138021308Y-92857039D01*
X138059756Y-92936098D01*
X138100478Y-92966289D01*
X138159020Y-92963553D01*
X138168920Y-92961891D01*
X138300857Y-92977161D01*
X138426747Y-93051697D01*
X138524757Y-93172996D01*
X138544086Y-93215024D01*
X138561719Y-93276599D01*
X138575117Y-93361923D01*
X138585097Y-93481208D01*
X138592481Y-93644669D01*
X138598087Y-93862518D01*
X138602735Y-94144969D01*
X138614615Y-94996000D01*
X138873942Y-94996000D01*
X139133269Y-94996000D01*
X139133269Y-93780242D01*
X139133269Y-92564483D01*
X138929784Y-92564483D01*
X138726298Y-92564483D01*
X138714688Y-92704452D01*
X138696330Y-92793040D01*
X138652456Y-92851572D01*
X138596963Y-92846024D01*
X138542174Y-92771599D01*
X138519801Y-92731903D01*
X138412179Y-92626900D01*
X138262768Y-92554364D01*
X138095199Y-92527215D01*
X138033839Y-92528391D01*
X137966436Y-92542042D01*
X137941681Y-92582589D01*
X137794944Y-92582589D01*
X137778690Y-92528029D01*
X137772157Y-92484916D01*
X137782307Y-92476736D01*
X137846804Y-92450100D01*
X137947551Y-92420609D01*
X138085343Y-92401249D01*
X138288801Y-92430059D01*
X138470094Y-92527044D01*
X138477014Y-92532485D01*
X138538707Y-92577067D01*
X138566443Y-92575104D01*
X138583144Y-92526481D01*
X138590230Y-92505649D01*
X138615566Y-92477246D01*
X138669345Y-92461122D01*
X138767016Y-92453914D01*
X138924023Y-92452259D01*
X139245493Y-92452259D01*
X139245493Y-93780242D01*
X139245493Y-94996000D01*
X139245493Y-95108224D01*
G37*
G36*
X153273475Y-99559770D02*
G01*
X152899396Y-99559770D01*
X152525316Y-99559770D01*
X152524161Y-98914483D01*
X152523999Y-98862942D01*
X152517308Y-98478125D01*
X152500910Y-98165017D01*
X152474572Y-97921380D01*
X152438063Y-97744977D01*
X152391151Y-97633569D01*
X152321531Y-97567233D01*
X152206709Y-97539878D01*
X152077324Y-97576665D01*
X152054138Y-97586079D01*
X152022276Y-97579288D01*
X151989694Y-97535863D01*
X151948894Y-97444310D01*
X151892375Y-97293130D01*
X151867294Y-97221581D01*
X151824920Y-97087060D01*
X151803672Y-97002045D01*
X151926820Y-97002045D01*
X151932124Y-97028339D01*
X151957893Y-97110815D01*
X151997855Y-97221773D01*
X152031420Y-97305725D01*
X152072150Y-97375316D01*
X152123149Y-97404945D01*
X152204036Y-97412790D01*
X152208997Y-97412980D01*
X152325488Y-97437216D01*
X152418723Y-97487606D01*
X152458544Y-97525812D01*
X152509497Y-97590099D01*
X152548547Y-97669004D01*
X152577545Y-97772559D01*
X152598339Y-97910796D01*
X152612778Y-98093747D01*
X152622711Y-98331446D01*
X152629987Y-98633923D01*
X152645776Y-99447546D01*
X152904032Y-99447546D01*
X153162288Y-99447546D01*
X153152418Y-98241140D01*
X153142548Y-97034733D01*
X152927452Y-97023515D01*
X152712356Y-97012296D01*
X152712356Y-97163795D01*
X152711522Y-97195451D01*
X152697468Y-97281684D01*
X152670679Y-97315293D01*
X152642396Y-97302227D01*
X152574353Y-97245834D01*
X152491204Y-97160014D01*
X152435661Y-97099840D01*
X152357324Y-97035344D01*
X152269729Y-97003129D01*
X152140097Y-96987046D01*
X152047727Y-96982630D01*
X151960497Y-96987262D01*
X151926820Y-97002045D01*
X151803672Y-97002045D01*
X151799929Y-96987071D01*
X151797072Y-96939255D01*
X151804961Y-96931159D01*
X151868078Y-96898543D01*
X151966357Y-96865816D01*
X152088701Y-96846847D01*
X152289213Y-96875531D01*
X152486835Y-96977857D01*
X152600132Y-97058532D01*
X152600132Y-96981169D01*
X152603620Y-96948756D01*
X152624715Y-96924166D01*
X152677752Y-96910666D01*
X152777019Y-96904973D01*
X152936804Y-96903806D01*
X153273475Y-96903806D01*
X153273475Y-98231788D01*
X153273475Y-99447546D01*
X153273475Y-99559770D01*
G37*
G36*
X145397899Y-93798946D02*
G01*
X145394759Y-93960983D01*
X145382082Y-94109183D01*
X145356102Y-94226924D01*
X145313016Y-94338381D01*
X145220176Y-94512092D01*
X145018604Y-94768257D01*
X144766844Y-94971509D01*
X144471390Y-95115847D01*
X144459561Y-95120021D01*
X144319883Y-95157667D01*
X144167343Y-95173218D01*
X143971781Y-95169939D01*
X143780762Y-95149438D01*
X143474594Y-95063008D01*
X143207765Y-94913037D01*
X142981511Y-94700309D01*
X142797070Y-94425607D01*
X142797060Y-94425588D01*
X142731707Y-94292818D01*
X142691577Y-94175848D01*
X142669051Y-94044487D01*
X142656958Y-93874828D01*
X142777194Y-93874828D01*
X142811287Y-94119460D01*
X142880839Y-94330899D01*
X142936486Y-94435528D01*
X143102646Y-94656712D01*
X143307492Y-94836125D01*
X143533864Y-94957310D01*
X143558571Y-94966308D01*
X143857692Y-95038768D01*
X144156173Y-95048044D01*
X144439468Y-94995096D01*
X144693030Y-94880884D01*
X144698806Y-94877272D01*
X144853889Y-94753512D01*
X145006143Y-94588491D01*
X145134608Y-94407886D01*
X145218323Y-94237376D01*
X145281291Y-93960945D01*
X145282778Y-93664279D01*
X145220223Y-93377177D01*
X145096723Y-93113447D01*
X144915376Y-92886898D01*
X144837260Y-92814188D01*
X144664839Y-92683648D01*
X144488443Y-92601266D01*
X144285569Y-92558346D01*
X144033711Y-92546192D01*
X143929460Y-92546942D01*
X143783274Y-92553411D01*
X143673226Y-92570533D01*
X143574361Y-92603092D01*
X143461726Y-92655875D01*
X143437346Y-92668547D01*
X143204339Y-92828937D01*
X143005705Y-93035825D01*
X142861568Y-93268663D01*
X142817334Y-93393628D01*
X142779047Y-93623913D01*
X142777194Y-93874828D01*
X142656958Y-93874828D01*
X142656510Y-93868540D01*
X142652923Y-93680830D01*
X142667024Y-93506469D01*
X142703108Y-93357941D01*
X142755410Y-93224239D01*
X142911997Y-92961242D01*
X143118062Y-92742681D01*
X143363322Y-92573453D01*
X143637494Y-92458452D01*
X143930296Y-92402576D01*
X144231446Y-92410719D01*
X144530660Y-92487778D01*
X144734539Y-92592053D01*
X144957681Y-92765179D01*
X145149748Y-92977059D01*
X145290583Y-93208572D01*
X145317439Y-93268257D01*
X145360351Y-93380945D01*
X145384877Y-93489418D01*
X145395799Y-93619982D01*
X145396319Y-93664279D01*
X145397899Y-93798946D01*
G37*
G36*
X160614719Y-93671722D02*
G01*
X160523795Y-93998652D01*
X160368604Y-94312915D01*
X160146728Y-94606509D01*
X160022184Y-94732219D01*
X159740675Y-94945984D01*
X159426452Y-95094287D01*
X159071708Y-95181303D01*
X158870358Y-95200968D01*
X158513335Y-95180941D01*
X158172933Y-95092871D01*
X157857159Y-94941046D01*
X157574025Y-94729754D01*
X157331538Y-94463283D01*
X157137710Y-94145920D01*
X156995567Y-93855057D01*
X156995928Y-93368754D01*
X156995953Y-93350050D01*
X157089087Y-93350050D01*
X157097675Y-93528798D01*
X157166761Y-93876838D01*
X157301258Y-94196427D01*
X157496591Y-94480147D01*
X157748184Y-94720582D01*
X158051462Y-94910313D01*
X158068494Y-94918710D01*
X158195059Y-94977941D01*
X158300190Y-95016296D01*
X158407948Y-95039070D01*
X158542396Y-95051554D01*
X158727597Y-95059041D01*
X158910724Y-95062047D01*
X159077394Y-95055618D01*
X159211923Y-95036357D01*
X159337135Y-95002132D01*
X159423253Y-94970914D01*
X159725630Y-94813737D01*
X159987982Y-94601617D01*
X160204524Y-94344263D01*
X160369467Y-94051381D01*
X160477027Y-93732678D01*
X160521417Y-93397861D01*
X160496850Y-93056637D01*
X160470594Y-92933348D01*
X160355878Y-92606883D01*
X160188747Y-92321307D01*
X159977276Y-92079455D01*
X159729536Y-91884163D01*
X159453600Y-91738268D01*
X159157540Y-91644607D01*
X158849429Y-91606016D01*
X158537339Y-91625332D01*
X158229342Y-91705391D01*
X157933511Y-91849030D01*
X157657918Y-92059085D01*
X157639362Y-92076531D01*
X157397913Y-92352795D01*
X157226030Y-92656427D01*
X157123244Y-92988490D01*
X157089087Y-93350050D01*
X156995953Y-93350050D01*
X156995963Y-93343040D01*
X156998263Y-93137265D01*
X157005752Y-92985592D01*
X157020738Y-92869333D01*
X157045528Y-92769798D01*
X157082430Y-92668299D01*
X157172080Y-92480256D01*
X157363835Y-92195342D01*
X157602471Y-91942929D01*
X157873863Y-91737076D01*
X158163885Y-91591845D01*
X158377103Y-91531347D01*
X158664663Y-91492263D01*
X158955504Y-91491718D01*
X159217117Y-91531572D01*
X159318824Y-91560504D01*
X159654942Y-91700701D01*
X159946145Y-91892246D01*
X160190017Y-92127137D01*
X160384137Y-92397373D01*
X160526086Y-92694951D01*
X160613446Y-93011870D01*
X160643796Y-93340128D01*
X160638733Y-93397861D01*
X160614719Y-93671722D01*
G37*
G36*
X137819502Y-93949842D02*
G01*
X137772898Y-94217407D01*
X137713098Y-94378238D01*
X137570115Y-94624267D01*
X137381841Y-94841291D01*
X137162472Y-95014055D01*
X136926200Y-95127306D01*
X136922681Y-95128445D01*
X136706897Y-95169886D01*
X136469438Y-95170419D01*
X136239754Y-95132364D01*
X136047293Y-95058044D01*
X135985926Y-95023762D01*
X135899994Y-94978311D01*
X135857341Y-94965974D01*
X135842842Y-94984943D01*
X135841369Y-95033408D01*
X135841339Y-95037415D01*
X135834894Y-95070128D01*
X135807808Y-95090858D01*
X135746540Y-95102311D01*
X135637548Y-95107197D01*
X135467290Y-95108224D01*
X135093210Y-95108224D01*
X135093210Y-94996000D01*
X135205434Y-94996000D01*
X135467290Y-94996000D01*
X135729146Y-94996000D01*
X135729146Y-94846368D01*
X135729706Y-94812927D01*
X135737404Y-94729954D01*
X135751255Y-94696736D01*
X135772436Y-94707422D01*
X135837987Y-94755265D01*
X135927309Y-94828507D01*
X135978455Y-94868026D01*
X136123805Y-94955395D01*
X136267364Y-95015547D01*
X136391808Y-95045291D01*
X136661254Y-95058005D01*
X136918369Y-94997533D01*
X137160757Y-94864637D01*
X137386022Y-94660078D01*
X137492037Y-94527078D01*
X137607166Y-94313189D01*
X137671777Y-94070081D01*
X137691961Y-93780242D01*
X137682531Y-93574011D01*
X137632925Y-93320409D01*
X137535065Y-93100670D01*
X137382569Y-92896566D01*
X137191465Y-92723233D01*
X136951568Y-92590441D01*
X136695666Y-92526276D01*
X136432734Y-92531614D01*
X136171743Y-92607328D01*
X135921668Y-92754291D01*
X135733240Y-92896907D01*
X135721841Y-92740047D01*
X135710442Y-92583187D01*
X135457938Y-92572126D01*
X135205434Y-92561065D01*
X135205434Y-93778532D01*
X135205434Y-94996000D01*
X135093210Y-94996000D01*
X135093210Y-93780242D01*
X135093210Y-92452259D01*
X135467290Y-92452259D01*
X135549263Y-92452318D01*
X135690843Y-92454038D01*
X135777185Y-92460657D01*
X135821949Y-92475492D01*
X135838791Y-92501857D01*
X135841369Y-92543069D01*
X135841369Y-92633879D01*
X136065801Y-92518131D01*
X136286050Y-92432971D01*
X136555185Y-92395837D01*
X136823669Y-92423883D01*
X137080879Y-92513212D01*
X137316192Y-92659926D01*
X137518986Y-92860126D01*
X137678636Y-93109916D01*
X137681326Y-93115423D01*
X137771255Y-93369933D01*
X137818134Y-93657712D01*
X137818708Y-93780242D01*
X137819502Y-93949842D01*
G37*
G36*
X151131680Y-94096592D02*
G01*
X151069758Y-94331884D01*
X151003354Y-94472682D01*
X150845813Y-94699887D01*
X150646244Y-94898779D01*
X150421222Y-95053988D01*
X150187319Y-95150147D01*
X150186427Y-95150382D01*
X149997429Y-95174593D01*
X149777599Y-95164548D01*
X149560299Y-95124089D01*
X149378889Y-95057056D01*
X149302369Y-95017424D01*
X149217004Y-94976154D01*
X149174573Y-94966133D01*
X149160097Y-94985754D01*
X149158601Y-95033408D01*
X149158570Y-95037415D01*
X149152125Y-95070128D01*
X149125039Y-95090858D01*
X149063771Y-95102311D01*
X148954779Y-95107197D01*
X148784521Y-95108224D01*
X148410442Y-95108224D01*
X148410442Y-94996000D01*
X148521629Y-94996000D01*
X148784003Y-94996000D01*
X149046377Y-94996000D01*
X149046377Y-94823789D01*
X149046377Y-94651578D01*
X149178345Y-94767448D01*
X149204634Y-94789644D01*
X149331358Y-94882628D01*
X149456136Y-94957710D01*
X149535831Y-94993768D01*
X149780451Y-95054052D01*
X150029568Y-95048703D01*
X150272679Y-94982846D01*
X150499285Y-94861601D01*
X150698886Y-94690091D01*
X150860981Y-94473439D01*
X150975070Y-94216766D01*
X151003131Y-94101124D01*
X151026500Y-93866694D01*
X151018499Y-93616184D01*
X150980791Y-93378292D01*
X150915042Y-93181714D01*
X150913547Y-93178591D01*
X150797017Y-92991185D01*
X150641534Y-92817249D01*
X150467319Y-92676159D01*
X150294597Y-92587289D01*
X150198925Y-92559117D01*
X149922026Y-92524889D01*
X149652714Y-92558229D01*
X149403440Y-92656552D01*
X149186657Y-92817273D01*
X149046377Y-92953746D01*
X149046377Y-92757406D01*
X149046377Y-92561065D01*
X148793873Y-92572126D01*
X148541369Y-92583187D01*
X148531499Y-93789594D01*
X148521629Y-94996000D01*
X148410442Y-94996000D01*
X148410442Y-93780242D01*
X148410442Y-92452259D01*
X148784521Y-92452259D01*
X149158601Y-92452259D01*
X149158601Y-92548896D01*
X149166053Y-92610529D01*
X149186657Y-92631271D01*
X149307398Y-92570495D01*
X149468793Y-92493739D01*
X149593674Y-92444044D01*
X149700257Y-92415778D01*
X149806759Y-92403309D01*
X149931397Y-92401004D01*
X149944802Y-92401118D01*
X150119122Y-92411248D01*
X150260210Y-92442779D01*
X150406107Y-92503963D01*
X150579248Y-92611220D01*
X150780838Y-92791978D01*
X150951004Y-93005444D01*
X151068698Y-93228599D01*
X151092425Y-93298348D01*
X151142985Y-93550235D01*
X151156080Y-93826180D01*
X151152424Y-93866694D01*
X151131680Y-94096592D01*
G37*
G36*
X147443348Y-97111161D02*
G01*
X147376690Y-97272247D01*
X147290858Y-97477885D01*
X147189173Y-97720116D01*
X147074957Y-97990981D01*
X146951531Y-98282522D01*
X146409116Y-99561277D01*
X146150268Y-99551172D01*
X145891420Y-99541066D01*
X145338751Y-98250492D01*
X145325563Y-98219690D01*
X145201802Y-97929971D01*
X145088086Y-97662620D01*
X144987667Y-97425367D01*
X144903795Y-97225937D01*
X144839722Y-97072058D01*
X144831622Y-97052194D01*
X144978957Y-97052194D01*
X144989270Y-97096063D01*
X144998208Y-97120104D01*
X145034658Y-97210367D01*
X145094695Y-97355286D01*
X145174600Y-97545997D01*
X145270654Y-97773637D01*
X145379135Y-98029342D01*
X145496325Y-98304249D01*
X145976849Y-99428842D01*
X146147257Y-99440286D01*
X146205830Y-99443566D01*
X146286382Y-99437804D01*
X146332193Y-99403803D01*
X146370071Y-99328062D01*
X146377024Y-99311672D01*
X146414318Y-99223885D01*
X146475293Y-99080440D01*
X146555850Y-98890975D01*
X146651893Y-98665125D01*
X146759324Y-98412529D01*
X146874044Y-98142824D01*
X146923500Y-98026352D01*
X147031523Y-97770446D01*
X147127895Y-97540079D01*
X147209052Y-97343898D01*
X147271432Y-97190550D01*
X147311472Y-97088679D01*
X147325611Y-97046932D01*
X147325611Y-97046917D01*
X147291479Y-97031154D01*
X147202093Y-97022803D01*
X147076792Y-97023672D01*
X146827972Y-97034733D01*
X146504209Y-97791238D01*
X146462493Y-97888477D01*
X146370548Y-98101076D01*
X146289718Y-98285634D01*
X146224530Y-98431945D01*
X146179513Y-98529801D01*
X146159195Y-98568994D01*
X146151824Y-98562807D01*
X146118161Y-98503252D01*
X146062322Y-98389064D01*
X145988694Y-98229621D01*
X145901658Y-98034303D01*
X145805599Y-97812489D01*
X145473253Y-97034733D01*
X145217996Y-97023602D01*
X145152754Y-97020879D01*
X145045982Y-97019264D01*
X144992955Y-97028149D01*
X144978957Y-97052194D01*
X144831622Y-97052194D01*
X144798699Y-96971457D01*
X144783976Y-96931862D01*
X144802514Y-96923145D01*
X144881572Y-96913154D01*
X145008581Y-96906331D01*
X145168072Y-96903806D01*
X145554274Y-96903806D01*
X145847331Y-97597841D01*
X145940085Y-97813171D01*
X146028219Y-98007369D01*
X146097535Y-98147693D01*
X146145383Y-98228811D01*
X146169115Y-98245395D01*
X146191977Y-98198096D01*
X146238831Y-98093325D01*
X146304494Y-97942901D01*
X146383858Y-97758528D01*
X146471815Y-97551910D01*
X146745788Y-96904908D01*
X147131962Y-96904357D01*
X147180557Y-96904390D01*
X147343859Y-96907229D01*
X147445495Y-96915477D01*
X147496033Y-96930530D01*
X147506042Y-96953786D01*
X147505858Y-96954477D01*
X147487511Y-97002584D01*
X147469473Y-97046932D01*
X147443348Y-97111161D01*
G37*
G36*
X134681723Y-96043423D02*
G01*
X134307643Y-96043423D01*
X133933564Y-96043423D01*
X133933564Y-95497890D01*
X133933186Y-95408899D01*
X133929882Y-95230439D01*
X133923721Y-95088821D01*
X133915374Y-94996701D01*
X133905508Y-94966736D01*
X133857301Y-94991345D01*
X133695890Y-95070351D01*
X133572133Y-95120879D01*
X133463763Y-95149204D01*
X133348511Y-95161598D01*
X133204109Y-95164336D01*
X133078485Y-95162212D01*
X132939686Y-95148649D01*
X132821957Y-95116943D01*
X132693808Y-95060698D01*
X132661199Y-95043978D01*
X132427514Y-94880473D01*
X132225040Y-94661762D01*
X132069167Y-94404025D01*
X132027354Y-94308494D01*
X131996976Y-94213544D01*
X131979512Y-94108145D01*
X131971543Y-93970858D01*
X131970199Y-93835835D01*
X132072061Y-93835835D01*
X132099924Y-94104628D01*
X132170468Y-94338947D01*
X132171645Y-94341591D01*
X132277008Y-94519071D01*
X132426586Y-94697609D01*
X132597488Y-94853282D01*
X132766824Y-94962170D01*
X132860089Y-95001002D01*
X133012802Y-95036312D01*
X133204109Y-95046561D01*
X133295372Y-95044404D01*
X133511540Y-95013662D01*
X133693604Y-94939653D01*
X133866407Y-94813640D01*
X133909641Y-94776723D01*
X133983293Y-94719348D01*
X134022670Y-94696736D01*
X134028297Y-94715347D01*
X134035256Y-94796914D01*
X134040799Y-94932092D01*
X134044464Y-95108553D01*
X134045788Y-95313968D01*
X134045788Y-95931199D01*
X134307643Y-95931199D01*
X134569499Y-95931199D01*
X134569499Y-94246132D01*
X134569499Y-92561065D01*
X134316995Y-92572126D01*
X134064492Y-92583187D01*
X134052918Y-92743627D01*
X134041344Y-92904066D01*
X133921990Y-92803286D01*
X133778973Y-92699801D01*
X133529534Y-92583648D01*
X133266118Y-92529291D01*
X133003189Y-92539063D01*
X132755213Y-92615292D01*
X132622896Y-92694352D01*
X132456313Y-92832071D01*
X132307486Y-92992078D01*
X132202287Y-93149380D01*
X132141551Y-93300720D01*
X132086173Y-93559041D01*
X132072061Y-93835835D01*
X131970199Y-93835835D01*
X131969646Y-93780242D01*
X131971179Y-93604088D01*
X131978470Y-93462930D01*
X131994952Y-93355566D01*
X132024044Y-93260556D01*
X132069167Y-93156458D01*
X132072146Y-93150136D01*
X132238874Y-92876024D01*
X132450312Y-92660780D01*
X132703894Y-92506455D01*
X132997054Y-92415100D01*
X133016449Y-92411559D01*
X133249829Y-92394567D01*
X133475679Y-92432210D01*
X133718468Y-92528327D01*
X133933564Y-92633328D01*
X133933564Y-92542793D01*
X133933805Y-92523149D01*
X133940888Y-92488814D01*
X133968155Y-92467863D01*
X134029265Y-92456991D01*
X134137875Y-92452891D01*
X134307643Y-92452259D01*
X134681723Y-92452259D01*
X134681723Y-94247841D01*
X134681723Y-95931199D01*
X134681723Y-96043423D01*
G37*
G36*
X134083196Y-99559770D02*
G01*
X133712837Y-99559770D01*
X133342478Y-99559770D01*
X133328269Y-98764851D01*
X133327156Y-98703565D01*
X133321813Y-98450243D01*
X133315664Y-98258024D01*
X133307569Y-98115555D01*
X133296386Y-98011481D01*
X133280973Y-97934449D01*
X133260190Y-97873106D01*
X133232894Y-97816096D01*
X133218810Y-97790862D01*
X133106598Y-97655615D01*
X132971343Y-97576568D01*
X132827511Y-97556226D01*
X132689568Y-97597094D01*
X132571980Y-97701675D01*
X132550920Y-97732411D01*
X132530614Y-97774475D01*
X132515334Y-97831048D01*
X132504157Y-97912180D01*
X132496164Y-98027923D01*
X132490435Y-98188328D01*
X132486048Y-98403445D01*
X132482084Y-98683326D01*
X132470810Y-99559770D01*
X132098652Y-99559770D01*
X131726495Y-99559770D01*
X131726585Y-99447546D01*
X131834189Y-99447546D01*
X132098309Y-99447546D01*
X132362430Y-99447546D01*
X132362638Y-98671331D01*
X132362717Y-98625281D01*
X132365272Y-98384513D01*
X132370993Y-98163488D01*
X132379299Y-97975972D01*
X132389607Y-97835733D01*
X132401335Y-97756538D01*
X132451196Y-97640370D01*
X132561462Y-97519912D01*
X132706198Y-97450805D01*
X132871133Y-97436141D01*
X133041992Y-97479014D01*
X133204505Y-97582515D01*
X133281616Y-97661459D01*
X133341095Y-97753085D01*
X133384988Y-97867662D01*
X133415424Y-98015531D01*
X133434529Y-98207032D01*
X133444432Y-98452504D01*
X133447260Y-98762289D01*
X133447260Y-99447546D01*
X133709116Y-99447546D01*
X133970972Y-99447546D01*
X133970972Y-98231788D01*
X133970972Y-97016030D01*
X133709116Y-97016030D01*
X133447260Y-97016030D01*
X133447260Y-97184118D01*
X133447260Y-97352207D01*
X133274047Y-97219990D01*
X133189301Y-97158258D01*
X133005615Y-97052132D01*
X132826215Y-96995417D01*
X132625601Y-96978622D01*
X132579423Y-96979750D01*
X132340798Y-97026041D01*
X132135435Y-97137840D01*
X131969646Y-97311937D01*
X131857422Y-97471174D01*
X131845806Y-98459360D01*
X131834189Y-99447546D01*
X131726585Y-99447546D01*
X131727316Y-98540404D01*
X131727508Y-98397048D01*
X131729206Y-98092505D01*
X131734133Y-97849580D01*
X131744147Y-97658886D01*
X131761104Y-97511040D01*
X131786861Y-97396654D01*
X131823275Y-97306344D01*
X131872202Y-97230723D01*
X131935498Y-97160406D01*
X132015022Y-97086008D01*
X132121234Y-97003001D01*
X132349148Y-96892186D01*
X132596875Y-96849029D01*
X132854271Y-96874602D01*
X133111192Y-96969980D01*
X133335037Y-97085425D01*
X133335037Y-96994616D01*
X133335279Y-96974716D01*
X133342363Y-96940347D01*
X133369631Y-96919387D01*
X133430740Y-96908520D01*
X133539349Y-96904432D01*
X133709116Y-96903806D01*
X134083196Y-96903806D01*
X134083196Y-98231788D01*
X134083196Y-99447546D01*
X134083196Y-99559770D01*
G37*
G36*
X131651679Y-93293938D02*
G01*
X131651679Y-95108224D01*
X131277599Y-95108224D01*
X130903520Y-95108224D01*
X130902698Y-94332009D01*
X130902110Y-94127756D01*
X130899747Y-93908010D01*
X130894773Y-93743010D01*
X130886300Y-93621220D01*
X130873441Y-93531101D01*
X130855309Y-93461116D01*
X130831017Y-93399726D01*
X130830556Y-93398712D01*
X130726852Y-93239481D01*
X130588946Y-93145961D01*
X130412785Y-93115400D01*
X130367887Y-93116921D01*
X130275291Y-93135166D01*
X130201590Y-93179595D01*
X130144764Y-93257134D01*
X130102796Y-93374708D01*
X130073668Y-93539244D01*
X130055361Y-93757666D01*
X130045856Y-94036901D01*
X130043137Y-94383875D01*
X130043137Y-95108224D01*
X129666890Y-95108224D01*
X129290643Y-95108224D01*
X129291888Y-94996000D01*
X129401530Y-94996000D01*
X129663110Y-94996000D01*
X129924690Y-94996000D01*
X129937154Y-94163673D01*
X129938229Y-94094710D01*
X129944471Y-93805787D01*
X129954200Y-93580307D01*
X129969731Y-93408859D01*
X129993380Y-93282030D01*
X130027464Y-93190410D01*
X130074298Y-93124587D01*
X130136199Y-93075150D01*
X130215482Y-93032687D01*
X130352520Y-92985526D01*
X130496269Y-92987870D01*
X130657133Y-93049137D01*
X130745375Y-93098871D01*
X130832385Y-93166608D01*
X130898357Y-93250718D01*
X130946157Y-93360924D01*
X130978647Y-93506950D01*
X130998692Y-93698521D01*
X131009154Y-93945361D01*
X131012898Y-94257193D01*
X131015743Y-94996000D01*
X131277599Y-94996000D01*
X131539455Y-94996000D01*
X131539455Y-93292229D01*
X131539455Y-91588458D01*
X131286951Y-91599519D01*
X131034447Y-91610580D01*
X131015743Y-92237336D01*
X130997039Y-92864091D01*
X130814678Y-92734350D01*
X130710856Y-92665055D01*
X130532108Y-92576193D01*
X130352219Y-92535402D01*
X130142308Y-92534081D01*
X130042183Y-92545586D01*
X129819196Y-92616233D01*
X129641873Y-92745721D01*
X129511443Y-92933276D01*
X129505816Y-92944788D01*
X129480587Y-93001357D01*
X129461075Y-93060706D01*
X129446383Y-93133126D01*
X129435609Y-93228907D01*
X129427855Y-93358339D01*
X129422221Y-93531713D01*
X129417809Y-93759319D01*
X129413718Y-94051449D01*
X129401530Y-94996000D01*
X129291888Y-94996000D01*
X129302162Y-94070153D01*
X129302262Y-94061189D01*
X129305801Y-93757245D01*
X129309429Y-93518326D01*
X129313980Y-93334894D01*
X129320283Y-93197413D01*
X129329171Y-93096347D01*
X129341476Y-93022158D01*
X129358028Y-92965311D01*
X129379659Y-92916268D01*
X129407201Y-92865494D01*
X129409598Y-92861249D01*
X129564598Y-92657941D01*
X129760389Y-92511591D01*
X129986623Y-92424674D01*
X130232957Y-92399669D01*
X130489043Y-92439052D01*
X130744536Y-92545300D01*
X130903520Y-92634032D01*
X130903520Y-92056842D01*
X130903520Y-91479652D01*
X131277599Y-91479652D01*
X131651679Y-91479652D01*
X131651679Y-91588458D01*
X131651679Y-93293938D01*
G37*
G36*
X148036362Y-95108224D02*
G01*
X147645568Y-95108224D01*
X147254774Y-95108224D01*
X147243432Y-94269182D01*
X147241050Y-94105329D01*
X147235307Y-93844740D01*
X147225758Y-93644064D01*
X147209749Y-93493524D01*
X147184629Y-93383344D01*
X147147745Y-93303746D01*
X147096445Y-93244955D01*
X147028077Y-93197193D01*
X146939988Y-93150684D01*
X146858118Y-93114927D01*
X146770541Y-93102476D01*
X146667574Y-93126724D01*
X146638436Y-93136979D01*
X146574123Y-93168381D01*
X146524324Y-93213721D01*
X146487209Y-93281695D01*
X146460947Y-93380995D01*
X146443708Y-93520316D01*
X146433661Y-93708352D01*
X146428975Y-93953796D01*
X146427820Y-94265343D01*
X146427820Y-95108224D01*
X146035037Y-95108224D01*
X145642253Y-95108224D01*
X145642253Y-94996000D01*
X145791885Y-94996000D01*
X146030919Y-94996000D01*
X146269953Y-94996000D01*
X146285039Y-94182377D01*
X146290963Y-93908164D01*
X146299165Y-93677243D01*
X146311296Y-93500845D01*
X146329409Y-93368474D01*
X146355557Y-93269637D01*
X146391792Y-93193842D01*
X146440167Y-93130595D01*
X146502734Y-93069402D01*
X146529549Y-93048144D01*
X146629704Y-93006980D01*
X146777771Y-92994675D01*
X146860925Y-92999100D01*
X147037225Y-93049893D01*
X147178523Y-93161964D01*
X147293225Y-93340959D01*
X147322042Y-93404903D01*
X147344897Y-93472872D01*
X147361615Y-93554043D01*
X147373557Y-93660738D01*
X147382083Y-93805280D01*
X147388552Y-93999991D01*
X147394323Y-94257193D01*
X147409162Y-94996000D01*
X147647946Y-94996000D01*
X147886730Y-94996000D01*
X147886730Y-93780242D01*
X147886730Y-92564483D01*
X147643579Y-92564483D01*
X147400427Y-92564483D01*
X147400427Y-92714115D01*
X147399805Y-92747569D01*
X147391265Y-92830533D01*
X147375902Y-92863747D01*
X147366537Y-92861033D01*
X147309432Y-92827678D01*
X147226507Y-92768504D01*
X147016900Y-92638245D01*
X146779878Y-92552910D01*
X146546255Y-92526938D01*
X146326232Y-92558725D01*
X146130010Y-92646671D01*
X145967793Y-92789173D01*
X145849782Y-92984632D01*
X145836287Y-93023062D01*
X145820613Y-93094868D01*
X145808923Y-93194537D01*
X145800710Y-93331457D01*
X145795470Y-93515015D01*
X145792697Y-93754600D01*
X145791885Y-94059600D01*
X145791885Y-94996000D01*
X145642253Y-94996000D01*
X145642253Y-94193570D01*
X145642761Y-94043508D01*
X145646116Y-93779936D01*
X145652217Y-93540265D01*
X145660599Y-93337222D01*
X145670799Y-93183534D01*
X145682354Y-93091930D01*
X145759096Y-92878169D01*
X145898617Y-92682249D01*
X146086138Y-92531643D01*
X146310707Y-92434964D01*
X146561369Y-92400823D01*
X146702193Y-92407724D01*
X146935000Y-92460726D01*
X147145238Y-92571650D01*
X147154405Y-92577950D01*
X147218633Y-92617782D01*
X147245649Y-92611426D01*
X147257462Y-92555766D01*
X147259451Y-92543200D01*
X147271911Y-92509034D01*
X147303594Y-92487016D01*
X147368394Y-92473791D01*
X147480208Y-92466004D01*
X147652930Y-92460303D01*
X148036362Y-92449642D01*
X148036362Y-93778933D01*
X148036362Y-94996000D01*
X148036362Y-95108224D01*
G37*
G36*
X144773550Y-98518887D02*
G01*
X144687269Y-98810050D01*
X144542590Y-99071057D01*
X144344887Y-99293177D01*
X144099535Y-99467678D01*
X143811906Y-99585828D01*
X143713367Y-99605540D01*
X143531308Y-99620812D01*
X143322960Y-99619924D01*
X143025809Y-99588426D01*
X142777808Y-99518659D01*
X142563596Y-99403859D01*
X142366062Y-99237181D01*
X142346226Y-99217207D01*
X142253340Y-99119560D01*
X142188003Y-99044039D01*
X142163313Y-99005604D01*
X142172329Y-98994713D01*
X142234030Y-98955627D01*
X142341356Y-98899496D01*
X142479132Y-98834539D01*
X142794950Y-98692301D01*
X142919490Y-98787292D01*
X142945669Y-98806381D01*
X143146067Y-98905663D01*
X143361316Y-98943040D01*
X143575372Y-98919924D01*
X143772192Y-98837727D01*
X143935735Y-98697861D01*
X143965170Y-98662805D01*
X144009230Y-98606224D01*
X144031416Y-98562321D01*
X144025110Y-98529490D01*
X143983694Y-98506122D01*
X143900551Y-98490608D01*
X143769063Y-98481341D01*
X143582612Y-98476713D01*
X143334580Y-98475115D01*
X143018351Y-98474940D01*
X142002991Y-98474940D01*
X142017533Y-98262771D01*
X142127558Y-98262771D01*
X142148928Y-98305713D01*
X142199588Y-98334538D01*
X142287120Y-98351982D01*
X142419105Y-98360785D01*
X142603125Y-98363683D01*
X142846761Y-98363414D01*
X143157596Y-98362716D01*
X144189287Y-98362716D01*
X144163106Y-98484292D01*
X144118186Y-98627086D01*
X144003528Y-98812861D01*
X143843087Y-98950392D01*
X143646594Y-99036020D01*
X143423780Y-99066085D01*
X143184375Y-99036930D01*
X142938110Y-98944896D01*
X142735269Y-98842268D01*
X142534295Y-98944109D01*
X142333322Y-99045950D01*
X142509749Y-99205679D01*
X142594581Y-99274198D01*
X142735338Y-99365369D01*
X142863045Y-99425674D01*
X143065531Y-99478216D01*
X143376336Y-99506613D01*
X143686045Y-99479405D01*
X143969478Y-99397239D01*
X143972665Y-99395893D01*
X144128197Y-99303760D01*
X144291133Y-99164819D01*
X144439523Y-99000395D01*
X144551418Y-98831817D01*
X144592081Y-98749479D01*
X144623245Y-98662823D01*
X144640986Y-98564881D01*
X144648916Y-98434491D01*
X144650648Y-98250492D01*
X144649796Y-98128421D01*
X144643664Y-97975203D01*
X144628679Y-97862163D01*
X144601426Y-97767813D01*
X144558489Y-97670669D01*
X144450600Y-97488740D01*
X144252383Y-97270716D01*
X144010177Y-97110732D01*
X143729653Y-97012222D01*
X143416480Y-96978622D01*
X143128435Y-97006137D01*
X142844357Y-97097167D01*
X142600379Y-97247276D01*
X142402252Y-97451742D01*
X142255726Y-97705844D01*
X142166552Y-98004859D01*
X142163369Y-98021862D01*
X142142360Y-98123583D01*
X142127896Y-98202974D01*
X142127558Y-98262771D01*
X142017533Y-98262771D01*
X142023501Y-98175705D01*
X142043070Y-98006550D01*
X142127632Y-97693981D01*
X142269847Y-97422447D01*
X142466394Y-97197486D01*
X142713951Y-97024634D01*
X143001945Y-96905934D01*
X143311323Y-96848260D01*
X143617852Y-96857834D01*
X143911550Y-96933189D01*
X144182437Y-97072859D01*
X144420529Y-97275378D01*
X144467853Y-97327733D01*
X144616882Y-97531826D01*
X144715747Y-97752512D01*
X144777505Y-98016917D01*
X144796060Y-98206299D01*
X144792878Y-98250492D01*
X144773550Y-98518887D01*
G37*
G36*
X154084397Y-93922034D02*
G01*
X154055511Y-94110847D01*
X153956062Y-94401068D01*
X153798779Y-94658689D01*
X153591522Y-94874356D01*
X153342153Y-95038719D01*
X153058532Y-95142427D01*
X152842934Y-95173307D01*
X152592792Y-95173876D01*
X152342031Y-95144653D01*
X152114778Y-95088517D01*
X151935161Y-95008347D01*
X151876011Y-94967160D01*
X151774721Y-94884205D01*
X151668502Y-94787062D01*
X151573116Y-94691057D01*
X151504326Y-94611516D01*
X151477894Y-94563762D01*
X151483372Y-94553081D01*
X151538406Y-94509776D01*
X151639977Y-94449978D01*
X151772433Y-94383276D01*
X152066972Y-94245057D01*
X152260933Y-94365630D01*
X152310575Y-94395679D01*
X152427060Y-94453031D01*
X152540105Y-94478894D01*
X152688503Y-94484005D01*
X152748584Y-94481998D01*
X152917292Y-94460192D01*
X153043336Y-94419120D01*
X153119952Y-94365393D01*
X153212678Y-94267818D01*
X153282836Y-94160843D01*
X153310744Y-94070153D01*
X153303374Y-94059865D01*
X153262523Y-94047442D01*
X153180018Y-94037966D01*
X153049230Y-94031130D01*
X152863529Y-94026627D01*
X152616285Y-94024151D01*
X152300869Y-94023393D01*
X151290854Y-94023393D01*
X151291595Y-93939225D01*
X151291829Y-93924558D01*
X151292999Y-93911169D01*
X151430243Y-93911169D01*
X152445379Y-93911169D01*
X152705308Y-93911273D01*
X152949986Y-93912013D01*
X153135154Y-93914012D01*
X153269099Y-93917890D01*
X153360107Y-93924268D01*
X153416466Y-93933766D01*
X153446462Y-93947004D01*
X153458383Y-93964605D01*
X153460515Y-93987187D01*
X153432478Y-94126799D01*
X153349091Y-94283530D01*
X153223427Y-94424539D01*
X153150400Y-94480967D01*
X152942999Y-94579134D01*
X152712032Y-94613965D01*
X152470452Y-94584603D01*
X152231214Y-94490191D01*
X152052022Y-94392663D01*
X151833801Y-94489171D01*
X151615579Y-94585679D01*
X151705720Y-94682175D01*
X151719503Y-94696488D01*
X151888981Y-94830278D01*
X152102625Y-94943058D01*
X152332761Y-95019922D01*
X152619624Y-95059476D01*
X152920135Y-95042801D01*
X153201796Y-94968793D01*
X153451390Y-94841018D01*
X153655700Y-94663040D01*
X153704328Y-94604630D01*
X153850401Y-94368249D01*
X153934802Y-94103847D01*
X153961952Y-93798946D01*
X153959115Y-93647789D01*
X153944906Y-93508810D01*
X153913436Y-93388559D01*
X153858911Y-93256530D01*
X153774422Y-93096376D01*
X153594040Y-92863084D01*
X153372771Y-92692341D01*
X153109336Y-92583276D01*
X152802458Y-92535014D01*
X152651557Y-92531699D01*
X152374510Y-92560757D01*
X152132224Y-92642070D01*
X151908085Y-92780195D01*
X151775587Y-92902284D01*
X151616157Y-93124798D01*
X151504552Y-93384372D01*
X151450173Y-93662880D01*
X151430243Y-93911169D01*
X151292999Y-93911169D01*
X151308811Y-93730211D01*
X151347273Y-93513746D01*
X151400330Y-93307471D01*
X151461098Y-93143698D01*
X151575789Y-92959031D01*
X151752769Y-92765509D01*
X151961412Y-92601691D01*
X152179418Y-92487938D01*
X152206341Y-92478188D01*
X152438507Y-92423376D01*
X152699040Y-92402440D01*
X152956627Y-92416095D01*
X153179956Y-92465057D01*
X153191353Y-92469009D01*
X153462147Y-92602216D01*
X153692079Y-92791767D01*
X153875210Y-93028093D01*
X154005600Y-93301625D01*
X154077309Y-93602795D01*
X154081664Y-93798946D01*
X154084397Y-93922034D01*
G37*
G36*
X129130474Y-92733582D02*
G01*
X129057242Y-92919075D01*
X128967614Y-93142896D01*
X128864939Y-93396593D01*
X128752562Y-93671713D01*
X128679714Y-93849899D01*
X128573075Y-94113128D01*
X128478302Y-94349960D01*
X128398749Y-94551850D01*
X128337771Y-94710256D01*
X128298724Y-94816632D01*
X128284963Y-94862436D01*
X128299554Y-94912943D01*
X128340496Y-95016334D01*
X128401425Y-95156913D01*
X128475968Y-95319436D01*
X128546120Y-95469253D01*
X128625720Y-95640843D01*
X128692570Y-95786625D01*
X128737034Y-95885696D01*
X128807094Y-96045938D01*
X128407557Y-96035328D01*
X128008021Y-96024719D01*
X127192589Y-94250407D01*
X127130759Y-94115832D01*
X126977821Y-93782623D01*
X126835865Y-93472868D01*
X126707790Y-93192924D01*
X126596497Y-92949149D01*
X126504887Y-92747902D01*
X126435860Y-92595542D01*
X126427323Y-92576502D01*
X126564197Y-92576502D01*
X126564414Y-92577262D01*
X126583024Y-92620190D01*
X126629527Y-92723754D01*
X126700930Y-92881382D01*
X126794240Y-93086504D01*
X126906464Y-93332548D01*
X127034609Y-93612944D01*
X127175682Y-93921121D01*
X127326690Y-94250508D01*
X128089182Y-95912495D01*
X128355664Y-95923491D01*
X128622145Y-95934487D01*
X128532521Y-95736451D01*
X128511615Y-95690393D01*
X128445429Y-95545416D01*
X128366135Y-95372529D01*
X128286613Y-95199840D01*
X128130329Y-94861265D01*
X128585126Y-93759634D01*
X128644937Y-93614757D01*
X128752542Y-93354111D01*
X128849498Y-93119259D01*
X128932225Y-92918875D01*
X128997142Y-92761630D01*
X129040670Y-92656195D01*
X129059229Y-92611243D01*
X129061177Y-92603482D01*
X129038744Y-92580564D01*
X128961134Y-92568190D01*
X128818681Y-92564483D01*
X128778685Y-92564559D01*
X128656049Y-92568049D01*
X128584059Y-92581293D01*
X128543325Y-92610496D01*
X128514457Y-92661866D01*
X128509593Y-92672799D01*
X128475425Y-92752814D01*
X128419202Y-92886872D01*
X128345882Y-93063061D01*
X128260428Y-93269472D01*
X128167800Y-93494192D01*
X128135899Y-93571686D01*
X128048943Y-93782191D01*
X127973231Y-93964430D01*
X127913045Y-94108161D01*
X127872666Y-94203145D01*
X127856374Y-94239140D01*
X127845113Y-94221073D01*
X127806425Y-94144170D01*
X127744434Y-94015269D01*
X127663422Y-93843393D01*
X127567670Y-93637567D01*
X127461460Y-93406813D01*
X127075684Y-92564483D01*
X126819941Y-92564483D01*
X126814664Y-92564486D01*
X126688284Y-92566210D01*
X126598411Y-92570515D01*
X126564197Y-92576502D01*
X126427323Y-92576502D01*
X126392316Y-92498425D01*
X126377157Y-92462912D01*
X126398781Y-92459204D01*
X126481347Y-92456817D01*
X126611286Y-92457164D01*
X126773218Y-92460346D01*
X127169280Y-92470963D01*
X127483942Y-93161112D01*
X127503811Y-93204618D01*
X127599495Y-93412012D01*
X127685141Y-93594307D01*
X127755579Y-93740723D01*
X127805638Y-93840482D01*
X127830145Y-93882802D01*
X127834691Y-93882413D01*
X127865506Y-93838778D01*
X127917987Y-93738365D01*
X127987545Y-93590794D01*
X128069588Y-93405684D01*
X128159526Y-93192654D01*
X128457364Y-92470963D01*
X128838763Y-92460303D01*
X128910288Y-92458678D01*
X129083984Y-92459823D01*
X129186504Y-92470471D01*
X129220162Y-92490806D01*
X129214367Y-92511392D01*
X129183965Y-92594870D01*
X129180644Y-92603482D01*
X129130474Y-92733582D01*
G37*
G36*
X139856446Y-97174429D02*
G01*
X139780147Y-97362511D01*
X139687684Y-97589148D01*
X139582328Y-97846282D01*
X139467350Y-98125854D01*
X138978455Y-99312491D01*
X139242902Y-99882417D01*
X139309127Y-100025824D01*
X139388054Y-100198765D01*
X139450864Y-100338796D01*
X139492362Y-100434299D01*
X139507349Y-100473656D01*
X139487907Y-100480307D01*
X139407740Y-100487882D01*
X139279835Y-100493055D01*
X139119748Y-100494969D01*
X138732148Y-100494969D01*
X137936449Y-98764851D01*
X137895721Y-98676262D01*
X137742484Y-98342323D01*
X137599348Y-98029437D01*
X137469349Y-97744301D01*
X137355521Y-97493613D01*
X137260900Y-97284069D01*
X137188521Y-97122366D01*
X137164961Y-97068762D01*
X137306546Y-97068762D01*
X137306583Y-97068924D01*
X137324671Y-97114216D01*
X137370904Y-97220500D01*
X137442185Y-97380897D01*
X137535413Y-97588531D01*
X137647492Y-97836525D01*
X137775322Y-98118003D01*
X137915805Y-98426086D01*
X138065841Y-98753899D01*
X138812699Y-100382745D01*
X139066504Y-100382745D01*
X139070194Y-100382743D01*
X139196332Y-100379786D01*
X139286111Y-100372296D01*
X139320309Y-100361857D01*
X139317638Y-100352941D01*
X139291114Y-100288960D01*
X139240708Y-100175024D01*
X139172023Y-100023686D01*
X139090665Y-99847497D01*
X139056764Y-99774253D01*
X138979545Y-99604174D01*
X138917307Y-99462490D01*
X138875722Y-99362278D01*
X138860459Y-99316619D01*
X138863022Y-99306190D01*
X138888011Y-99236444D01*
X138936802Y-99110105D01*
X139005920Y-98935886D01*
X139091891Y-98722500D01*
X139191240Y-98478662D01*
X139300493Y-98213084D01*
X139346523Y-98101589D01*
X139453513Y-97841528D01*
X139550118Y-97605455D01*
X139632681Y-97402393D01*
X139697540Y-97241364D01*
X139741036Y-97131390D01*
X139759509Y-97081493D01*
X139761692Y-97048383D01*
X139734093Y-97027639D01*
X139661115Y-97018240D01*
X139528070Y-97016030D01*
X139278209Y-97016030D01*
X139174459Y-97249829D01*
X139148792Y-97308641D01*
X139085977Y-97456158D01*
X139006995Y-97644634D01*
X138919409Y-97855976D01*
X138830781Y-98072091D01*
X138767594Y-98225151D01*
X138693745Y-98398787D01*
X138632480Y-98536898D01*
X138588848Y-98628165D01*
X138567901Y-98661266D01*
X138556633Y-98646342D01*
X138517194Y-98573221D01*
X138454637Y-98447522D01*
X138373493Y-98278585D01*
X138278293Y-98075750D01*
X138173567Y-97848356D01*
X137802185Y-97034733D01*
X137548147Y-97023602D01*
X137447026Y-97020353D01*
X137354071Y-97023719D01*
X137311908Y-97038984D01*
X137306546Y-97068762D01*
X137164961Y-97068762D01*
X137141420Y-97015200D01*
X137122632Y-96969270D01*
X137121833Y-96966260D01*
X137121812Y-96938048D01*
X137147179Y-96919845D01*
X137210286Y-96909502D01*
X137323489Y-96904872D01*
X137499140Y-96903806D01*
X137516928Y-96903811D01*
X137688247Y-96905223D01*
X137799940Y-96910824D01*
X137865993Y-96923075D01*
X137900390Y-96944437D01*
X137917114Y-96977372D01*
X137918225Y-96980655D01*
X137943985Y-97043626D01*
X137995347Y-97161371D01*
X138067086Y-97322164D01*
X138153976Y-97514284D01*
X138250793Y-97726006D01*
X138561122Y-98401074D01*
X138871217Y-97652440D01*
X139181311Y-96903806D01*
X139568778Y-96903806D01*
X139689611Y-96904692D01*
X139827367Y-96908354D01*
X139921432Y-96914197D01*
X139956244Y-96921511D01*
X139947465Y-96946158D01*
X139913309Y-97032958D01*
X139907109Y-97048383D01*
X139856446Y-97174429D01*
G37*
G36*
X131438655Y-98548644D02*
G01*
X131363085Y-98813278D01*
X131229683Y-99056354D01*
X131141771Y-99165810D01*
X130947948Y-99340900D01*
X130722328Y-99484629D01*
X130492032Y-99577825D01*
X130257743Y-99616530D01*
X129957961Y-99620453D01*
X129798179Y-99610471D01*
X129655118Y-99589276D01*
X129529210Y-99550928D01*
X129389459Y-99488219D01*
X129315458Y-99447052D01*
X129187194Y-99359166D01*
X129060858Y-99256572D01*
X128951716Y-99153038D01*
X128875035Y-99062332D01*
X128846082Y-98998220D01*
X128855525Y-98987420D01*
X128917979Y-98948950D01*
X129026014Y-98893474D01*
X129164485Y-98829040D01*
X129482889Y-98687164D01*
X129571494Y-98770405D01*
X129669978Y-98842114D01*
X129855368Y-98914252D01*
X130063054Y-98940239D01*
X130269483Y-98918058D01*
X130451100Y-98845693D01*
X130458629Y-98840932D01*
X130542972Y-98769076D01*
X130626575Y-98672603D01*
X130690633Y-98575810D01*
X130716340Y-98502996D01*
X130716243Y-98502602D01*
X130676881Y-98495257D01*
X130572814Y-98488652D01*
X130413656Y-98483052D01*
X130209020Y-98478722D01*
X129968522Y-98475930D01*
X129701774Y-98474940D01*
X128687068Y-98474940D01*
X128692987Y-98362716D01*
X128798016Y-98362716D01*
X129832777Y-98362716D01*
X130867537Y-98362716D01*
X130843535Y-98465588D01*
X130804290Y-98594396D01*
X130691593Y-98793926D01*
X130529188Y-98937989D01*
X130318721Y-99025343D01*
X130061841Y-99054748D01*
X129976649Y-99053588D01*
X129843160Y-99041121D01*
X129734561Y-99008467D01*
X129617728Y-98947637D01*
X129435472Y-98840510D01*
X129243649Y-98927455D01*
X129163081Y-98964344D01*
X129075942Y-99005344D01*
X129035553Y-99025916D01*
X129032576Y-99029015D01*
X129046168Y-99068890D01*
X129106022Y-99134367D01*
X129197209Y-99213342D01*
X129304801Y-99293710D01*
X129413870Y-99363366D01*
X129509487Y-99410205D01*
X129510335Y-99410522D01*
X129711190Y-99465457D01*
X129942915Y-99498228D01*
X130172503Y-99505931D01*
X130366949Y-99485661D01*
X130604799Y-99408267D01*
X130857844Y-99259801D01*
X131070914Y-99059231D01*
X131229725Y-98817617D01*
X131255018Y-98764603D01*
X131296290Y-98660776D01*
X131320059Y-98557125D01*
X131330883Y-98428685D01*
X131333325Y-98250492D01*
X131333125Y-98200558D01*
X131328128Y-98032697D01*
X131313147Y-97908301D01*
X131283814Y-97802238D01*
X131235759Y-97689373D01*
X131206164Y-97631574D01*
X131053385Y-97412776D01*
X130858034Y-97221371D01*
X130643166Y-97081030D01*
X130603874Y-97062562D01*
X130512514Y-97029392D01*
X130408665Y-97009520D01*
X130271589Y-96999860D01*
X130080545Y-96997326D01*
X129915020Y-96998715D01*
X129779548Y-97005812D01*
X129678836Y-97022301D01*
X129591635Y-97051850D01*
X129496696Y-97098128D01*
X129486165Y-97103782D01*
X129304574Y-97229336D01*
X129133939Y-97394307D01*
X128993974Y-97576833D01*
X128904387Y-97755053D01*
X128883424Y-97824314D01*
X128845746Y-97987772D01*
X128820800Y-98147620D01*
X128798016Y-98362716D01*
X128692987Y-98362716D01*
X128703345Y-98166324D01*
X128738818Y-97898067D01*
X128838757Y-97599569D01*
X128997111Y-97344287D01*
X129210175Y-97136615D01*
X129474248Y-96980949D01*
X129785627Y-96881684D01*
X130067338Y-96848297D01*
X130377960Y-96872902D01*
X130663152Y-96960593D01*
X130915759Y-97105920D01*
X131128624Y-97303435D01*
X131294591Y-97547688D01*
X131406504Y-97833229D01*
X131457208Y-98154609D01*
X131460265Y-98247101D01*
X131460022Y-98250492D01*
X131438655Y-98548644D01*
G37*
G36*
X156771091Y-93798159D02*
G01*
X156767936Y-93976421D01*
X156755262Y-94117083D01*
X156729279Y-94229719D01*
X156686208Y-94338381D01*
X156535059Y-94595955D01*
X156322129Y-94829586D01*
X156067001Y-95007885D01*
X155778577Y-95123154D01*
X155639023Y-95153824D01*
X155325700Y-95179798D01*
X155011499Y-95153218D01*
X154716715Y-95076707D01*
X154461644Y-94952890D01*
X154427055Y-94929808D01*
X154305851Y-94836010D01*
X154199933Y-94736351D01*
X154124925Y-94646664D01*
X154102639Y-94596667D01*
X154243730Y-94596667D01*
X154347778Y-94706302D01*
X154363184Y-94721961D01*
X154532116Y-94849969D01*
X154748128Y-94956354D01*
X154986731Y-95028755D01*
X155104711Y-95048678D01*
X155423364Y-95057073D01*
X155737780Y-95004559D01*
X156024641Y-94894160D01*
X156156207Y-94807020D01*
X156320715Y-94654659D01*
X156467338Y-94475326D01*
X156573728Y-94293467D01*
X156614533Y-94175734D01*
X156651840Y-93957358D01*
X156657905Y-93720075D01*
X156632660Y-93492817D01*
X156576038Y-93304516D01*
X156492169Y-93156434D01*
X156331114Y-92955973D01*
X156137399Y-92779012D01*
X155934168Y-92649180D01*
X155929643Y-92646961D01*
X155829003Y-92601172D01*
X155738059Y-92571671D01*
X155635692Y-92554946D01*
X155500782Y-92547486D01*
X155312209Y-92545779D01*
X155203978Y-92546346D01*
X155037567Y-92551847D01*
X154915054Y-92565566D01*
X154816024Y-92590378D01*
X154720060Y-92629159D01*
X154604989Y-92688998D01*
X154472282Y-92772519D01*
X154357422Y-92858711D01*
X154276619Y-92935241D01*
X154246082Y-92989778D01*
X154267643Y-93021685D01*
X154340052Y-93078677D01*
X154445819Y-93142752D01*
X154645555Y-93250798D01*
X154775112Y-93151979D01*
X154970217Y-93045846D01*
X155196637Y-92995128D01*
X155431524Y-93002181D01*
X155655905Y-93066387D01*
X155850806Y-93187125D01*
X155948986Y-93279212D01*
X156056884Y-93424669D01*
X156114134Y-93589563D01*
X156132259Y-93798946D01*
X156117039Y-93992873D01*
X156045310Y-94210423D01*
X155917856Y-94380395D01*
X155737992Y-94499920D01*
X155509033Y-94566127D01*
X155234296Y-94576147D01*
X155125637Y-94567429D01*
X154995802Y-94546227D01*
X154895122Y-94508847D01*
X154795549Y-94447036D01*
X154638866Y-94336026D01*
X154441298Y-94466346D01*
X154243730Y-94596667D01*
X154102639Y-94596667D01*
X154096450Y-94582782D01*
X154103891Y-94570176D01*
X154158906Y-94519806D01*
X154255796Y-94445274D01*
X154380598Y-94357644D01*
X154664746Y-94165903D01*
X154764030Y-94260999D01*
X154791269Y-94285718D01*
X154973647Y-94399721D01*
X155180110Y-94458972D01*
X155394466Y-94464698D01*
X155600525Y-94418130D01*
X155782092Y-94320496D01*
X155922977Y-94173025D01*
X155959441Y-94113091D01*
X155990105Y-94031700D01*
X156001203Y-93929617D01*
X155997832Y-93780077D01*
X155979565Y-93614687D01*
X155919273Y-93432249D01*
X155812481Y-93296701D01*
X155652581Y-93196881D01*
X155602117Y-93176105D01*
X155376558Y-93126533D01*
X155144816Y-93136026D01*
X154927292Y-93201794D01*
X154744389Y-93321048D01*
X154662872Y-93395518D01*
X154360957Y-93234652D01*
X154292308Y-93197239D01*
X154172601Y-93127297D01*
X154089903Y-93072389D01*
X154059042Y-93041979D01*
X154080269Y-93003828D01*
X154140608Y-92927497D01*
X154226347Y-92831311D01*
X154337323Y-92726408D01*
X154592193Y-92559753D01*
X154884952Y-92450865D01*
X155205778Y-92402816D01*
X155544848Y-92418680D01*
X155666766Y-92440374D01*
X155979920Y-92542796D01*
X156251057Y-92704483D01*
X156475399Y-92922084D01*
X156648169Y-93192249D01*
X156692977Y-93286252D01*
X156735108Y-93393448D01*
X156758640Y-93497094D01*
X156768869Y-93623296D01*
X156770099Y-93720075D01*
X156771091Y-93798159D01*
G37*
G36*
X142443873Y-93744921D02*
G01*
X142442051Y-93933762D01*
X142434233Y-94069798D01*
X142416825Y-94174798D01*
X142386230Y-94270532D01*
X142338855Y-94378769D01*
X142269175Y-94506221D01*
X142095135Y-94728308D01*
X141881508Y-94910439D01*
X141646645Y-95035211D01*
X141572463Y-95059325D01*
X141345063Y-95099128D01*
X141101499Y-95102155D01*
X140869388Y-95069361D01*
X140676347Y-95001699D01*
X140517363Y-94919664D01*
X140517363Y-95005620D01*
X140532794Y-95094707D01*
X140607103Y-95209297D01*
X140730582Y-95298683D01*
X140889479Y-95359692D01*
X141070039Y-95389147D01*
X141258508Y-95383876D01*
X141441134Y-95340703D01*
X141604162Y-95256455D01*
X141634514Y-95236876D01*
X141699320Y-95209566D01*
X141787748Y-95193160D01*
X141916836Y-95185152D01*
X142103624Y-95183040D01*
X142232558Y-95183892D01*
X142370872Y-95187145D01*
X142465143Y-95192264D01*
X142499985Y-95198642D01*
X142496001Y-95213074D01*
X142470375Y-95280369D01*
X142428857Y-95380181D01*
X142297819Y-95608636D01*
X142101443Y-95811615D01*
X141853494Y-95963560D01*
X141558589Y-96060859D01*
X141324236Y-96099084D01*
X140987842Y-96107716D01*
X140676825Y-96060410D01*
X140398617Y-95960142D01*
X140160649Y-95809883D01*
X139970354Y-95612609D01*
X139835163Y-95371292D01*
X139814736Y-95317871D01*
X139796770Y-95260538D01*
X139782395Y-95195047D01*
X139771102Y-95113066D01*
X139762380Y-95006263D01*
X139755719Y-94866306D01*
X139750610Y-94684863D01*
X139746543Y-94453602D01*
X139743006Y-94164191D01*
X139739583Y-93817650D01*
X139862724Y-93817650D01*
X139862826Y-94006004D01*
X139863754Y-94316104D01*
X139865992Y-94564932D01*
X139869953Y-94761396D01*
X139876051Y-94914404D01*
X139884698Y-95032867D01*
X139896307Y-95125693D01*
X139911292Y-95201790D01*
X139930065Y-95270069D01*
X139965888Y-95366109D01*
X140100189Y-95584320D01*
X140289000Y-95760975D01*
X140520848Y-95884149D01*
X140551632Y-95895028D01*
X140794778Y-95953045D01*
X141063979Y-95977630D01*
X141335738Y-95969301D01*
X141586560Y-95928580D01*
X141792948Y-95855987D01*
X141802521Y-95851113D01*
X141947643Y-95760174D01*
X142085734Y-95646127D01*
X142202305Y-95524021D01*
X142282871Y-95408905D01*
X142312945Y-95315825D01*
X142311845Y-95313997D01*
X142266432Y-95304491D01*
X142167720Y-95297796D01*
X142034047Y-95295264D01*
X141920409Y-95297052D01*
X141797972Y-95308930D01*
X141706550Y-95336947D01*
X141620194Y-95386846D01*
X141557911Y-95423941D01*
X141366912Y-95492511D01*
X141156201Y-95517070D01*
X140943274Y-95500080D01*
X140745627Y-95444002D01*
X140580757Y-95351300D01*
X140466158Y-95224436D01*
X140436464Y-95156878D01*
X140399054Y-95016341D01*
X140376293Y-94856184D01*
X140356337Y-94607575D01*
X140524269Y-94745182D01*
X140640326Y-94828903D01*
X140885540Y-94943843D01*
X141141701Y-94992548D01*
X141398528Y-94977523D01*
X141645742Y-94901274D01*
X141873061Y-94766307D01*
X142070205Y-94575125D01*
X142226893Y-94330236D01*
X142262054Y-94255462D01*
X142298806Y-94156952D01*
X142319854Y-94054387D01*
X142329401Y-93924203D01*
X142331649Y-93742834D01*
X142330752Y-93614881D01*
X142324104Y-93470354D01*
X142307349Y-93361250D01*
X142276277Y-93263988D01*
X142226677Y-93154989D01*
X142176193Y-93063767D01*
X142013618Y-92855775D01*
X141813483Y-92689119D01*
X141594217Y-92580538D01*
X141391627Y-92536385D01*
X141139980Y-92534833D01*
X140895169Y-92584806D01*
X140676222Y-92682088D01*
X140502168Y-92822462D01*
X140449658Y-92874264D01*
X140400362Y-92893880D01*
X140374944Y-92847447D01*
X140367732Y-92731110D01*
X140367732Y-92561065D01*
X140115228Y-92572126D01*
X139862724Y-92583187D01*
X139862724Y-93817650D01*
X139739583Y-93817650D01*
X139739491Y-93808298D01*
X139726779Y-92452259D01*
X140103367Y-92452259D01*
X140479956Y-92452259D01*
X140479956Y-92548896D01*
X140487408Y-92610529D01*
X140508011Y-92631271D01*
X140623850Y-92572940D01*
X140786767Y-92495287D01*
X140912587Y-92444903D01*
X141019447Y-92416147D01*
X141125487Y-92403382D01*
X141248843Y-92400969D01*
X141454907Y-92419595D01*
X141731818Y-92504528D01*
X141977939Y-92653193D01*
X142185023Y-92860177D01*
X142344818Y-93120067D01*
X142386118Y-93214418D01*
X142416494Y-93309310D01*
X142433975Y-93414736D01*
X142441966Y-93552107D01*
X142443873Y-93742834D01*
X142443873Y-93744921D01*
G37*
G36*
X163518237Y-92045878D02*
G01*
X163505795Y-92410546D01*
X163436662Y-92823737D01*
X163310916Y-93285692D01*
X163269131Y-93414685D01*
X163210121Y-93585971D01*
X163145475Y-93759479D01*
X163071951Y-93942320D01*
X162986306Y-94141604D01*
X162885297Y-94364442D01*
X162765682Y-94617946D01*
X162624218Y-94909226D01*
X162457663Y-95245392D01*
X162262774Y-95633557D01*
X162036308Y-96080831D01*
X161919497Y-96310836D01*
X161641292Y-96858220D01*
X161393588Y-97344577D01*
X161174046Y-97774046D01*
X160980329Y-98150764D01*
X160810099Y-98478870D01*
X160661018Y-98762501D01*
X160530749Y-99005797D01*
X160416952Y-99212896D01*
X160317292Y-99387935D01*
X160229429Y-99535053D01*
X160151025Y-99658387D01*
X160079744Y-99762077D01*
X160013246Y-99850260D01*
X159949195Y-99927075D01*
X159885252Y-99996659D01*
X159819079Y-100063151D01*
X159748339Y-100130689D01*
X159721310Y-100155732D01*
X159485274Y-100343127D01*
X159221476Y-100496284D01*
X158918546Y-100619948D01*
X158565113Y-100718863D01*
X158149807Y-100797774D01*
X158066977Y-100807243D01*
X157902139Y-100819197D01*
X157677930Y-100830856D01*
X157402963Y-100841885D01*
X157085849Y-100851946D01*
X156735201Y-100860702D01*
X156359632Y-100867816D01*
X156277656Y-100869029D01*
X156031002Y-100871895D01*
X155721253Y-100874619D01*
X155351694Y-100877202D01*
X154925609Y-100879644D01*
X154446280Y-100881945D01*
X153916991Y-100884106D01*
X153341026Y-100886126D01*
X152721669Y-100888005D01*
X152062203Y-100889745D01*
X151365911Y-100891344D01*
X150636078Y-100892803D01*
X149875986Y-100894123D01*
X149088919Y-100895303D01*
X148278162Y-100896343D01*
X147446997Y-100897244D01*
X146598707Y-100898006D01*
X145736578Y-100898629D01*
X144863891Y-100899113D01*
X143983931Y-100899459D01*
X143099981Y-100899666D01*
X142215325Y-100899734D01*
X141333247Y-100899665D01*
X140457029Y-100899457D01*
X139589956Y-100899111D01*
X138735311Y-100898628D01*
X137896378Y-100898006D01*
X137076440Y-100897248D01*
X136278780Y-100896352D01*
X135506683Y-100895319D01*
X134763432Y-100894149D01*
X134052310Y-100892842D01*
X133376601Y-100891398D01*
X132739589Y-100889818D01*
X132144556Y-100888102D01*
X131594788Y-100886249D01*
X131093567Y-100884260D01*
X130644177Y-100882136D01*
X130249901Y-100879875D01*
X129914023Y-100877479D01*
X129639826Y-100874948D01*
X129430595Y-100872281D01*
X129289612Y-100869479D01*
X129220162Y-100866542D01*
X128735341Y-100805043D01*
X128307209Y-100712387D01*
X127934312Y-100585385D01*
X127609326Y-100420310D01*
X127324928Y-100213433D01*
X127073793Y-99961027D01*
X126848599Y-99659363D01*
X126828630Y-99627834D01*
X126751420Y-99496089D01*
X126646017Y-99306383D01*
X126515881Y-99065541D01*
X126364469Y-98780385D01*
X126195241Y-98457739D01*
X126011653Y-98104426D01*
X125817164Y-97727270D01*
X125615232Y-97333094D01*
X125409317Y-96928721D01*
X125202875Y-96520976D01*
X124999364Y-96116680D01*
X124802245Y-95722659D01*
X124614973Y-95345734D01*
X124441008Y-94992730D01*
X124283808Y-94670469D01*
X124146831Y-94385776D01*
X124033535Y-94145474D01*
X123947379Y-93956386D01*
X123891820Y-93825335D01*
X123830422Y-93664433D01*
X123666976Y-93173973D01*
X123558976Y-92732606D01*
X123506596Y-92339268D01*
X123506846Y-92313935D01*
X123627839Y-92313935D01*
X123678063Y-92693428D01*
X123783189Y-93123169D01*
X123943234Y-93603331D01*
X124158217Y-94134085D01*
X124190878Y-94206222D01*
X124265395Y-94363489D01*
X124368045Y-94574950D01*
X124495122Y-94833295D01*
X124642924Y-95131212D01*
X124807746Y-95461393D01*
X124985884Y-95816525D01*
X125173636Y-96189300D01*
X125367296Y-96572407D01*
X125563161Y-96958536D01*
X125757528Y-97340375D01*
X125946691Y-97710616D01*
X126126948Y-98061948D01*
X126294595Y-98387059D01*
X126445927Y-98678641D01*
X126577242Y-98929383D01*
X126684834Y-99131974D01*
X126765001Y-99279104D01*
X126878775Y-99469318D01*
X127100194Y-99778299D01*
X127340389Y-100046064D01*
X127589101Y-100261736D01*
X127836067Y-100414437D01*
X127939371Y-100460666D01*
X128234922Y-100564177D01*
X128585370Y-100653553D01*
X128977010Y-100725063D01*
X129015819Y-100728934D01*
X129141465Y-100735246D01*
X129340938Y-100741102D01*
X129613612Y-100746500D01*
X129958863Y-100751441D01*
X130376064Y-100755922D01*
X130864592Y-100759943D01*
X131423819Y-100763502D01*
X132053122Y-100766600D01*
X132751876Y-100769235D01*
X133519454Y-100771405D01*
X134355232Y-100773111D01*
X135258584Y-100774350D01*
X136228886Y-100775122D01*
X137265511Y-100775427D01*
X138367836Y-100775262D01*
X139535234Y-100774628D01*
X140767081Y-100773522D01*
X142062751Y-100771945D01*
X143421619Y-100769895D01*
X144843060Y-100767371D01*
X146326449Y-100764373D01*
X147871160Y-100760898D01*
X149476568Y-100756947D01*
X149954885Y-100755714D01*
X150853166Y-100753344D01*
X151681148Y-100751063D01*
X152441837Y-100748843D01*
X153138241Y-100746654D01*
X153773368Y-100744466D01*
X154350223Y-100742250D01*
X154871815Y-100739976D01*
X155341150Y-100737614D01*
X155761235Y-100735135D01*
X156135078Y-100732510D01*
X156465686Y-100729708D01*
X156756066Y-100726700D01*
X157009224Y-100723457D01*
X157228169Y-100719949D01*
X157415906Y-100716146D01*
X157575444Y-100712019D01*
X157709789Y-100707539D01*
X157821949Y-100702674D01*
X157914930Y-100697398D01*
X157991740Y-100691678D01*
X158055386Y-100685486D01*
X158108875Y-100678793D01*
X158155213Y-100671569D01*
X158414850Y-100622102D01*
X158801640Y-100522945D01*
X159131668Y-100399039D01*
X159415321Y-100244282D01*
X159662982Y-100052573D01*
X159885039Y-99817812D01*
X160091876Y-99533897D01*
X160092941Y-99532263D01*
X160162837Y-99416597D01*
X160261930Y-99240747D01*
X160386710Y-99011647D01*
X160533669Y-98736228D01*
X160699298Y-98421426D01*
X160880088Y-98074173D01*
X161072529Y-97701403D01*
X161273113Y-97310048D01*
X161478330Y-96907043D01*
X161684671Y-96499321D01*
X161888627Y-96093814D01*
X162086690Y-95697457D01*
X162275350Y-95317182D01*
X162451098Y-94959924D01*
X162610425Y-94632614D01*
X162749823Y-94342188D01*
X162865781Y-94095577D01*
X162954791Y-93899716D01*
X163013343Y-93761538D01*
X163111974Y-93500964D01*
X163234025Y-93131304D01*
X163318227Y-92799196D01*
X163367980Y-92490331D01*
X163386684Y-92190404D01*
X163387050Y-92163923D01*
X163387489Y-91990453D01*
X163380840Y-91866800D01*
X163363277Y-91770808D01*
X163330973Y-91680319D01*
X163280103Y-91573176D01*
X163272915Y-91559036D01*
X163118384Y-91334794D01*
X162912536Y-91163339D01*
X162651869Y-91041710D01*
X162616903Y-91031055D01*
X162569520Y-91020202D01*
X162509656Y-91010777D01*
X162432117Y-91002654D01*
X162331707Y-90995702D01*
X162203233Y-90989793D01*
X162041500Y-90984799D01*
X161841313Y-90980590D01*
X161597478Y-90977038D01*
X161304799Y-90974013D01*
X160958084Y-90971388D01*
X160552136Y-90969033D01*
X160081761Y-90966820D01*
X159541765Y-90964620D01*
X156626403Y-90953311D01*
X156155571Y-90494245D01*
X155915981Y-90267629D01*
X155626543Y-90017981D01*
X155356539Y-89817307D01*
X155093972Y-89657687D01*
X154826847Y-89531205D01*
X154543165Y-89429941D01*
X154539293Y-89428752D01*
X154334623Y-89376382D01*
X154076401Y-89325926D01*
X153785403Y-89280627D01*
X153482407Y-89243727D01*
X153188190Y-89218469D01*
X152859752Y-89197159D01*
X152926334Y-89319039D01*
X152961660Y-89415331D01*
X152989272Y-89583747D01*
X152998037Y-89782203D01*
X152988242Y-89987109D01*
X152960173Y-90174874D01*
X152914119Y-90321906D01*
X152793788Y-90526636D01*
X152625029Y-90717720D01*
X152435338Y-90855273D01*
X152282165Y-90937237D01*
X138478630Y-90956010D01*
X137807604Y-90956926D01*
X136637683Y-90958544D01*
X135539055Y-90960103D01*
X134509441Y-90961615D01*
X133546564Y-90963094D01*
X132648146Y-90964556D01*
X131811909Y-90966012D01*
X131035577Y-90967478D01*
X130316870Y-90968967D01*
X129653512Y-90970493D01*
X129043224Y-90972070D01*
X128483730Y-90973713D01*
X127972751Y-90975433D01*
X127508010Y-90977247D01*
X127087230Y-90979167D01*
X126708131Y-90981207D01*
X126368438Y-90983382D01*
X126065871Y-90985706D01*
X125798154Y-90988191D01*
X125563009Y-90990852D01*
X125358158Y-90993704D01*
X125181324Y-90996759D01*
X125030228Y-91000032D01*
X124902593Y-91003536D01*
X124796142Y-91007286D01*
X124708597Y-91011296D01*
X124637679Y-91015579D01*
X124581112Y-91020149D01*
X124536618Y-91025020D01*
X124501920Y-91030206D01*
X124474738Y-91035721D01*
X124452797Y-91041579D01*
X124408934Y-91055184D01*
X124187634Y-91143239D01*
X124012363Y-91255584D01*
X123858771Y-91407206D01*
X123806380Y-91475223D01*
X123692016Y-91705005D01*
X123632496Y-91984518D01*
X123627839Y-92313935D01*
X123506846Y-92313935D01*
X123510012Y-91992894D01*
X123569399Y-91692420D01*
X123684935Y-91436782D01*
X123856794Y-91224914D01*
X124085152Y-91055753D01*
X124370185Y-90928234D01*
X124377558Y-90925853D01*
X124399203Y-90920222D01*
X124427597Y-90914921D01*
X124465007Y-90909938D01*
X124513702Y-90905258D01*
X124575952Y-90900869D01*
X124654025Y-90896756D01*
X124750191Y-90892905D01*
X124866718Y-90889304D01*
X125005875Y-90885938D01*
X125169931Y-90882793D01*
X125361155Y-90879857D01*
X125581816Y-90877114D01*
X125834184Y-90874552D01*
X126120526Y-90872157D01*
X126443112Y-90869916D01*
X126804211Y-90867813D01*
X127206091Y-90865837D01*
X127651023Y-90863973D01*
X128141274Y-90862207D01*
X128679113Y-90860526D01*
X129266810Y-90858916D01*
X129906634Y-90857364D01*
X130600852Y-90855855D01*
X131351736Y-90854376D01*
X132161552Y-90852914D01*
X133032571Y-90851454D01*
X133967061Y-90849984D01*
X134967290Y-90848488D01*
X136035529Y-90846954D01*
X137174046Y-90845369D01*
X138385110Y-90843717D01*
X138537106Y-90843511D01*
X139743412Y-90841855D01*
X140877408Y-90840249D01*
X141941327Y-90838683D01*
X142937401Y-90837142D01*
X143867865Y-90835616D01*
X144734952Y-90834090D01*
X145540894Y-90832553D01*
X146287925Y-90830992D01*
X146978279Y-90829394D01*
X147614188Y-90827747D01*
X148197886Y-90826038D01*
X148731606Y-90824255D01*
X149217581Y-90822385D01*
X149658045Y-90820415D01*
X150055231Y-90818333D01*
X150411373Y-90816126D01*
X150728702Y-90813781D01*
X151009454Y-90811287D01*
X151255860Y-90808630D01*
X151470155Y-90805798D01*
X151654571Y-90802779D01*
X151811342Y-90799559D01*
X151942702Y-90796126D01*
X152050882Y-90792467D01*
X152138117Y-90788571D01*
X152206640Y-90784424D01*
X152258684Y-90780013D01*
X152296483Y-90775327D01*
X152322269Y-90770353D01*
X152338277Y-90765077D01*
X152385186Y-90741536D01*
X152574198Y-90598193D01*
X152725854Y-90400949D01*
X152832108Y-90162598D01*
X152884911Y-89895939D01*
X152890190Y-89757152D01*
X152864596Y-89537257D01*
X152795223Y-89367219D01*
X152684210Y-89253879D01*
X152666753Y-89242306D01*
X152594300Y-89179350D01*
X152564165Y-89126488D01*
X152565893Y-89116455D01*
X152587965Y-89099500D01*
X152643584Y-89089636D01*
X152743026Y-89086314D01*
X152896570Y-89088985D01*
X153114492Y-89097101D01*
X153610385Y-89130118D01*
X154071748Y-89191246D01*
X154484720Y-89284357D01*
X154861074Y-89414372D01*
X155212586Y-89586215D01*
X155551028Y-89804805D01*
X155888175Y-90075066D01*
X156235802Y-90401920D01*
X156677599Y-90843717D01*
X159500058Y-90843717D01*
X159502274Y-90843717D01*
X160113763Y-90844207D01*
X160652181Y-90845687D01*
X161119263Y-90848180D01*
X161516741Y-90851711D01*
X161846350Y-90856304D01*
X162109821Y-90861983D01*
X162308890Y-90868772D01*
X162445288Y-90876696D01*
X162520750Y-90885778D01*
X162727301Y-90941974D01*
X162999504Y-91067631D01*
X163214620Y-91240610D01*
X163372729Y-91461150D01*
X163473908Y-91729493D01*
X163510471Y-91990453D01*
X163518237Y-92045878D01*
G37*
%TO.C,J3*%
X196410000Y-85090000D02*
X199070000Y-85090000D01*
X196410000Y-102930000D02*
X196410000Y-85090000D01*
X196410000Y-102930000D02*
X199070000Y-102930000D01*
X196410000Y-104200000D02*
X196410000Y-105530000D01*
X196410000Y-105530000D02*
X197740000Y-105530000D01*
X199070000Y-102930000D02*
X199070000Y-85090000D01*
%TD*%
%LPC*%
D12*
%TO.C,R1*%
X175514000Y-82804000D03*
D13*
X183134000Y-82804000D03*
%TD*%
D14*
%TO.C,U3*%
X156610000Y-104115000D03*
X156610000Y-86335000D03*
D15*
X114700000Y-105385000D03*
D12*
X117240000Y-105385000D03*
X119780000Y-105385000D03*
X122320000Y-105385000D03*
X124860000Y-105385000D03*
X127400000Y-105385000D03*
X129940000Y-105385000D03*
X132480000Y-105385000D03*
X135020000Y-105385000D03*
X137560000Y-105385000D03*
X140100000Y-105385000D03*
X142640000Y-105385000D03*
X145180000Y-105385000D03*
X147720000Y-105385000D03*
X150260000Y-105385000D03*
X152800000Y-105385000D03*
X152800000Y-85065000D03*
X150260000Y-85065000D03*
X147720000Y-85065000D03*
X145180000Y-85065000D03*
X142640000Y-85065000D03*
X140100000Y-85065000D03*
X137560000Y-85065000D03*
X135020000Y-85065000D03*
X132480000Y-85065000D03*
X129940000Y-85065000D03*
X127400000Y-85065000D03*
X124860000Y-85065000D03*
%TD*%
D16*
%TO.C,U2*%
X170355000Y-102559000D03*
D17*
X170355000Y-100019000D03*
X170355000Y-97479000D03*
D16*
X188135000Y-97479000D03*
D17*
X188135000Y-100019000D03*
X188135000Y-102559000D03*
%TD*%
D18*
%TO.C,J2*%
X101600000Y-83820000D03*
D19*
X101600000Y-86360000D03*
X101600000Y-88900000D03*
%TD*%
D20*
%TO.C,REF\u002A\u002A*%
X97790000Y-94488000D03*
%TD*%
D12*
%TO.C,R3*%
X178308000Y-88138000D03*
D13*
X185928000Y-88138000D03*
%TD*%
D12*
%TO.C,R2*%
X163068000Y-82816000D03*
D13*
X170688000Y-82816000D03*
%TD*%
D16*
%TO.C,U1*%
X105875000Y-83645000D03*
D17*
X105863570Y-86134568D03*
X105863570Y-88671711D03*
X105863570Y-91265000D03*
X105863570Y-93805000D03*
X105863570Y-96345000D03*
X105863570Y-98885000D03*
X105863570Y-101425000D03*
%TD*%
D21*
%TO.C,J4*%
X201422000Y-100862000D03*
D22*
X201422000Y-98862000D03*
X201422000Y-96862000D03*
X201422000Y-94862000D03*
X201422000Y-92862000D03*
X201422000Y-90862000D03*
X201422000Y-88862000D03*
%TD*%
D18*
%TO.C,J3*%
X197740000Y-104200000D03*
D19*
X197740000Y-101660000D03*
X197740000Y-99120000D03*
X197740000Y-96580000D03*
X197740000Y-94040000D03*
X197740000Y-91500000D03*
X197740000Y-88960000D03*
X197740000Y-86420000D03*
%TD*%
%LPD*%
M02*
