%TF.GenerationSoftware,KiCad,Pcbnew,6.0.0-rc1-unknown-5bf9bd3ebb~144~ubuntu20.04.1*%
%TF.CreationDate,2021-12-20T20:37:31+08:00*%
%TF.ProjectId,kicad-openctd,6b696361-642d-46f7-9065-6e6374642e6b,rev?*%
%TF.SameCoordinates,Original*%
%TF.FileFunction,Copper,L1,Top*%
%TF.FilePolarity,Positive*%
%FSLAX46Y46*%
G04 Gerber Fmt 4.6, Leading zero omitted, Abs format (unit mm)*
G04 Created by KiCad (PCBNEW 6.0.0-rc1-unknown-5bf9bd3ebb~144~ubuntu20.04.1) date 2021-12-20 20:37:31*
%MOMM*%
%LPD*%
G01*
G04 APERTURE LIST*
G04 Aperture macros list*
%AMRoundRect*
0 Rectangle with rounded corners*
0 $1 Rounding radius*
0 $2 $3 $4 $5 $6 $7 $8 $9 X,Y pos of 4 corners*
0 Add a 4 corners polygon primitive as box body*
4,1,4,$2,$3,$4,$5,$6,$7,$8,$9,$2,$3,0*
0 Add four circle primitives for the rounded corners*
1,1,$1+$1,$2,$3*
1,1,$1+$1,$4,$5*
1,1,$1+$1,$6,$7*
1,1,$1+$1,$8,$9*
0 Add four rect primitives between the rounded corners*
20,1,$1+$1,$2,$3,$4,$5,0*
20,1,$1+$1,$4,$5,$6,$7,0*
20,1,$1+$1,$6,$7,$8,$9,0*
20,1,$1+$1,$8,$9,$2,$3,0*%
G04 Aperture macros list end*
%TA.AperFunction,ComponentPad*%
%ADD10C,1.600000*%
%TD*%
%TA.AperFunction,ComponentPad*%
%ADD11O,1.600000X1.600000*%
%TD*%
%TA.AperFunction,ComponentPad*%
%ADD12R,1.600000X1.600000*%
%TD*%
%TA.AperFunction,ComponentPad*%
%ADD13R,1.651000X1.651000*%
%TD*%
%TA.AperFunction,ComponentPad*%
%ADD14C,1.651000*%
%TD*%
%TA.AperFunction,ComponentPad*%
%ADD15R,1.700000X1.700000*%
%TD*%
%TA.AperFunction,ComponentPad*%
%ADD16O,1.700000X1.700000*%
%TD*%
%TA.AperFunction,ComponentPad*%
%ADD17RoundRect,0.250000X0.625000X-0.350000X0.625000X0.350000X-0.625000X0.350000X-0.625000X-0.350000X0*%
%TD*%
%TA.AperFunction,ComponentPad*%
%ADD18O,1.750000X1.200000*%
%TD*%
%TA.AperFunction,ViaPad*%
%ADD19C,4.400000*%
%TD*%
%TA.AperFunction,ViaPad*%
%ADD20C,1.651000*%
%TD*%
%TA.AperFunction,Conductor*%
%ADD21C,1.016000*%
%TD*%
%TA.AperFunction,Conductor*%
%ADD22C,0.635000*%
%TD*%
G04 APERTURE END LIST*
D10*
%TO.P,R1,1,1*%
%TO.N,+3V3*%
X162794000Y-82900000D03*
D11*
%TO.P,R1,2,2*%
%TO.N,D6*%
X170414000Y-82900000D03*
%TD*%
D12*
%TO.P,U3,1,Rst*%
%TO.N,unconnected-(U3-Pad1)*%
X114700000Y-105385000D03*
D10*
%TO.P,U3,2,3V3*%
%TO.N,+3V3*%
X117240000Y-105385000D03*
%TO.P,U3,3,Aref*%
%TO.N,unconnected-(U3-Pad3)*%
X119780000Y-105385000D03*
%TO.P,U3,4,GND*%
%TO.N,GND*%
X122320000Y-105385000D03*
%TO.P,U3,5,A0*%
%TO.N,unconnected-(U3-Pad5)*%
X124860000Y-105385000D03*
%TO.P,U3,6,A1*%
%TO.N,unconnected-(U3-Pad6)*%
X127400000Y-105385000D03*
%TO.P,U3,7,A2*%
%TO.N,unconnected-(U3-Pad7)*%
X129940000Y-105385000D03*
%TO.P,U3,8,A3*%
%TO.N,unconnected-(U3-Pad8)*%
X132480000Y-105385000D03*
%TO.P,U3,9,A4/D24*%
%TO.N,unconnected-(U3-Pad9)*%
X135020000Y-105385000D03*
%TO.P,U3,10,A5/D25*%
%TO.N,unconnected-(U3-Pad10)*%
X137560000Y-105385000D03*
%TO.P,U3,11,SCK*%
%TO.N,unconnected-(U3-Pad11)*%
X140100000Y-105385000D03*
%TO.P,U3,12,MO*%
%TO.N,unconnected-(U3-Pad12)*%
X142640000Y-105385000D03*
%TO.P,U3,13,MI*%
%TO.N,unconnected-(U3-Pad13)*%
X145180000Y-105385000D03*
%TO.P,U3,14,Rx/D0*%
%TO.N,unconnected-(U3-Pad14)*%
X147720000Y-105385000D03*
%TO.P,U3,15,Tx/D1*%
%TO.N,Tx*%
X150260000Y-105385000D03*
%TO.P,U3,16,NC*%
%TO.N,unconnected-(U3-Pad16)*%
X152800000Y-105385000D03*
%TO.P,U3,17,SDA*%
%TO.N,SDA*%
X152800000Y-85065000D03*
%TO.P,U3,18,SCL*%
%TO.N,SCL*%
X150260000Y-85065000D03*
%TO.P,U3,19,D5*%
%TO.N,unconnected-(U3-Pad19)*%
X147720000Y-85065000D03*
%TO.P,U3,20,D6*%
%TO.N,D6*%
X145180000Y-85065000D03*
%TO.P,U3,21,D9*%
%TO.N,unconnected-(U3-Pad21)*%
X142640000Y-85065000D03*
%TO.P,U3,22,D10*%
%TO.N,unconnected-(U3-Pad22)*%
X140100000Y-85065000D03*
%TO.P,U3,23,D11*%
%TO.N,unconnected-(U3-Pad23)*%
X137560000Y-85065000D03*
%TO.P,U3,24,D12*%
%TO.N,EC_TX*%
X135020000Y-85065000D03*
%TO.P,U3,25,D13*%
%TO.N,EC_RX*%
X132480000Y-85065000D03*
%TO.P,U3,26,USB*%
%TO.N,unconnected-(U3-Pad26)*%
X129940000Y-85065000D03*
%TO.P,U3,27,EN*%
%TO.N,unconnected-(U3-Pad27)*%
X127400000Y-85065000D03*
%TO.P,U3,28,Bat*%
%TO.N,+BATT*%
X124860000Y-85065000D03*
%TD*%
D13*
%TO.P,U2,1,Gnd*%
%TO.N,GND*%
X170355000Y-102559000D03*
D14*
%TO.P,U2,2,Tx/SDA*%
%TO.N,EC_TX*%
X170355000Y-100019000D03*
%TO.P,U2,3,Rx/SCL*%
%TO.N,EC_RX*%
X170355000Y-97479000D03*
D13*
%TO.P,U2,4,PRB*%
%TO.N,PRB0*%
X188135000Y-97479000D03*
D14*
%TO.P,U2,5,PRB*%
%TO.N,PRB1*%
X188135000Y-100019000D03*
%TO.P,U2,6,Vcc*%
%TO.N,+BATT*%
X188135000Y-102559000D03*
%TD*%
D15*
%TO.P,J1,1,Pin_1*%
%TO.N,Net-(J1-Pad1)*%
X103100000Y-105950000D03*
D16*
%TO.P,J1,2,Pin_2*%
%TO.N,Net-(J1-Pad2)*%
X105640000Y-105950000D03*
%TD*%
D15*
%TO.P,J2,1,Pin_1*%
%TO.N,Net-(J1-Pad1)*%
X99270000Y-105950000D03*
D16*
%TO.P,J2,2,Pin_2*%
%TO.N,Net-(J1-Pad2)*%
X99270000Y-103410000D03*
%TO.P,J2,3,Pin_3*%
%TO.N,unconnected-(J2-Pad3)*%
X99270000Y-100870000D03*
%TD*%
D10*
%TO.P,R3,1,1*%
%TO.N,+3V3*%
X175458000Y-87086000D03*
D11*
%TO.P,R3,2,2*%
%TO.N,SDA*%
X183078000Y-87086000D03*
%TD*%
D10*
%TO.P,R2,1,1*%
%TO.N,+3V3*%
X175514000Y-82816000D03*
D11*
%TO.P,R2,2,2*%
%TO.N,SCL*%
X183134000Y-82816000D03*
%TD*%
D13*
%TO.P,U1,1,Vin*%
%TO.N,+3V3*%
X105875000Y-83645000D03*
D14*
%TO.P,U1,2,Gnd*%
%TO.N,GND*%
X105863570Y-86134568D03*
%TO.P,U1,3,SCL*%
%TO.N,SCL*%
X105863570Y-88671711D03*
%TO.P,U1,4,SDA*%
%TO.N,SDA*%
X105863570Y-91265000D03*
%TO.P,U1,5,BAT*%
%TO.N,unconnected-(U1-Pad5)*%
X105863570Y-93805000D03*
%TO.P,U1,6,32K*%
%TO.N,unconnected-(U1-Pad6)*%
X105863570Y-96345000D03*
%TO.P,U1,7,SQW*%
%TO.N,unconnected-(U1-Pad7)*%
X105863570Y-98885000D03*
%TO.P,U1,8,nRST*%
%TO.N,unconnected-(U1-Pad8)*%
X105863570Y-101425000D03*
%TD*%
D17*
%TO.P,J4,1,Pin_1*%
%TO.N,PRB1*%
X201422000Y-100862000D03*
D18*
%TO.P,J4,2,Pin_2*%
%TO.N,PRB0*%
X201422000Y-98862000D03*
%TO.P,J4,3,Pin_3*%
%TO.N,+3V3*%
X201422000Y-96862000D03*
%TO.P,J4,4,Pin_4*%
%TO.N,GND*%
X201422000Y-94862000D03*
%TO.P,J4,5,Pin_5*%
%TO.N,SDA*%
X201422000Y-92862000D03*
%TO.P,J4,6,Pin_6*%
%TO.N,SCL*%
X201422000Y-90862000D03*
%TO.P,J4,7,Pin_7*%
%TO.N,D6*%
X201422000Y-88862000D03*
%TD*%
D15*
%TO.P,J3,1,Pin_1*%
%TO.N,PRB1*%
X197740000Y-104200000D03*
D16*
%TO.P,J3,2,Pin_2*%
%TO.N,PRB0*%
X197740000Y-101660000D03*
%TO.P,J3,3,Pin_3*%
%TO.N,unconnected-(J3-Pad3)*%
X197740000Y-99120000D03*
%TO.P,J3,4,Pin_4*%
%TO.N,+3V3*%
X197740000Y-96580000D03*
%TO.P,J3,5,Pin_5*%
%TO.N,GND*%
X197740000Y-94040000D03*
%TO.P,J3,6,Pin_6*%
%TO.N,SDA*%
X197740000Y-91500000D03*
%TO.P,J3,7,Pin_7*%
%TO.N,SCL*%
X197740000Y-88960000D03*
%TO.P,J3,8,Pin_8*%
%TO.N,D6*%
X197740000Y-86420000D03*
%TD*%
D19*
%TO.N,*%
X97750000Y-94000000D03*
D20*
%TO.N,SDA*%
X192278000Y-88086000D03*
%TD*%
D21*
%TO.N,+3V3*%
X105875000Y-83645000D02*
X116343489Y-94113489D01*
X116343489Y-104488489D02*
X117240000Y-105385000D01*
D22*
X164516000Y-84622000D02*
X175400000Y-84622000D01*
D21*
X201422000Y-96862000D02*
X198274000Y-96862000D01*
D22*
X195326000Y-93914000D02*
X197992000Y-96580000D01*
X175514000Y-82816000D02*
X175514000Y-84736000D01*
X192278000Y-85622000D02*
X195326000Y-88670000D01*
D21*
X198274000Y-96862000D02*
X197992000Y-96580000D01*
X116343489Y-94113489D02*
X116343489Y-104488489D01*
D22*
X192278000Y-85622000D02*
X175628000Y-85622000D01*
X175628000Y-85622000D02*
X175514000Y-85736000D01*
X162794000Y-82900000D02*
X164516000Y-84622000D01*
X175514000Y-84736000D02*
X175514000Y-85736000D01*
X175514000Y-85736000D02*
X175514000Y-87030000D01*
X175400000Y-84622000D02*
X175514000Y-84736000D01*
X195326000Y-88670000D02*
X195326000Y-93914000D01*
X175514000Y-87030000D02*
X175458000Y-87086000D01*
%TO.N,D6*%
X200434000Y-88862000D02*
X197992000Y-86420000D01*
X201422000Y-88862000D02*
X200434000Y-88862000D01*
%TO.N,SCL*%
X183134000Y-82816000D02*
X191848000Y-82816000D01*
X181318000Y-81000000D02*
X183134000Y-82816000D01*
X150260000Y-83815000D02*
X150260000Y-85065000D01*
X199894000Y-90862000D02*
X201422000Y-90862000D01*
X153075000Y-81000000D02*
X150260000Y-83815000D01*
X153075000Y-81000000D02*
X181318000Y-81000000D01*
X191848000Y-82816000D02*
X199894000Y-90862000D01*
%TO.N,SDA*%
X163408000Y-87908000D02*
X173466000Y-87908000D01*
X154365000Y-83500000D02*
X159000000Y-83500000D01*
X199354000Y-92862000D02*
X197992000Y-91500000D01*
X173466000Y-87908000D02*
X174244000Y-88686000D01*
X191278000Y-87086000D02*
X192278000Y-88086000D01*
X152800000Y-85065000D02*
X154365000Y-83500000D01*
X174244000Y-88686000D02*
X181478000Y-88686000D01*
X181478000Y-88686000D02*
X183078000Y-87086000D01*
X159000000Y-83500000D02*
X163408000Y-87908000D01*
X183078000Y-87086000D02*
X191278000Y-87086000D01*
X201422000Y-92862000D02*
X199354000Y-92862000D01*
D21*
%TO.N,Net-(J1-Pad1)*%
X103100000Y-105950000D02*
X99270000Y-105950000D01*
%TO.N,Net-(J1-Pad2)*%
X104302081Y-103410000D02*
X99270000Y-103410000D01*
X105640000Y-105950000D02*
X105640000Y-104747919D01*
X105640000Y-104747919D02*
X104302081Y-103410000D01*
D22*
%TO.N,PRB1*%
X190135000Y-100019000D02*
X194316000Y-104200000D01*
X188135000Y-100019000D02*
X190135000Y-100019000D01*
X201422000Y-100862000D02*
X201330000Y-100862000D01*
X197992000Y-104200000D02*
X194316000Y-104200000D01*
X201330000Y-100862000D02*
X197992000Y-104200000D01*
%TO.N,PRB0*%
X188135000Y-97479000D02*
X190135000Y-97479000D01*
X200790000Y-98862000D02*
X197992000Y-101660000D01*
X197992000Y-101660000D02*
X194316000Y-101660000D01*
X190135000Y-97479000D02*
X194316000Y-101660000D01*
X201422000Y-98862000D02*
X200790000Y-98862000D01*
D21*
%TO.N,GND*%
X201422000Y-94862000D02*
X198814000Y-94862000D01*
X198814000Y-94862000D02*
X197992000Y-94040000D01*
D22*
%TO.N,EC_TX*%
X135020000Y-85065000D02*
X136573000Y-86618000D01*
X152888000Y-86618000D02*
X155194000Y-88924000D01*
X171958000Y-98416000D02*
X170355000Y-100019000D01*
X171958000Y-91718000D02*
X171958000Y-98416000D01*
X136573000Y-86618000D02*
X152888000Y-86618000D01*
X169164000Y-88924000D02*
X171958000Y-91718000D01*
X155194000Y-88924000D02*
X169164000Y-88924000D01*
%TO.N,EC_RX*%
X170355000Y-91893000D02*
X170355000Y-97479000D01*
X135049000Y-87634000D02*
X152380000Y-87634000D01*
X132480000Y-85065000D02*
X135049000Y-87634000D01*
X168402000Y-89940000D02*
X170355000Y-91893000D01*
X154686000Y-89940000D02*
X168402000Y-89940000D01*
X152380000Y-87634000D02*
X154686000Y-89940000D01*
D21*
%TO.N,+BATT*%
X154178000Y-91210000D02*
X166370000Y-91210000D01*
X168402000Y-103878000D02*
X168910000Y-104386000D01*
X168402000Y-93242000D02*
X168402000Y-103878000D01*
X166370000Y-91210000D02*
X168402000Y-93242000D01*
X168910000Y-104386000D02*
X186308000Y-104386000D01*
X124860000Y-85065000D02*
X124860000Y-85748000D01*
X134620000Y-88904000D02*
X151872000Y-88904000D01*
X186308000Y-104386000D02*
X188135000Y-102559000D01*
X125984000Y-86872000D02*
X132588000Y-86872000D01*
X124860000Y-85748000D02*
X125984000Y-86872000D01*
X132588000Y-86872000D02*
X134620000Y-88904000D01*
X151872000Y-88904000D02*
X154178000Y-91210000D01*
%TD*%
M02*
