%TF.GenerationSoftware,KiCad,Pcbnew,6.0.0-rc1-unknown-5bf9bd3ebb~144~ubuntu20.04.1*%
%TF.CreationDate,2021-12-20T20:37:32+08:00*%
%TF.ProjectId,kicad-openctd,6b696361-642d-46f7-9065-6e6374642e6b,rev?*%
%TF.SameCoordinates,Original*%
%TF.FileFunction,Copper,L2,Bot*%
%TF.FilePolarity,Positive*%
%FSLAX46Y46*%
G04 Gerber Fmt 4.6, Leading zero omitted, Abs format (unit mm)*
G04 Created by KiCad (PCBNEW 6.0.0-rc1-unknown-5bf9bd3ebb~144~ubuntu20.04.1) date 2021-12-20 20:37:32*
%MOMM*%
%LPD*%
G01*
G04 APERTURE LIST*
G04 Aperture macros list*
%AMRoundRect*
0 Rectangle with rounded corners*
0 $1 Rounding radius*
0 $2 $3 $4 $5 $6 $7 $8 $9 X,Y pos of 4 corners*
0 Add a 4 corners polygon primitive as box body*
4,1,4,$2,$3,$4,$5,$6,$7,$8,$9,$2,$3,0*
0 Add four circle primitives for the rounded corners*
1,1,$1+$1,$2,$3*
1,1,$1+$1,$4,$5*
1,1,$1+$1,$6,$7*
1,1,$1+$1,$8,$9*
0 Add four rect primitives between the rounded corners*
20,1,$1+$1,$2,$3,$4,$5,0*
20,1,$1+$1,$4,$5,$6,$7,0*
20,1,$1+$1,$6,$7,$8,$9,0*
20,1,$1+$1,$8,$9,$2,$3,0*%
G04 Aperture macros list end*
%TA.AperFunction,ComponentPad*%
%ADD10C,1.600000*%
%TD*%
%TA.AperFunction,ComponentPad*%
%ADD11O,1.600000X1.600000*%
%TD*%
%TA.AperFunction,ComponentPad*%
%ADD12R,1.600000X1.600000*%
%TD*%
%TA.AperFunction,ComponentPad*%
%ADD13R,1.651000X1.651000*%
%TD*%
%TA.AperFunction,ComponentPad*%
%ADD14C,1.651000*%
%TD*%
%TA.AperFunction,ComponentPad*%
%ADD15R,1.700000X1.700000*%
%TD*%
%TA.AperFunction,ComponentPad*%
%ADD16O,1.700000X1.700000*%
%TD*%
%TA.AperFunction,ComponentPad*%
%ADD17RoundRect,0.250000X0.625000X-0.350000X0.625000X0.350000X-0.625000X0.350000X-0.625000X-0.350000X0*%
%TD*%
%TA.AperFunction,ComponentPad*%
%ADD18O,1.750000X1.200000*%
%TD*%
%TA.AperFunction,ViaPad*%
%ADD19C,4.400000*%
%TD*%
%TA.AperFunction,ViaPad*%
%ADD20C,1.651000*%
%TD*%
%TA.AperFunction,Conductor*%
%ADD21C,1.016000*%
%TD*%
%TA.AperFunction,Conductor*%
%ADD22C,0.635000*%
%TD*%
G04 APERTURE END LIST*
D10*
%TO.P,R1,1,1*%
%TO.N,+3V3*%
X162794000Y-82900000D03*
D11*
%TO.P,R1,2,2*%
%TO.N,D6*%
X170414000Y-82900000D03*
%TD*%
D12*
%TO.P,U3,1,Rst*%
%TO.N,unconnected-(U3-Pad1)*%
X114700000Y-105385000D03*
D10*
%TO.P,U3,2,3V3*%
%TO.N,+3V3*%
X117240000Y-105385000D03*
%TO.P,U3,3,Aref*%
%TO.N,unconnected-(U3-Pad3)*%
X119780000Y-105385000D03*
%TO.P,U3,4,GND*%
%TO.N,GND*%
X122320000Y-105385000D03*
%TO.P,U3,5,A0*%
%TO.N,unconnected-(U3-Pad5)*%
X124860000Y-105385000D03*
%TO.P,U3,6,A1*%
%TO.N,unconnected-(U3-Pad6)*%
X127400000Y-105385000D03*
%TO.P,U3,7,A2*%
%TO.N,unconnected-(U3-Pad7)*%
X129940000Y-105385000D03*
%TO.P,U3,8,A3*%
%TO.N,unconnected-(U3-Pad8)*%
X132480000Y-105385000D03*
%TO.P,U3,9,A4/D24*%
%TO.N,unconnected-(U3-Pad9)*%
X135020000Y-105385000D03*
%TO.P,U3,10,A5/D25*%
%TO.N,unconnected-(U3-Pad10)*%
X137560000Y-105385000D03*
%TO.P,U3,11,SCK*%
%TO.N,unconnected-(U3-Pad11)*%
X140100000Y-105385000D03*
%TO.P,U3,12,MO*%
%TO.N,unconnected-(U3-Pad12)*%
X142640000Y-105385000D03*
%TO.P,U3,13,MI*%
%TO.N,unconnected-(U3-Pad13)*%
X145180000Y-105385000D03*
%TO.P,U3,14,Rx/D0*%
%TO.N,unconnected-(U3-Pad14)*%
X147720000Y-105385000D03*
%TO.P,U3,15,Tx/D1*%
%TO.N,Tx*%
X150260000Y-105385000D03*
%TO.P,U3,16,NC*%
%TO.N,unconnected-(U3-Pad16)*%
X152800000Y-105385000D03*
%TO.P,U3,17,SDA*%
%TO.N,SDA*%
X152800000Y-85065000D03*
%TO.P,U3,18,SCL*%
%TO.N,SCL*%
X150260000Y-85065000D03*
%TO.P,U3,19,D5*%
%TO.N,unconnected-(U3-Pad19)*%
X147720000Y-85065000D03*
%TO.P,U3,20,D6*%
%TO.N,D6*%
X145180000Y-85065000D03*
%TO.P,U3,21,D9*%
%TO.N,unconnected-(U3-Pad21)*%
X142640000Y-85065000D03*
%TO.P,U3,22,D10*%
%TO.N,unconnected-(U3-Pad22)*%
X140100000Y-85065000D03*
%TO.P,U3,23,D11*%
%TO.N,unconnected-(U3-Pad23)*%
X137560000Y-85065000D03*
%TO.P,U3,24,D12*%
%TO.N,EC_TX*%
X135020000Y-85065000D03*
%TO.P,U3,25,D13*%
%TO.N,EC_RX*%
X132480000Y-85065000D03*
%TO.P,U3,26,USB*%
%TO.N,unconnected-(U3-Pad26)*%
X129940000Y-85065000D03*
%TO.P,U3,27,EN*%
%TO.N,unconnected-(U3-Pad27)*%
X127400000Y-85065000D03*
%TO.P,U3,28,Bat*%
%TO.N,+BATT*%
X124860000Y-85065000D03*
%TD*%
D13*
%TO.P,U2,1,Gnd*%
%TO.N,GND*%
X170355000Y-102559000D03*
D14*
%TO.P,U2,2,Tx/SDA*%
%TO.N,EC_TX*%
X170355000Y-100019000D03*
%TO.P,U2,3,Rx/SCL*%
%TO.N,EC_RX*%
X170355000Y-97479000D03*
D13*
%TO.P,U2,4,PRB*%
%TO.N,PRB0*%
X188135000Y-97479000D03*
D14*
%TO.P,U2,5,PRB*%
%TO.N,PRB1*%
X188135000Y-100019000D03*
%TO.P,U2,6,Vcc*%
%TO.N,+BATT*%
X188135000Y-102559000D03*
%TD*%
D15*
%TO.P,J1,1,Pin_1*%
%TO.N,Net-(J1-Pad1)*%
X103100000Y-105950000D03*
D16*
%TO.P,J1,2,Pin_2*%
%TO.N,Net-(J1-Pad2)*%
X105640000Y-105950000D03*
%TD*%
D15*
%TO.P,J2,1,Pin_1*%
%TO.N,Net-(J1-Pad1)*%
X99270000Y-105950000D03*
D16*
%TO.P,J2,2,Pin_2*%
%TO.N,Net-(J1-Pad2)*%
X99270000Y-103410000D03*
%TO.P,J2,3,Pin_3*%
%TO.N,unconnected-(J2-Pad3)*%
X99270000Y-100870000D03*
%TD*%
D10*
%TO.P,R3,1,1*%
%TO.N,+3V3*%
X175458000Y-87086000D03*
D11*
%TO.P,R3,2,2*%
%TO.N,SDA*%
X183078000Y-87086000D03*
%TD*%
D10*
%TO.P,R2,1,1*%
%TO.N,+3V3*%
X175514000Y-82816000D03*
D11*
%TO.P,R2,2,2*%
%TO.N,SCL*%
X183134000Y-82816000D03*
%TD*%
D13*
%TO.P,U1,1,Vin*%
%TO.N,+3V3*%
X105875000Y-83645000D03*
D14*
%TO.P,U1,2,Gnd*%
%TO.N,GND*%
X105863570Y-86134568D03*
%TO.P,U1,3,SCL*%
%TO.N,SCL*%
X105863570Y-88671711D03*
%TO.P,U1,4,SDA*%
%TO.N,SDA*%
X105863570Y-91265000D03*
%TO.P,U1,5,BAT*%
%TO.N,unconnected-(U1-Pad5)*%
X105863570Y-93805000D03*
%TO.P,U1,6,32K*%
%TO.N,unconnected-(U1-Pad6)*%
X105863570Y-96345000D03*
%TO.P,U1,7,SQW*%
%TO.N,unconnected-(U1-Pad7)*%
X105863570Y-98885000D03*
%TO.P,U1,8,nRST*%
%TO.N,unconnected-(U1-Pad8)*%
X105863570Y-101425000D03*
%TD*%
D17*
%TO.P,J4,1,Pin_1*%
%TO.N,PRB1*%
X201422000Y-100862000D03*
D18*
%TO.P,J4,2,Pin_2*%
%TO.N,PRB0*%
X201422000Y-98862000D03*
%TO.P,J4,3,Pin_3*%
%TO.N,+3V3*%
X201422000Y-96862000D03*
%TO.P,J4,4,Pin_4*%
%TO.N,GND*%
X201422000Y-94862000D03*
%TO.P,J4,5,Pin_5*%
%TO.N,SDA*%
X201422000Y-92862000D03*
%TO.P,J4,6,Pin_6*%
%TO.N,SCL*%
X201422000Y-90862000D03*
%TO.P,J4,7,Pin_7*%
%TO.N,D6*%
X201422000Y-88862000D03*
%TD*%
D15*
%TO.P,J3,1,Pin_1*%
%TO.N,PRB1*%
X197740000Y-104200000D03*
D16*
%TO.P,J3,2,Pin_2*%
%TO.N,PRB0*%
X197740000Y-101660000D03*
%TO.P,J3,3,Pin_3*%
%TO.N,unconnected-(J3-Pad3)*%
X197740000Y-99120000D03*
%TO.P,J3,4,Pin_4*%
%TO.N,+3V3*%
X197740000Y-96580000D03*
%TO.P,J3,5,Pin_5*%
%TO.N,GND*%
X197740000Y-94040000D03*
%TO.P,J3,6,Pin_6*%
%TO.N,SDA*%
X197740000Y-91500000D03*
%TO.P,J3,7,Pin_7*%
%TO.N,SCL*%
X197740000Y-88960000D03*
%TO.P,J3,8,Pin_8*%
%TO.N,D6*%
X197740000Y-86420000D03*
%TD*%
D19*
%TO.N,*%
X97750000Y-94000000D03*
D20*
%TO.N,SDA*%
X192278000Y-88086000D03*
%TD*%
D21*
%TO.N,+3V3*%
X119555000Y-107700000D02*
X192044000Y-107700000D01*
X196814000Y-96580000D02*
X197992000Y-96580000D01*
X195834000Y-103910000D02*
X195834000Y-97560000D01*
X195834000Y-97560000D02*
X196814000Y-96580000D01*
X192044000Y-107700000D02*
X195834000Y-103910000D01*
X117240000Y-105385000D02*
X119555000Y-107700000D01*
D22*
%TO.N,D6*%
X172314000Y-81000000D02*
X192320000Y-81000000D01*
X168514000Y-81000000D02*
X170414000Y-82900000D01*
X170414000Y-82900000D02*
X172314000Y-81000000D01*
X192320000Y-81000000D02*
X197740000Y-86420000D01*
X147995000Y-81000000D02*
X145180000Y-83815000D01*
X145180000Y-83815000D02*
X145180000Y-85065000D01*
X147995000Y-81000000D02*
X168514000Y-81000000D01*
%TO.N,SCL*%
X148707000Y-86618000D02*
X150260000Y-85065000D01*
X115597281Y-86618000D02*
X148707000Y-86618000D01*
X105863570Y-88671711D02*
X113543570Y-88671711D01*
X113543570Y-88671711D02*
X115597281Y-86618000D01*
%TO.N,SDA*%
X105863570Y-91265000D02*
X113543570Y-91265000D01*
X117174570Y-87634000D02*
X150231000Y-87634000D01*
X113543570Y-91265000D02*
X117174570Y-87634000D01*
X194578000Y-88086000D02*
X197992000Y-91500000D01*
X150231000Y-87634000D02*
X152800000Y-85065000D01*
X192278000Y-88086000D02*
X194578000Y-88086000D01*
%TD*%
%TA.AperFunction,Conductor*%
%TO.N,GND*%
G36*
X193970057Y-78509500D02*
G01*
X193984858Y-78511805D01*
X193984861Y-78511805D01*
X193993730Y-78513186D01*
X194002632Y-78512022D01*
X194002634Y-78512022D01*
X194011974Y-78510800D01*
X194016810Y-78510168D01*
X194037103Y-78509166D01*
X194121046Y-78511804D01*
X194592050Y-78526606D01*
X194599950Y-78527103D01*
X194935627Y-78558834D01*
X195185729Y-78582475D01*
X195193564Y-78583465D01*
X195774718Y-78675510D01*
X195782486Y-78676993D01*
X196356707Y-78805347D01*
X196364374Y-78807315D01*
X196634915Y-78885914D01*
X196929399Y-78971470D01*
X196936902Y-78973908D01*
X197490528Y-79173225D01*
X197497856Y-79176127D01*
X198037876Y-79409814D01*
X198045008Y-79413170D01*
X198481378Y-79635512D01*
X198569277Y-79680299D01*
X198576213Y-79684112D01*
X199082669Y-79983629D01*
X199089352Y-79987871D01*
X199575985Y-80318586D01*
X199582376Y-80323228D01*
X200047315Y-80683872D01*
X200053394Y-80688902D01*
X200494756Y-81078015D01*
X200500526Y-81083434D01*
X200916566Y-81499474D01*
X200921985Y-81505244D01*
X201311098Y-81946606D01*
X201316128Y-81952685D01*
X201676772Y-82417624D01*
X201681414Y-82424015D01*
X202012129Y-82910648D01*
X202016371Y-82917331D01*
X202315888Y-83423787D01*
X202319701Y-83430723D01*
X202586830Y-83954992D01*
X202590186Y-83962124D01*
X202823873Y-84502144D01*
X202826775Y-84509472D01*
X203026019Y-85062894D01*
X203026088Y-85063085D01*
X203028530Y-85070601D01*
X203059337Y-85176638D01*
X203192685Y-85635626D01*
X203194653Y-85643293D01*
X203323007Y-86217514D01*
X203324490Y-86225282D01*
X203410329Y-86767248D01*
X203416534Y-86806427D01*
X203417525Y-86814271D01*
X203427896Y-86923983D01*
X203472897Y-87400050D01*
X203473394Y-87407950D01*
X203490596Y-87955332D01*
X203489158Y-87978673D01*
X203486814Y-87993730D01*
X203487978Y-88002632D01*
X203487978Y-88002635D01*
X203490936Y-88025251D01*
X203492000Y-88041589D01*
X203492000Y-100950672D01*
X203490500Y-100970056D01*
X203486814Y-100993730D01*
X203487978Y-101002632D01*
X203487978Y-101002634D01*
X203489832Y-101016808D01*
X203490834Y-101037104D01*
X203473394Y-101592050D01*
X203472897Y-101599950D01*
X203446643Y-101877688D01*
X203420818Y-102150897D01*
X203417526Y-102185720D01*
X203416535Y-102193564D01*
X203324491Y-102774711D01*
X203323007Y-102782486D01*
X203194653Y-103356707D01*
X203192685Y-103364374D01*
X203127726Y-103587966D01*
X203032292Y-103916453D01*
X203028534Y-103929387D01*
X203026092Y-103936902D01*
X202826775Y-104490528D01*
X202823873Y-104497856D01*
X202590186Y-105037876D01*
X202586830Y-105045008D01*
X202402854Y-105406081D01*
X202319701Y-105569277D01*
X202315888Y-105576213D01*
X202016371Y-106082669D01*
X202012129Y-106089352D01*
X201681414Y-106575985D01*
X201676772Y-106582376D01*
X201316128Y-107047315D01*
X201311098Y-107053394D01*
X200921985Y-107494756D01*
X200916566Y-107500526D01*
X200500526Y-107916566D01*
X200494756Y-107921985D01*
X200053394Y-108311098D01*
X200047315Y-108316128D01*
X199582376Y-108676772D01*
X199575985Y-108681414D01*
X199089352Y-109012129D01*
X199082669Y-109016371D01*
X198576213Y-109315888D01*
X198569277Y-109319701D01*
X198045008Y-109586830D01*
X198037876Y-109590186D01*
X197497856Y-109823873D01*
X197490528Y-109826775D01*
X196936902Y-110026092D01*
X196929399Y-110028530D01*
X196634915Y-110114086D01*
X196364374Y-110192685D01*
X196356707Y-110194653D01*
X195782486Y-110323007D01*
X195774718Y-110324490D01*
X195193564Y-110416535D01*
X195185729Y-110417525D01*
X194935627Y-110441166D01*
X194599950Y-110472897D01*
X194592050Y-110473394D01*
X194044668Y-110490596D01*
X194021327Y-110489158D01*
X194017589Y-110488576D01*
X194006270Y-110486814D01*
X193997368Y-110487978D01*
X193997365Y-110487978D01*
X193974749Y-110490936D01*
X193958411Y-110492000D01*
X104049328Y-110492000D01*
X104029943Y-110490500D01*
X104015142Y-110488195D01*
X104015139Y-110488195D01*
X104006270Y-110486814D01*
X103997368Y-110487978D01*
X103997366Y-110487978D01*
X103988345Y-110489158D01*
X103983190Y-110489832D01*
X103962897Y-110490834D01*
X103872017Y-110487978D01*
X103407950Y-110473394D01*
X103400050Y-110472897D01*
X103064373Y-110441166D01*
X102814271Y-110417525D01*
X102806436Y-110416535D01*
X102225282Y-110324490D01*
X102217514Y-110323007D01*
X101643293Y-110194653D01*
X101635626Y-110192685D01*
X101365085Y-110114086D01*
X101070601Y-110028530D01*
X101063098Y-110026092D01*
X100509472Y-109826775D01*
X100502144Y-109823873D01*
X99962124Y-109590186D01*
X99954992Y-109586830D01*
X99430723Y-109319701D01*
X99423787Y-109315888D01*
X98917331Y-109016371D01*
X98910648Y-109012129D01*
X98424015Y-108681414D01*
X98417624Y-108676772D01*
X97952685Y-108316128D01*
X97946606Y-108311098D01*
X97505244Y-107921985D01*
X97499474Y-107916566D01*
X97083434Y-107500526D01*
X97078015Y-107494756D01*
X96688902Y-107053394D01*
X96683872Y-107047315D01*
X96323228Y-106582376D01*
X96318586Y-106575985D01*
X95987871Y-106089352D01*
X95983629Y-106082669D01*
X95684112Y-105576213D01*
X95680299Y-105569277D01*
X95597146Y-105406081D01*
X95413170Y-105045008D01*
X95409814Y-105037876D01*
X95176127Y-104497856D01*
X95173225Y-104490528D01*
X94973908Y-103936902D01*
X94971466Y-103929387D01*
X94967709Y-103916453D01*
X94872274Y-103587966D01*
X94810895Y-103376695D01*
X97907251Y-103376695D01*
X97907548Y-103381848D01*
X97907548Y-103381851D01*
X97914067Y-103494903D01*
X97920110Y-103599715D01*
X97921247Y-103604761D01*
X97921248Y-103604767D01*
X97941119Y-103692939D01*
X97969222Y-103817639D01*
X98053266Y-104024616D01*
X98085287Y-104076869D01*
X98129957Y-104149764D01*
X98169987Y-104215088D01*
X98316250Y-104383938D01*
X98320230Y-104387242D01*
X98324981Y-104391187D01*
X98364616Y-104450090D01*
X98366113Y-104521071D01*
X98328997Y-104581593D01*
X98288725Y-104606112D01*
X98221907Y-104631161D01*
X98173295Y-104649385D01*
X98056739Y-104736739D01*
X97969385Y-104853295D01*
X97918255Y-104989684D01*
X97911500Y-105051866D01*
X97911500Y-106848134D01*
X97918255Y-106910316D01*
X97969385Y-107046705D01*
X98056739Y-107163261D01*
X98173295Y-107250615D01*
X98309684Y-107301745D01*
X98371866Y-107308500D01*
X100168134Y-107308500D01*
X100230316Y-107301745D01*
X100366705Y-107250615D01*
X100483261Y-107163261D01*
X100570615Y-107046705D01*
X100621745Y-106910316D01*
X100628500Y-106848134D01*
X101741500Y-106848134D01*
X101748255Y-106910316D01*
X101799385Y-107046705D01*
X101886739Y-107163261D01*
X102003295Y-107250615D01*
X102139684Y-107301745D01*
X102201866Y-107308500D01*
X103998134Y-107308500D01*
X104060316Y-107301745D01*
X104196705Y-107250615D01*
X104313261Y-107163261D01*
X104400615Y-107046705D01*
X104428640Y-106971949D01*
X104444598Y-106929382D01*
X104487240Y-106872618D01*
X104553802Y-106847918D01*
X104623150Y-106863126D01*
X104657817Y-106891114D01*
X104686250Y-106923938D01*
X104858126Y-107066632D01*
X105051000Y-107179338D01*
X105259692Y-107259030D01*
X105264760Y-107260061D01*
X105264763Y-107260062D01*
X105372017Y-107281883D01*
X105478597Y-107303567D01*
X105483772Y-107303757D01*
X105483774Y-107303757D01*
X105696673Y-107311564D01*
X105696677Y-107311564D01*
X105701837Y-107311753D01*
X105706957Y-107311097D01*
X105706959Y-107311097D01*
X105918288Y-107284025D01*
X105918289Y-107284025D01*
X105923416Y-107283368D01*
X105928366Y-107281883D01*
X106132429Y-107220661D01*
X106132434Y-107220659D01*
X106137384Y-107219174D01*
X106337994Y-107120896D01*
X106519860Y-106991173D01*
X106678096Y-106833489D01*
X106808453Y-106652077D01*
X106811163Y-106646595D01*
X106905136Y-106456453D01*
X106905137Y-106456451D01*
X106907430Y-106451811D01*
X106972370Y-106238069D01*
X106973020Y-106233134D01*
X113391500Y-106233134D01*
X113398255Y-106295316D01*
X113449385Y-106431705D01*
X113536739Y-106548261D01*
X113653295Y-106635615D01*
X113789684Y-106686745D01*
X113851866Y-106693500D01*
X115548134Y-106693500D01*
X115610316Y-106686745D01*
X115746705Y-106635615D01*
X115863261Y-106548261D01*
X115950615Y-106431705D01*
X116001745Y-106295316D01*
X116002917Y-106284526D01*
X116003803Y-106282394D01*
X116004425Y-106279778D01*
X116004848Y-106279879D01*
X116030155Y-106218965D01*
X116088517Y-106178537D01*
X116159471Y-106176078D01*
X116220490Y-106212371D01*
X116227489Y-106221031D01*
X116230643Y-106224789D01*
X116233802Y-106229300D01*
X116395700Y-106391198D01*
X116400208Y-106394355D01*
X116400211Y-106394357D01*
X116463812Y-106438891D01*
X116583251Y-106522523D01*
X116588233Y-106524846D01*
X116588238Y-106524849D01*
X116770508Y-106609842D01*
X116790757Y-106619284D01*
X116796065Y-106620706D01*
X116796067Y-106620707D01*
X116863468Y-106638767D01*
X117011913Y-106678543D01*
X117041728Y-106681152D01*
X117058373Y-106682608D01*
X117124491Y-106708471D01*
X117136485Y-106719033D01*
X118792185Y-108374733D01*
X118801286Y-108384875D01*
X118825225Y-108414649D01*
X118864002Y-108447187D01*
X118867629Y-108450351D01*
X118869498Y-108452046D01*
X118871692Y-108454240D01*
X118905258Y-108481812D01*
X118906055Y-108482474D01*
X118977933Y-108542786D01*
X118982639Y-108545373D01*
X118986789Y-108548782D01*
X118992218Y-108551693D01*
X118992221Y-108551695D01*
X119069394Y-108593075D01*
X119070552Y-108593704D01*
X119147214Y-108635849D01*
X119147218Y-108635851D01*
X119152621Y-108638821D01*
X119157739Y-108640444D01*
X119162473Y-108642983D01*
X119252023Y-108670361D01*
X119253227Y-108670736D01*
X119342635Y-108699098D01*
X119347978Y-108699697D01*
X119353109Y-108701266D01*
X119359234Y-108701888D01*
X119359238Y-108701889D01*
X119401440Y-108706175D01*
X119446341Y-108710736D01*
X119447461Y-108710856D01*
X119497784Y-108716500D01*
X119501290Y-108716500D01*
X119502416Y-108716563D01*
X119508112Y-108717011D01*
X119545305Y-108720789D01*
X119545311Y-108720789D01*
X119551434Y-108721411D01*
X119597476Y-108717059D01*
X119609333Y-108716500D01*
X191981724Y-108716500D01*
X191995332Y-108717237D01*
X192027179Y-108720697D01*
X192027183Y-108720697D01*
X192033304Y-108721362D01*
X192070172Y-108718137D01*
X192083690Y-108716954D01*
X192088518Y-108716625D01*
X192091073Y-108716500D01*
X192094157Y-108716500D01*
X192109531Y-108714992D01*
X192137219Y-108712278D01*
X192138532Y-108712156D01*
X192178629Y-108708648D01*
X192231892Y-108703988D01*
X192237052Y-108702489D01*
X192242394Y-108701965D01*
X192332096Y-108674883D01*
X192333236Y-108674545D01*
X192423322Y-108648372D01*
X192428090Y-108645900D01*
X192433232Y-108644348D01*
X192438677Y-108641453D01*
X192438684Y-108641450D01*
X192515950Y-108600367D01*
X192517054Y-108599787D01*
X192600304Y-108556634D01*
X192604503Y-108553282D01*
X192609244Y-108550761D01*
X192623880Y-108538824D01*
X192681829Y-108491562D01*
X192682855Y-108490734D01*
X192719564Y-108461429D01*
X192719565Y-108461428D01*
X192722316Y-108459232D01*
X192724811Y-108456737D01*
X192725605Y-108456027D01*
X192729960Y-108452307D01*
X192758951Y-108428663D01*
X192758954Y-108428660D01*
X192763726Y-108424768D01*
X192793211Y-108389127D01*
X192801200Y-108380348D01*
X196166719Y-105014829D01*
X196229031Y-104980803D01*
X196299846Y-104985868D01*
X196356682Y-105028415D01*
X196381500Y-105096759D01*
X196381500Y-105098134D01*
X196388255Y-105160316D01*
X196439385Y-105296705D01*
X196526739Y-105413261D01*
X196643295Y-105500615D01*
X196779684Y-105551745D01*
X196841866Y-105558500D01*
X198638134Y-105558500D01*
X198700316Y-105551745D01*
X198836705Y-105500615D01*
X198953261Y-105413261D01*
X199040615Y-105296705D01*
X199091745Y-105160316D01*
X199098500Y-105098134D01*
X199098500Y-103301866D01*
X199091745Y-103239684D01*
X199040615Y-103103295D01*
X198953261Y-102986739D01*
X198836705Y-102899385D01*
X198824132Y-102894672D01*
X198718203Y-102854960D01*
X198661439Y-102812318D01*
X198636739Y-102745756D01*
X198651947Y-102676408D01*
X198673493Y-102647727D01*
X198778096Y-102543489D01*
X198842425Y-102453966D01*
X198905435Y-102366277D01*
X198908453Y-102362077D01*
X198921009Y-102336673D01*
X199005136Y-102166453D01*
X199005137Y-102166451D01*
X199007430Y-102161811D01*
X199072370Y-101948069D01*
X199101529Y-101726590D01*
X199102618Y-101682010D01*
X199103074Y-101663365D01*
X199103074Y-101663361D01*
X199103156Y-101660000D01*
X199084852Y-101437361D01*
X199030431Y-101220702D01*
X198941354Y-101015840D01*
X198844836Y-100866646D01*
X198822822Y-100832617D01*
X198822820Y-100832614D01*
X198820014Y-100828277D01*
X198669670Y-100663051D01*
X198665619Y-100659852D01*
X198665615Y-100659848D01*
X198498414Y-100527800D01*
X198498410Y-100527798D01*
X198494359Y-100524598D01*
X198453053Y-100501796D01*
X198403084Y-100451364D01*
X198388312Y-100381921D01*
X198413428Y-100315516D01*
X198440780Y-100288909D01*
X198522540Y-100230590D01*
X198619860Y-100161173D01*
X198637757Y-100143339D01*
X198704217Y-100077110D01*
X198778096Y-100003489D01*
X198842425Y-99913966D01*
X198905435Y-99826277D01*
X198908453Y-99822077D01*
X198921735Y-99795204D01*
X199005136Y-99626453D01*
X199005137Y-99626451D01*
X199007430Y-99621811D01*
X199072370Y-99408069D01*
X199101529Y-99186590D01*
X199103156Y-99120000D01*
X199084852Y-98897361D01*
X199062307Y-98807604D01*
X200034787Y-98807604D01*
X200044567Y-99018899D01*
X200045971Y-99024724D01*
X200045971Y-99024725D01*
X200084981Y-99186590D01*
X200094125Y-99224534D01*
X200096607Y-99229992D01*
X200096608Y-99229996D01*
X200140053Y-99325546D01*
X200181674Y-99417087D01*
X200271113Y-99543173D01*
X200282381Y-99559057D01*
X200304054Y-99589611D01*
X200308381Y-99593753D01*
X200308386Y-99593759D01*
X200399317Y-99680806D01*
X200434694Y-99742361D01*
X200431175Y-99813270D01*
X200389879Y-99871021D01*
X200378496Y-99878965D01*
X200322652Y-99913522D01*
X200197695Y-100038697D01*
X200193855Y-100044927D01*
X200193854Y-100044928D01*
X200118817Y-100166661D01*
X200104885Y-100189262D01*
X200049203Y-100357139D01*
X200038500Y-100461600D01*
X200038500Y-101262400D01*
X200038837Y-101265646D01*
X200038837Y-101265650D01*
X200040578Y-101282425D01*
X200049474Y-101368166D01*
X200105450Y-101535946D01*
X200198522Y-101686348D01*
X200323697Y-101811305D01*
X200329927Y-101815145D01*
X200329928Y-101815146D01*
X200467090Y-101899694D01*
X200474262Y-101904115D01*
X200504580Y-101914171D01*
X200635611Y-101957632D01*
X200635613Y-101957632D01*
X200642139Y-101959797D01*
X200648975Y-101960497D01*
X200648978Y-101960498D01*
X200692031Y-101964909D01*
X200746600Y-101970500D01*
X202097400Y-101970500D01*
X202100646Y-101970163D01*
X202100650Y-101970163D01*
X202196308Y-101960238D01*
X202196312Y-101960237D01*
X202203166Y-101959526D01*
X202209702Y-101957345D01*
X202209704Y-101957345D01*
X202348097Y-101911173D01*
X202370946Y-101903550D01*
X202521348Y-101810478D01*
X202646305Y-101685303D01*
X202650146Y-101679072D01*
X202735275Y-101540968D01*
X202735276Y-101540966D01*
X202739115Y-101534738D01*
X202777329Y-101419525D01*
X202792632Y-101373389D01*
X202792632Y-101373387D01*
X202794797Y-101366861D01*
X202797780Y-101337752D01*
X202801580Y-101300661D01*
X202805500Y-101262400D01*
X202805500Y-100461600D01*
X202802294Y-100430702D01*
X202795238Y-100362692D01*
X202795237Y-100362688D01*
X202794526Y-100355834D01*
X202738550Y-100188054D01*
X202645478Y-100037652D01*
X202619920Y-100012138D01*
X202525483Y-99917866D01*
X202520303Y-99912695D01*
X202468764Y-99880925D01*
X202421271Y-99828154D01*
X202409847Y-99758082D01*
X202438121Y-99692958D01*
X202457045Y-99674582D01*
X202464920Y-99668396D01*
X202468852Y-99663865D01*
X202468855Y-99663862D01*
X202599621Y-99513167D01*
X202603552Y-99508637D01*
X202606552Y-99503451D01*
X202606555Y-99503447D01*
X202706467Y-99330742D01*
X202709473Y-99325546D01*
X202778861Y-99125729D01*
X202809213Y-98916396D01*
X202799433Y-98705101D01*
X202760318Y-98542797D01*
X202751281Y-98505299D01*
X202751280Y-98505297D01*
X202749875Y-98499466D01*
X202716928Y-98427002D01*
X202683114Y-98352634D01*
X202662326Y-98306913D01*
X202539946Y-98134389D01*
X202387150Y-97988119D01*
X202381255Y-97984312D01*
X202354837Y-97967254D01*
X202308460Y-97913499D01*
X202298507Y-97843203D01*
X202328139Y-97778686D01*
X202345353Y-97762317D01*
X202352446Y-97756746D01*
X202464920Y-97668396D01*
X202468852Y-97663865D01*
X202468855Y-97663862D01*
X202599621Y-97513167D01*
X202603552Y-97508637D01*
X202606552Y-97503451D01*
X202606555Y-97503447D01*
X202706467Y-97330742D01*
X202709473Y-97325546D01*
X202778861Y-97125729D01*
X202798260Y-96991937D01*
X202808352Y-96922336D01*
X202808352Y-96922333D01*
X202809213Y-96916396D01*
X202799433Y-96705101D01*
X202758628Y-96535785D01*
X202751281Y-96505299D01*
X202751280Y-96505297D01*
X202749875Y-96499466D01*
X202706525Y-96404122D01*
X202682981Y-96352342D01*
X202662326Y-96306913D01*
X202539946Y-96134389D01*
X202387150Y-95988119D01*
X202382119Y-95984870D01*
X202382112Y-95984865D01*
X202354393Y-95966967D01*
X202308016Y-95913211D01*
X202298063Y-95842915D01*
X202327696Y-95778398D01*
X202344909Y-95762030D01*
X202459857Y-95671738D01*
X202468506Y-95663501D01*
X202599212Y-95512877D01*
X202606147Y-95503153D01*
X202706010Y-95330533D01*
X202710984Y-95319669D01*
X202776407Y-95131273D01*
X202776648Y-95130284D01*
X202775180Y-95119992D01*
X202761615Y-95116000D01*
X200086598Y-95116000D01*
X200073067Y-95119973D01*
X200071712Y-95129399D01*
X200093194Y-95218537D01*
X200097083Y-95229832D01*
X200179629Y-95411382D01*
X200185576Y-95421724D01*
X200300968Y-95584397D01*
X200308761Y-95593425D01*
X200452831Y-95731342D01*
X200462200Y-95738741D01*
X200489577Y-95756418D01*
X200535955Y-95810172D01*
X200545909Y-95880468D01*
X200516278Y-95944985D01*
X200499063Y-95961356D01*
X200379080Y-96055604D01*
X200375148Y-96060135D01*
X200375145Y-96060138D01*
X200301506Y-96145000D01*
X200240448Y-96215363D01*
X200237448Y-96220549D01*
X200237445Y-96220553D01*
X200158300Y-96357361D01*
X200134527Y-96398454D01*
X200065139Y-96598271D01*
X200064278Y-96604206D01*
X200064278Y-96604208D01*
X200036225Y-96797688D01*
X200034787Y-96807604D01*
X200044567Y-97018899D01*
X200045971Y-97024724D01*
X200045971Y-97024725D01*
X200080374Y-97167474D01*
X200094125Y-97224534D01*
X200096607Y-97229992D01*
X200096608Y-97229996D01*
X200140053Y-97325546D01*
X200181674Y-97417087D01*
X200304054Y-97589611D01*
X200456850Y-97735881D01*
X200461888Y-97739134D01*
X200489163Y-97756746D01*
X200535540Y-97810501D01*
X200545493Y-97880797D01*
X200515861Y-97945314D01*
X200498649Y-97961681D01*
X200379080Y-98055604D01*
X200375148Y-98060135D01*
X200375145Y-98060138D01*
X200298427Y-98148548D01*
X200240448Y-98215363D01*
X200237448Y-98220549D01*
X200237445Y-98220553D01*
X200159069Y-98356031D01*
X200134527Y-98398454D01*
X200065139Y-98598271D01*
X200064278Y-98604206D01*
X200064278Y-98604208D01*
X200041941Y-98758267D01*
X200034787Y-98807604D01*
X199062307Y-98807604D01*
X199030431Y-98680702D01*
X198941354Y-98475840D01*
X198863846Y-98356031D01*
X198822822Y-98292617D01*
X198822820Y-98292614D01*
X198820014Y-98288277D01*
X198669670Y-98123051D01*
X198665619Y-98119852D01*
X198665615Y-98119848D01*
X198498414Y-97987800D01*
X198498410Y-97987798D01*
X198494359Y-97984598D01*
X198453053Y-97961796D01*
X198403084Y-97911364D01*
X198388312Y-97841921D01*
X198413428Y-97775516D01*
X198440780Y-97748909D01*
X198519316Y-97692890D01*
X198619860Y-97621173D01*
X198637757Y-97603339D01*
X198734034Y-97507397D01*
X198778096Y-97463489D01*
X198807928Y-97421974D01*
X198905435Y-97286277D01*
X198908453Y-97282077D01*
X198936893Y-97224534D01*
X199005136Y-97086453D01*
X199005137Y-97086451D01*
X199007430Y-97081811D01*
X199072370Y-96868069D01*
X199101529Y-96646590D01*
X199101611Y-96643240D01*
X199103074Y-96583365D01*
X199103074Y-96583361D01*
X199103156Y-96580000D01*
X199084852Y-96357361D01*
X199030431Y-96140702D01*
X198941354Y-95935840D01*
X198846285Y-95788885D01*
X198822822Y-95752617D01*
X198822820Y-95752614D01*
X198820014Y-95748277D01*
X198669670Y-95583051D01*
X198665619Y-95579852D01*
X198665615Y-95579848D01*
X198498414Y-95447800D01*
X198498410Y-95447798D01*
X198494359Y-95444598D01*
X198452569Y-95421529D01*
X198402598Y-95371097D01*
X198387826Y-95301654D01*
X198412942Y-95235248D01*
X198440294Y-95208641D01*
X198615328Y-95083792D01*
X198623200Y-95077139D01*
X198774052Y-94926812D01*
X198780730Y-94918965D01*
X198905003Y-94746020D01*
X198910313Y-94737183D01*
X199004670Y-94546267D01*
X199008469Y-94536672D01*
X199070377Y-94332910D01*
X199072555Y-94322837D01*
X199073986Y-94311962D01*
X199071775Y-94297778D01*
X199058617Y-94294000D01*
X196423225Y-94294000D01*
X196409694Y-94297973D01*
X196408257Y-94307966D01*
X196438565Y-94442446D01*
X196441645Y-94452275D01*
X196521770Y-94649603D01*
X196526413Y-94658794D01*
X196637694Y-94840388D01*
X196643777Y-94848699D01*
X196783213Y-95009667D01*
X196790580Y-95016883D01*
X196954434Y-95152916D01*
X196962881Y-95158831D01*
X197031969Y-95199203D01*
X197080693Y-95250842D01*
X197093764Y-95320625D01*
X197067033Y-95386396D01*
X197026584Y-95419752D01*
X197013607Y-95426507D01*
X197009474Y-95429610D01*
X197009471Y-95429612D01*
X196868127Y-95535736D01*
X196803459Y-95560496D01*
X196774315Y-95563046D01*
X196769507Y-95563374D01*
X196766931Y-95563500D01*
X196763843Y-95563500D01*
X196744931Y-95565354D01*
X196720665Y-95567733D01*
X196719354Y-95567854D01*
X196632245Y-95575476D01*
X196626108Y-95576013D01*
X196620953Y-95577511D01*
X196615606Y-95578035D01*
X196525771Y-95605158D01*
X196524615Y-95605500D01*
X196440596Y-95629909D01*
X196440590Y-95629911D01*
X196434678Y-95631629D01*
X196429914Y-95634098D01*
X196424768Y-95635652D01*
X196419328Y-95638545D01*
X196419322Y-95638547D01*
X196341976Y-95679673D01*
X196340806Y-95680287D01*
X196263166Y-95720531D01*
X196263161Y-95720534D01*
X196257696Y-95723367D01*
X196253500Y-95726716D01*
X196248756Y-95729239D01*
X196243986Y-95733129D01*
X196243985Y-95733130D01*
X196176095Y-95788500D01*
X196175068Y-95789328D01*
X196135684Y-95820768D01*
X196133191Y-95823261D01*
X196132389Y-95823978D01*
X196128043Y-95827690D01*
X196109376Y-95842915D01*
X196094274Y-95855232D01*
X196090346Y-95859980D01*
X196090345Y-95859981D01*
X196064789Y-95890873D01*
X196056800Y-95899652D01*
X195159267Y-96797185D01*
X195149125Y-96806286D01*
X195119351Y-96830225D01*
X195086813Y-96869002D01*
X195083649Y-96872629D01*
X195081954Y-96874498D01*
X195079760Y-96876692D01*
X195052188Y-96910258D01*
X195051526Y-96911055D01*
X194991214Y-96982933D01*
X194988627Y-96987639D01*
X194985218Y-96991789D01*
X194982310Y-96997213D01*
X194982303Y-96997223D01*
X194940939Y-97074368D01*
X194940310Y-97075528D01*
X194895179Y-97157621D01*
X194893555Y-97162741D01*
X194891017Y-97167474D01*
X194880693Y-97201243D01*
X194863648Y-97256993D01*
X194863256Y-97258252D01*
X194836765Y-97341761D01*
X194834902Y-97347635D01*
X194834303Y-97352973D01*
X194832733Y-97358109D01*
X194832110Y-97364240D01*
X194832110Y-97364241D01*
X194823263Y-97451343D01*
X194823134Y-97452551D01*
X194817500Y-97502784D01*
X194817500Y-97506289D01*
X194817438Y-97507397D01*
X194816990Y-97513092D01*
X194813210Y-97550305D01*
X194813210Y-97550312D01*
X194812588Y-97556435D01*
X194813168Y-97562566D01*
X194816941Y-97602485D01*
X194817500Y-97614343D01*
X194817500Y-103436761D01*
X194797498Y-103504882D01*
X194780595Y-103525856D01*
X191659857Y-106646595D01*
X191597545Y-106680621D01*
X191570762Y-106683500D01*
X153626471Y-106683500D01*
X153558350Y-106663498D01*
X153511857Y-106609842D01*
X153501753Y-106539568D01*
X153531247Y-106474988D01*
X153554200Y-106454287D01*
X153639789Y-106394357D01*
X153639792Y-106394355D01*
X153644300Y-106391198D01*
X153806198Y-106229300D01*
X153937523Y-106041749D01*
X153939846Y-106036767D01*
X153939849Y-106036762D01*
X154031961Y-105839225D01*
X154031961Y-105839224D01*
X154034284Y-105834243D01*
X154054976Y-105757022D01*
X154092119Y-105618402D01*
X154092119Y-105618400D01*
X154093543Y-105613087D01*
X154113498Y-105385000D01*
X154093543Y-105156913D01*
X154092119Y-105151598D01*
X154035707Y-104941067D01*
X154035706Y-104941065D01*
X154034284Y-104935757D01*
X154030448Y-104927530D01*
X153939849Y-104733238D01*
X153939846Y-104733233D01*
X153937523Y-104728251D01*
X153852000Y-104606112D01*
X153809357Y-104545211D01*
X153809355Y-104545208D01*
X153806198Y-104540700D01*
X153644300Y-104378802D01*
X153639792Y-104375645D01*
X153639789Y-104375643D01*
X153528886Y-104297988D01*
X153456749Y-104247477D01*
X153451767Y-104245154D01*
X153451762Y-104245151D01*
X153406144Y-104223879D01*
X154829840Y-104223879D01*
X154865486Y-104485808D01*
X154866795Y-104490298D01*
X154866796Y-104490304D01*
X154882800Y-104545211D01*
X154939457Y-104739590D01*
X154941415Y-104743837D01*
X154941416Y-104743840D01*
X154952304Y-104767457D01*
X155050127Y-104979652D01*
X155056704Y-104989684D01*
X155192499Y-105196805D01*
X155192503Y-105196810D01*
X155195065Y-105200718D01*
X155257948Y-105271172D01*
X155358533Y-105383868D01*
X155371086Y-105397933D01*
X155574324Y-105566964D01*
X155800314Y-105704099D01*
X155804622Y-105705905D01*
X155804623Y-105705906D01*
X156039776Y-105804514D01*
X156039781Y-105804516D01*
X156044091Y-105806323D01*
X156048623Y-105807474D01*
X156048626Y-105807475D01*
X156104197Y-105821588D01*
X156300301Y-105871392D01*
X156519856Y-105893500D01*
X156677108Y-105893500D01*
X156679433Y-105893327D01*
X156679439Y-105893327D01*
X156868964Y-105879243D01*
X156868968Y-105879242D01*
X156873616Y-105878897D01*
X157131441Y-105820557D01*
X157135795Y-105818864D01*
X157373458Y-105726442D01*
X157373460Y-105726441D01*
X157377811Y-105724749D01*
X157382023Y-105722342D01*
X157582767Y-105607607D01*
X157607313Y-105593578D01*
X157814906Y-105429925D01*
X157996030Y-105237385D01*
X158044362Y-105167715D01*
X158144042Y-105024026D01*
X158144045Y-105024021D01*
X158146704Y-105020188D01*
X158163629Y-104985868D01*
X158261555Y-104787294D01*
X158261556Y-104787291D01*
X158263620Y-104783106D01*
X158344209Y-104531347D01*
X158382352Y-104297137D01*
X158385949Y-104275053D01*
X158385949Y-104275052D01*
X158386700Y-104270441D01*
X158389150Y-104083255D01*
X158390099Y-104010798D01*
X158390099Y-104010795D01*
X158390160Y-104006121D01*
X158354514Y-103744192D01*
X158342515Y-103703023D01*
X158313875Y-103604767D01*
X158280543Y-103490410D01*
X158255811Y-103436761D01*
X158252311Y-103429169D01*
X169021501Y-103429169D01*
X169021871Y-103435990D01*
X169027395Y-103486852D01*
X169031021Y-103502104D01*
X169076176Y-103622554D01*
X169084714Y-103638149D01*
X169161215Y-103740224D01*
X169173776Y-103752785D01*
X169275851Y-103829286D01*
X169291446Y-103837824D01*
X169411894Y-103882978D01*
X169427149Y-103886605D01*
X169478014Y-103892131D01*
X169484828Y-103892500D01*
X170082885Y-103892500D01*
X170098124Y-103888025D01*
X170099329Y-103886635D01*
X170101000Y-103878952D01*
X170101000Y-103874384D01*
X170609000Y-103874384D01*
X170613475Y-103889623D01*
X170614865Y-103890828D01*
X170622548Y-103892499D01*
X171225169Y-103892499D01*
X171231990Y-103892129D01*
X171282852Y-103886605D01*
X171298104Y-103882979D01*
X171418554Y-103837824D01*
X171434149Y-103829286D01*
X171536224Y-103752785D01*
X171548785Y-103740224D01*
X171625286Y-103638149D01*
X171633824Y-103622554D01*
X171678978Y-103502106D01*
X171682605Y-103486851D01*
X171688131Y-103435986D01*
X171688500Y-103429172D01*
X171688500Y-102831115D01*
X171684025Y-102815876D01*
X171682635Y-102814671D01*
X171674952Y-102813000D01*
X170627115Y-102813000D01*
X170611876Y-102817475D01*
X170610671Y-102818865D01*
X170609000Y-102826548D01*
X170609000Y-103874384D01*
X170101000Y-103874384D01*
X170101000Y-102831115D01*
X170096525Y-102815876D01*
X170095135Y-102814671D01*
X170087452Y-102813000D01*
X169039616Y-102813000D01*
X169024377Y-102817475D01*
X169023172Y-102818865D01*
X169021501Y-102826548D01*
X169021501Y-103429169D01*
X158252311Y-103429169D01*
X158171830Y-103254594D01*
X158169873Y-103250348D01*
X158107078Y-103154570D01*
X158027501Y-103033195D01*
X158027497Y-103033190D01*
X158024935Y-103029282D01*
X157869347Y-102854960D01*
X157852031Y-102835559D01*
X157852029Y-102835557D01*
X157848914Y-102832067D01*
X157645676Y-102663036D01*
X157474231Y-102559000D01*
X186795904Y-102559000D01*
X186816248Y-102791532D01*
X186817672Y-102796845D01*
X186817672Y-102796847D01*
X186870128Y-102992615D01*
X186876661Y-103016998D01*
X186878983Y-103021978D01*
X186878984Y-103021980D01*
X186972983Y-103223561D01*
X186972986Y-103223566D01*
X186975309Y-103228548D01*
X186978465Y-103233055D01*
X186978466Y-103233057D01*
X187100015Y-103406646D01*
X187109193Y-103419754D01*
X187274246Y-103584807D01*
X187278754Y-103587964D01*
X187278757Y-103587966D01*
X187460943Y-103715534D01*
X187465452Y-103718691D01*
X187470434Y-103721014D01*
X187470439Y-103721017D01*
X187672020Y-103815016D01*
X187677002Y-103817339D01*
X187682310Y-103818761D01*
X187682312Y-103818762D01*
X187897153Y-103876328D01*
X187897155Y-103876328D01*
X187902468Y-103877752D01*
X188135000Y-103898096D01*
X188367532Y-103877752D01*
X188372845Y-103876328D01*
X188372847Y-103876328D01*
X188587688Y-103818762D01*
X188587690Y-103818761D01*
X188592998Y-103817339D01*
X188597980Y-103815016D01*
X188799561Y-103721017D01*
X188799566Y-103721014D01*
X188804548Y-103718691D01*
X188809057Y-103715534D01*
X188991243Y-103587966D01*
X188991246Y-103587964D01*
X188995754Y-103584807D01*
X189160807Y-103419754D01*
X189169986Y-103406646D01*
X189291534Y-103233057D01*
X189291535Y-103233055D01*
X189294691Y-103228548D01*
X189297014Y-103223566D01*
X189297017Y-103223561D01*
X189391016Y-103021980D01*
X189391017Y-103021978D01*
X189393339Y-103016998D01*
X189399873Y-102992615D01*
X189452328Y-102796847D01*
X189452328Y-102796845D01*
X189453752Y-102791532D01*
X189474096Y-102559000D01*
X189453752Y-102326468D01*
X189439185Y-102272104D01*
X189394762Y-102106312D01*
X189394761Y-102106310D01*
X189393339Y-102101002D01*
X189391016Y-102096020D01*
X189297017Y-101894439D01*
X189297014Y-101894434D01*
X189294691Y-101889452D01*
X189260086Y-101840031D01*
X189163966Y-101702757D01*
X189163964Y-101702754D01*
X189160807Y-101698246D01*
X188995754Y-101533193D01*
X188991246Y-101530036D01*
X188991243Y-101530034D01*
X188885750Y-101456167D01*
X188804548Y-101399309D01*
X188801153Y-101397726D01*
X188752534Y-101346734D01*
X188739100Y-101277020D01*
X188765488Y-101211110D01*
X188800983Y-101180353D01*
X188804548Y-101178691D01*
X188965546Y-101065959D01*
X188991243Y-101047966D01*
X188991246Y-101047964D01*
X188995754Y-101044807D01*
X189160807Y-100879754D01*
X189169986Y-100866646D01*
X189291534Y-100693057D01*
X189291535Y-100693055D01*
X189294691Y-100688548D01*
X189297014Y-100683566D01*
X189297017Y-100683561D01*
X189391016Y-100481980D01*
X189391017Y-100481978D01*
X189393339Y-100476998D01*
X189404400Y-100435720D01*
X189452328Y-100256847D01*
X189452328Y-100256845D01*
X189453752Y-100251532D01*
X189474096Y-100019000D01*
X189453752Y-99786468D01*
X189440712Y-99737800D01*
X189394762Y-99566312D01*
X189394761Y-99566310D01*
X189393339Y-99561002D01*
X189391016Y-99556020D01*
X189297017Y-99354439D01*
X189297014Y-99354434D01*
X189294691Y-99349452D01*
X189211047Y-99229996D01*
X189163966Y-99162757D01*
X189163964Y-99162754D01*
X189160807Y-99158246D01*
X189017817Y-99015256D01*
X188983791Y-98952944D01*
X188988856Y-98882129D01*
X189031403Y-98825293D01*
X189071004Y-98806745D01*
X189070816Y-98806245D01*
X189207205Y-98755115D01*
X189323761Y-98667761D01*
X189411115Y-98551205D01*
X189462245Y-98414816D01*
X189469000Y-98352634D01*
X189469000Y-96605366D01*
X189462245Y-96543184D01*
X189411115Y-96406795D01*
X189323761Y-96290239D01*
X189207205Y-96202885D01*
X189070816Y-96151755D01*
X189008634Y-96145000D01*
X187261366Y-96145000D01*
X187199184Y-96151755D01*
X187062795Y-96202885D01*
X186946239Y-96290239D01*
X186858885Y-96406795D01*
X186807755Y-96543184D01*
X186801000Y-96605366D01*
X186801000Y-98352634D01*
X186807755Y-98414816D01*
X186858885Y-98551205D01*
X186946239Y-98667761D01*
X187062795Y-98755115D01*
X187192546Y-98803757D01*
X187192547Y-98803757D01*
X187199184Y-98806245D01*
X187198782Y-98807319D01*
X187253880Y-98838796D01*
X187286701Y-98901751D01*
X187280275Y-98972456D01*
X187252183Y-99015256D01*
X187109193Y-99158246D01*
X187106036Y-99162754D01*
X187106034Y-99162757D01*
X187058953Y-99229996D01*
X186975309Y-99349452D01*
X186972986Y-99354434D01*
X186972983Y-99354439D01*
X186878984Y-99556020D01*
X186876661Y-99561002D01*
X186875239Y-99566310D01*
X186875238Y-99566312D01*
X186829288Y-99737800D01*
X186816248Y-99786468D01*
X186795904Y-100019000D01*
X186816248Y-100251532D01*
X186817672Y-100256845D01*
X186817672Y-100256847D01*
X186865601Y-100435720D01*
X186876661Y-100476998D01*
X186878983Y-100481978D01*
X186878984Y-100481980D01*
X186972983Y-100683561D01*
X186972986Y-100683566D01*
X186975309Y-100688548D01*
X186978465Y-100693055D01*
X186978466Y-100693057D01*
X187100015Y-100866646D01*
X187109193Y-100879754D01*
X187274246Y-101044807D01*
X187278754Y-101047964D01*
X187278757Y-101047966D01*
X187304454Y-101065959D01*
X187465452Y-101178691D01*
X187468847Y-101180274D01*
X187517466Y-101231266D01*
X187530900Y-101300980D01*
X187504512Y-101366890D01*
X187469017Y-101397647D01*
X187465452Y-101399309D01*
X187384250Y-101456167D01*
X187278757Y-101530034D01*
X187278754Y-101530036D01*
X187274246Y-101533193D01*
X187109193Y-101698246D01*
X187106036Y-101702754D01*
X187106034Y-101702757D01*
X187009914Y-101840031D01*
X186975309Y-101889452D01*
X186972986Y-101894434D01*
X186972983Y-101894439D01*
X186878984Y-102096020D01*
X186876661Y-102101002D01*
X186875239Y-102106310D01*
X186875238Y-102106312D01*
X186830815Y-102272104D01*
X186816248Y-102326468D01*
X186795904Y-102559000D01*
X157474231Y-102559000D01*
X157419686Y-102525901D01*
X157375969Y-102507569D01*
X157180224Y-102425486D01*
X157180219Y-102425484D01*
X157175909Y-102423677D01*
X157171377Y-102422526D01*
X157171374Y-102422525D01*
X157033580Y-102387530D01*
X156919699Y-102358608D01*
X156700144Y-102336500D01*
X156542892Y-102336500D01*
X156540567Y-102336673D01*
X156540561Y-102336673D01*
X156351036Y-102350757D01*
X156351032Y-102350758D01*
X156346384Y-102351103D01*
X156088559Y-102409443D01*
X156084207Y-102411135D01*
X156084205Y-102411136D01*
X155846542Y-102503558D01*
X155846540Y-102503559D01*
X155842189Y-102505251D01*
X155838135Y-102507568D01*
X155838133Y-102507569D01*
X155775286Y-102543489D01*
X155612687Y-102636422D01*
X155405094Y-102800075D01*
X155223970Y-102992615D01*
X155221304Y-102996458D01*
X155088871Y-103187361D01*
X155073296Y-103209812D01*
X155071230Y-103214001D01*
X155071229Y-103214003D01*
X154965120Y-103429172D01*
X154956380Y-103446894D01*
X154954958Y-103451337D01*
X154954957Y-103451339D01*
X154946874Y-103476590D01*
X154875791Y-103698653D01*
X154833300Y-103959559D01*
X154832391Y-104029020D01*
X154830013Y-104210689D01*
X154829840Y-104223879D01*
X153406144Y-104223879D01*
X153254225Y-104153039D01*
X153254224Y-104153039D01*
X153249243Y-104150716D01*
X153243935Y-104149294D01*
X153243933Y-104149293D01*
X153033402Y-104092881D01*
X153033400Y-104092881D01*
X153028087Y-104091457D01*
X152800000Y-104071502D01*
X152571913Y-104091457D01*
X152566600Y-104092881D01*
X152566598Y-104092881D01*
X152356067Y-104149293D01*
X152356065Y-104149294D01*
X152350757Y-104150716D01*
X152345776Y-104153039D01*
X152345775Y-104153039D01*
X152148238Y-104245151D01*
X152148233Y-104245154D01*
X152143251Y-104247477D01*
X152071114Y-104297988D01*
X151960211Y-104375643D01*
X151960208Y-104375645D01*
X151955700Y-104378802D01*
X151793802Y-104540700D01*
X151790645Y-104545208D01*
X151790643Y-104545211D01*
X151748000Y-104606112D01*
X151662477Y-104728251D01*
X151660154Y-104733233D01*
X151660151Y-104733238D01*
X151644195Y-104767457D01*
X151597278Y-104820742D01*
X151529001Y-104840203D01*
X151461041Y-104819661D01*
X151415805Y-104767457D01*
X151399849Y-104733238D01*
X151399846Y-104733233D01*
X151397523Y-104728251D01*
X151312000Y-104606112D01*
X151269357Y-104545211D01*
X151269355Y-104545208D01*
X151266198Y-104540700D01*
X151104300Y-104378802D01*
X151099792Y-104375645D01*
X151099789Y-104375643D01*
X150988886Y-104297988D01*
X150916749Y-104247477D01*
X150911767Y-104245154D01*
X150911762Y-104245151D01*
X150714225Y-104153039D01*
X150714224Y-104153039D01*
X150709243Y-104150716D01*
X150703935Y-104149294D01*
X150703933Y-104149293D01*
X150493402Y-104092881D01*
X150493400Y-104092881D01*
X150488087Y-104091457D01*
X150260000Y-104071502D01*
X150031913Y-104091457D01*
X150026600Y-104092881D01*
X150026598Y-104092881D01*
X149816067Y-104149293D01*
X149816065Y-104149294D01*
X149810757Y-104150716D01*
X149805776Y-104153039D01*
X149805775Y-104153039D01*
X149608238Y-104245151D01*
X149608233Y-104245154D01*
X149603251Y-104247477D01*
X149531114Y-104297988D01*
X149420211Y-104375643D01*
X149420208Y-104375645D01*
X149415700Y-104378802D01*
X149253802Y-104540700D01*
X149250645Y-104545208D01*
X149250643Y-104545211D01*
X149208000Y-104606112D01*
X149122477Y-104728251D01*
X149120154Y-104733233D01*
X149120151Y-104733238D01*
X149104195Y-104767457D01*
X149057278Y-104820742D01*
X148989001Y-104840203D01*
X148921041Y-104819661D01*
X148875805Y-104767457D01*
X148859849Y-104733238D01*
X148859846Y-104733233D01*
X148857523Y-104728251D01*
X148772000Y-104606112D01*
X148729357Y-104545211D01*
X148729355Y-104545208D01*
X148726198Y-104540700D01*
X148564300Y-104378802D01*
X148559792Y-104375645D01*
X148559789Y-104375643D01*
X148448886Y-104297988D01*
X148376749Y-104247477D01*
X148371767Y-104245154D01*
X148371762Y-104245151D01*
X148174225Y-104153039D01*
X148174224Y-104153039D01*
X148169243Y-104150716D01*
X148163935Y-104149294D01*
X148163933Y-104149293D01*
X147953402Y-104092881D01*
X147953400Y-104092881D01*
X147948087Y-104091457D01*
X147720000Y-104071502D01*
X147491913Y-104091457D01*
X147486600Y-104092881D01*
X147486598Y-104092881D01*
X147276067Y-104149293D01*
X147276065Y-104149294D01*
X147270757Y-104150716D01*
X147265776Y-104153039D01*
X147265775Y-104153039D01*
X147068238Y-104245151D01*
X147068233Y-104245154D01*
X147063251Y-104247477D01*
X146991114Y-104297988D01*
X146880211Y-104375643D01*
X146880208Y-104375645D01*
X146875700Y-104378802D01*
X146713802Y-104540700D01*
X146710645Y-104545208D01*
X146710643Y-104545211D01*
X146668000Y-104606112D01*
X146582477Y-104728251D01*
X146580154Y-104733233D01*
X146580151Y-104733238D01*
X146564195Y-104767457D01*
X146517278Y-104820742D01*
X146449001Y-104840203D01*
X146381041Y-104819661D01*
X146335805Y-104767457D01*
X146319849Y-104733238D01*
X146319846Y-104733233D01*
X146317523Y-104728251D01*
X146232000Y-104606112D01*
X146189357Y-104545211D01*
X146189355Y-104545208D01*
X146186198Y-104540700D01*
X146024300Y-104378802D01*
X146019792Y-104375645D01*
X146019789Y-104375643D01*
X145908886Y-104297988D01*
X145836749Y-104247477D01*
X145831767Y-104245154D01*
X145831762Y-104245151D01*
X145634225Y-104153039D01*
X145634224Y-104153039D01*
X145629243Y-104150716D01*
X145623935Y-104149294D01*
X145623933Y-104149293D01*
X145413402Y-104092881D01*
X145413400Y-104092881D01*
X145408087Y-104091457D01*
X145180000Y-104071502D01*
X144951913Y-104091457D01*
X144946600Y-104092881D01*
X144946598Y-104092881D01*
X144736067Y-104149293D01*
X144736065Y-104149294D01*
X144730757Y-104150716D01*
X144725776Y-104153039D01*
X144725775Y-104153039D01*
X144528238Y-104245151D01*
X144528233Y-104245154D01*
X144523251Y-104247477D01*
X144451114Y-104297988D01*
X144340211Y-104375643D01*
X144340208Y-104375645D01*
X144335700Y-104378802D01*
X144173802Y-104540700D01*
X144170645Y-104545208D01*
X144170643Y-104545211D01*
X144128000Y-104606112D01*
X144042477Y-104728251D01*
X144040154Y-104733233D01*
X144040151Y-104733238D01*
X144024195Y-104767457D01*
X143977278Y-104820742D01*
X143909001Y-104840203D01*
X143841041Y-104819661D01*
X143795805Y-104767457D01*
X143779849Y-104733238D01*
X143779846Y-104733233D01*
X143777523Y-104728251D01*
X143692000Y-104606112D01*
X143649357Y-104545211D01*
X143649355Y-104545208D01*
X143646198Y-104540700D01*
X143484300Y-104378802D01*
X143479792Y-104375645D01*
X143479789Y-104375643D01*
X143368886Y-104297988D01*
X143296749Y-104247477D01*
X143291767Y-104245154D01*
X143291762Y-104245151D01*
X143094225Y-104153039D01*
X143094224Y-104153039D01*
X143089243Y-104150716D01*
X143083935Y-104149294D01*
X143083933Y-104149293D01*
X142873402Y-104092881D01*
X142873400Y-104092881D01*
X142868087Y-104091457D01*
X142640000Y-104071502D01*
X142411913Y-104091457D01*
X142406600Y-104092881D01*
X142406598Y-104092881D01*
X142196067Y-104149293D01*
X142196065Y-104149294D01*
X142190757Y-104150716D01*
X142185776Y-104153039D01*
X142185775Y-104153039D01*
X141988238Y-104245151D01*
X141988233Y-104245154D01*
X141983251Y-104247477D01*
X141911114Y-104297988D01*
X141800211Y-104375643D01*
X141800208Y-104375645D01*
X141795700Y-104378802D01*
X141633802Y-104540700D01*
X141630645Y-104545208D01*
X141630643Y-104545211D01*
X141588000Y-104606112D01*
X141502477Y-104728251D01*
X141500154Y-104733233D01*
X141500151Y-104733238D01*
X141484195Y-104767457D01*
X141437278Y-104820742D01*
X141369001Y-104840203D01*
X141301041Y-104819661D01*
X141255805Y-104767457D01*
X141239849Y-104733238D01*
X141239846Y-104733233D01*
X141237523Y-104728251D01*
X141152000Y-104606112D01*
X141109357Y-104545211D01*
X141109355Y-104545208D01*
X141106198Y-104540700D01*
X140944300Y-104378802D01*
X140939792Y-104375645D01*
X140939789Y-104375643D01*
X140828886Y-104297988D01*
X140756749Y-104247477D01*
X140751767Y-104245154D01*
X140751762Y-104245151D01*
X140554225Y-104153039D01*
X140554224Y-104153039D01*
X140549243Y-104150716D01*
X140543935Y-104149294D01*
X140543933Y-104149293D01*
X140333402Y-104092881D01*
X140333400Y-104092881D01*
X140328087Y-104091457D01*
X140100000Y-104071502D01*
X139871913Y-104091457D01*
X139866600Y-104092881D01*
X139866598Y-104092881D01*
X139656067Y-104149293D01*
X139656065Y-104149294D01*
X139650757Y-104150716D01*
X139645776Y-104153039D01*
X139645775Y-104153039D01*
X139448238Y-104245151D01*
X139448233Y-104245154D01*
X139443251Y-104247477D01*
X139371114Y-104297988D01*
X139260211Y-104375643D01*
X139260208Y-104375645D01*
X139255700Y-104378802D01*
X139093802Y-104540700D01*
X139090645Y-104545208D01*
X139090643Y-104545211D01*
X139048000Y-104606112D01*
X138962477Y-104728251D01*
X138960154Y-104733233D01*
X138960151Y-104733238D01*
X138944195Y-104767457D01*
X138897278Y-104820742D01*
X138829001Y-104840203D01*
X138761041Y-104819661D01*
X138715805Y-104767457D01*
X138699849Y-104733238D01*
X138699846Y-104733233D01*
X138697523Y-104728251D01*
X138612000Y-104606112D01*
X138569357Y-104545211D01*
X138569355Y-104545208D01*
X138566198Y-104540700D01*
X138404300Y-104378802D01*
X138399792Y-104375645D01*
X138399789Y-104375643D01*
X138288886Y-104297988D01*
X138216749Y-104247477D01*
X138211767Y-104245154D01*
X138211762Y-104245151D01*
X138014225Y-104153039D01*
X138014224Y-104153039D01*
X138009243Y-104150716D01*
X138003935Y-104149294D01*
X138003933Y-104149293D01*
X137793402Y-104092881D01*
X137793400Y-104092881D01*
X137788087Y-104091457D01*
X137560000Y-104071502D01*
X137331913Y-104091457D01*
X137326600Y-104092881D01*
X137326598Y-104092881D01*
X137116067Y-104149293D01*
X137116065Y-104149294D01*
X137110757Y-104150716D01*
X137105776Y-104153039D01*
X137105775Y-104153039D01*
X136908238Y-104245151D01*
X136908233Y-104245154D01*
X136903251Y-104247477D01*
X136831114Y-104297988D01*
X136720211Y-104375643D01*
X136720208Y-104375645D01*
X136715700Y-104378802D01*
X136553802Y-104540700D01*
X136550645Y-104545208D01*
X136550643Y-104545211D01*
X136508000Y-104606112D01*
X136422477Y-104728251D01*
X136420154Y-104733233D01*
X136420151Y-104733238D01*
X136404195Y-104767457D01*
X136357278Y-104820742D01*
X136289001Y-104840203D01*
X136221041Y-104819661D01*
X136175805Y-104767457D01*
X136159849Y-104733238D01*
X136159846Y-104733233D01*
X136157523Y-104728251D01*
X136072000Y-104606112D01*
X136029357Y-104545211D01*
X136029355Y-104545208D01*
X136026198Y-104540700D01*
X135864300Y-104378802D01*
X135859792Y-104375645D01*
X135859789Y-104375643D01*
X135748886Y-104297988D01*
X135676749Y-104247477D01*
X135671767Y-104245154D01*
X135671762Y-104245151D01*
X135474225Y-104153039D01*
X135474224Y-104153039D01*
X135469243Y-104150716D01*
X135463935Y-104149294D01*
X135463933Y-104149293D01*
X135253402Y-104092881D01*
X135253400Y-104092881D01*
X135248087Y-104091457D01*
X135020000Y-104071502D01*
X134791913Y-104091457D01*
X134786600Y-104092881D01*
X134786598Y-104092881D01*
X134576067Y-104149293D01*
X134576065Y-104149294D01*
X134570757Y-104150716D01*
X134565776Y-104153039D01*
X134565775Y-104153039D01*
X134368238Y-104245151D01*
X134368233Y-104245154D01*
X134363251Y-104247477D01*
X134291114Y-104297988D01*
X134180211Y-104375643D01*
X134180208Y-104375645D01*
X134175700Y-104378802D01*
X134013802Y-104540700D01*
X134010645Y-104545208D01*
X134010643Y-104545211D01*
X133968000Y-104606112D01*
X133882477Y-104728251D01*
X133880154Y-104733233D01*
X133880151Y-104733238D01*
X133864195Y-104767457D01*
X133817278Y-104820742D01*
X133749001Y-104840203D01*
X133681041Y-104819661D01*
X133635805Y-104767457D01*
X133619849Y-104733238D01*
X133619846Y-104733233D01*
X133617523Y-104728251D01*
X133532000Y-104606112D01*
X133489357Y-104545211D01*
X133489355Y-104545208D01*
X133486198Y-104540700D01*
X133324300Y-104378802D01*
X133319792Y-104375645D01*
X133319789Y-104375643D01*
X133208886Y-104297988D01*
X133136749Y-104247477D01*
X133131767Y-104245154D01*
X133131762Y-104245151D01*
X132934225Y-104153039D01*
X132934224Y-104153039D01*
X132929243Y-104150716D01*
X132923935Y-104149294D01*
X132923933Y-104149293D01*
X132713402Y-104092881D01*
X132713400Y-104092881D01*
X132708087Y-104091457D01*
X132480000Y-104071502D01*
X132251913Y-104091457D01*
X132246600Y-104092881D01*
X132246598Y-104092881D01*
X132036067Y-104149293D01*
X132036065Y-104149294D01*
X132030757Y-104150716D01*
X132025776Y-104153039D01*
X132025775Y-104153039D01*
X131828238Y-104245151D01*
X131828233Y-104245154D01*
X131823251Y-104247477D01*
X131751114Y-104297988D01*
X131640211Y-104375643D01*
X131640208Y-104375645D01*
X131635700Y-104378802D01*
X131473802Y-104540700D01*
X131470645Y-104545208D01*
X131470643Y-104545211D01*
X131428000Y-104606112D01*
X131342477Y-104728251D01*
X131340154Y-104733233D01*
X131340151Y-104733238D01*
X131324195Y-104767457D01*
X131277278Y-104820742D01*
X131209001Y-104840203D01*
X131141041Y-104819661D01*
X131095805Y-104767457D01*
X131079849Y-104733238D01*
X131079846Y-104733233D01*
X131077523Y-104728251D01*
X130992000Y-104606112D01*
X130949357Y-104545211D01*
X130949355Y-104545208D01*
X130946198Y-104540700D01*
X130784300Y-104378802D01*
X130779792Y-104375645D01*
X130779789Y-104375643D01*
X130668886Y-104297988D01*
X130596749Y-104247477D01*
X130591767Y-104245154D01*
X130591762Y-104245151D01*
X130394225Y-104153039D01*
X130394224Y-104153039D01*
X130389243Y-104150716D01*
X130383935Y-104149294D01*
X130383933Y-104149293D01*
X130173402Y-104092881D01*
X130173400Y-104092881D01*
X130168087Y-104091457D01*
X129940000Y-104071502D01*
X129711913Y-104091457D01*
X129706600Y-104092881D01*
X129706598Y-104092881D01*
X129496067Y-104149293D01*
X129496065Y-104149294D01*
X129490757Y-104150716D01*
X129485776Y-104153039D01*
X129485775Y-104153039D01*
X129288238Y-104245151D01*
X129288233Y-104245154D01*
X129283251Y-104247477D01*
X129211114Y-104297988D01*
X129100211Y-104375643D01*
X129100208Y-104375645D01*
X129095700Y-104378802D01*
X128933802Y-104540700D01*
X128930645Y-104545208D01*
X128930643Y-104545211D01*
X128888000Y-104606112D01*
X128802477Y-104728251D01*
X128800154Y-104733233D01*
X128800151Y-104733238D01*
X128784195Y-104767457D01*
X128737278Y-104820742D01*
X128669001Y-104840203D01*
X128601041Y-104819661D01*
X128555805Y-104767457D01*
X128539849Y-104733238D01*
X128539846Y-104733233D01*
X128537523Y-104728251D01*
X128452000Y-104606112D01*
X128409357Y-104545211D01*
X128409355Y-104545208D01*
X128406198Y-104540700D01*
X128244300Y-104378802D01*
X128239792Y-104375645D01*
X128239789Y-104375643D01*
X128128886Y-104297988D01*
X128056749Y-104247477D01*
X128051767Y-104245154D01*
X128051762Y-104245151D01*
X127854225Y-104153039D01*
X127854224Y-104153039D01*
X127849243Y-104150716D01*
X127843935Y-104149294D01*
X127843933Y-104149293D01*
X127633402Y-104092881D01*
X127633400Y-104092881D01*
X127628087Y-104091457D01*
X127400000Y-104071502D01*
X127171913Y-104091457D01*
X127166600Y-104092881D01*
X127166598Y-104092881D01*
X126956067Y-104149293D01*
X126956065Y-104149294D01*
X126950757Y-104150716D01*
X126945776Y-104153039D01*
X126945775Y-104153039D01*
X126748238Y-104245151D01*
X126748233Y-104245154D01*
X126743251Y-104247477D01*
X126671114Y-104297988D01*
X126560211Y-104375643D01*
X126560208Y-104375645D01*
X126555700Y-104378802D01*
X126393802Y-104540700D01*
X126390645Y-104545208D01*
X126390643Y-104545211D01*
X126348000Y-104606112D01*
X126262477Y-104728251D01*
X126260154Y-104733233D01*
X126260151Y-104733238D01*
X126244195Y-104767457D01*
X126197278Y-104820742D01*
X126129001Y-104840203D01*
X126061041Y-104819661D01*
X126015805Y-104767457D01*
X125999849Y-104733238D01*
X125999846Y-104733233D01*
X125997523Y-104728251D01*
X125912000Y-104606112D01*
X125869357Y-104545211D01*
X125869355Y-104545208D01*
X125866198Y-104540700D01*
X125704300Y-104378802D01*
X125699792Y-104375645D01*
X125699789Y-104375643D01*
X125588886Y-104297988D01*
X125516749Y-104247477D01*
X125511767Y-104245154D01*
X125511762Y-104245151D01*
X125314225Y-104153039D01*
X125314224Y-104153039D01*
X125309243Y-104150716D01*
X125303935Y-104149294D01*
X125303933Y-104149293D01*
X125093402Y-104092881D01*
X125093400Y-104092881D01*
X125088087Y-104091457D01*
X124860000Y-104071502D01*
X124631913Y-104091457D01*
X124626600Y-104092881D01*
X124626598Y-104092881D01*
X124416067Y-104149293D01*
X124416065Y-104149294D01*
X124410757Y-104150716D01*
X124405776Y-104153039D01*
X124405775Y-104153039D01*
X124208238Y-104245151D01*
X124208233Y-104245154D01*
X124203251Y-104247477D01*
X124131114Y-104297988D01*
X124020211Y-104375643D01*
X124020208Y-104375645D01*
X124015700Y-104378802D01*
X123853802Y-104540700D01*
X123850645Y-104545208D01*
X123850643Y-104545211D01*
X123808000Y-104606112D01*
X123722477Y-104728251D01*
X123720154Y-104733233D01*
X123720151Y-104733238D01*
X123703919Y-104768049D01*
X123657002Y-104821334D01*
X123588725Y-104840795D01*
X123520765Y-104820253D01*
X123475529Y-104768049D01*
X123459414Y-104733489D01*
X123453931Y-104723994D01*
X123417491Y-104671952D01*
X123407012Y-104663576D01*
X123393566Y-104670644D01*
X122692022Y-105372188D01*
X122684408Y-105386132D01*
X122684539Y-105387965D01*
X122688790Y-105394580D01*
X123394287Y-106100077D01*
X123406062Y-106106507D01*
X123418077Y-106097211D01*
X123453931Y-106046006D01*
X123459414Y-106036511D01*
X123475529Y-106001951D01*
X123522446Y-105948666D01*
X123590723Y-105929205D01*
X123658683Y-105949747D01*
X123703919Y-106001951D01*
X123720151Y-106036762D01*
X123720154Y-106036767D01*
X123722477Y-106041749D01*
X123853802Y-106229300D01*
X124015700Y-106391198D01*
X124020208Y-106394355D01*
X124020211Y-106394357D01*
X124105800Y-106454287D01*
X124150128Y-106509744D01*
X124157437Y-106580364D01*
X124125406Y-106643724D01*
X124064205Y-106679709D01*
X124033529Y-106683500D01*
X123134397Y-106683500D01*
X123066276Y-106663498D01*
X123019783Y-106609842D01*
X123009679Y-106539568D01*
X123035975Y-106478830D01*
X123041424Y-106472013D01*
X123034356Y-106458566D01*
X122332812Y-105757022D01*
X122318868Y-105749408D01*
X122317035Y-105749539D01*
X122310420Y-105753790D01*
X121604923Y-106459287D01*
X121598493Y-106471061D01*
X121605718Y-106480400D01*
X121631581Y-106546518D01*
X121617592Y-106616123D01*
X121568192Y-106667116D01*
X121506060Y-106683500D01*
X120606471Y-106683500D01*
X120538350Y-106663498D01*
X120491857Y-106609842D01*
X120481753Y-106539568D01*
X120511247Y-106474988D01*
X120534200Y-106454287D01*
X120619789Y-106394357D01*
X120619792Y-106394355D01*
X120624300Y-106391198D01*
X120786198Y-106229300D01*
X120917523Y-106041749D01*
X120919846Y-106036767D01*
X120919849Y-106036762D01*
X120936081Y-106001951D01*
X120982998Y-105948666D01*
X121051275Y-105929205D01*
X121119235Y-105949747D01*
X121164471Y-106001951D01*
X121180586Y-106036511D01*
X121186069Y-106046006D01*
X121222509Y-106098048D01*
X121232988Y-106106424D01*
X121246434Y-106099356D01*
X121947978Y-105397812D01*
X121955592Y-105383868D01*
X121955461Y-105382035D01*
X121951210Y-105375420D01*
X121245713Y-104669923D01*
X121233938Y-104663493D01*
X121221923Y-104672789D01*
X121186069Y-104723994D01*
X121180586Y-104733489D01*
X121164471Y-104768049D01*
X121117554Y-104821334D01*
X121049277Y-104840795D01*
X120981317Y-104820253D01*
X120936081Y-104768049D01*
X120919849Y-104733238D01*
X120919846Y-104733233D01*
X120917523Y-104728251D01*
X120832000Y-104606112D01*
X120789357Y-104545211D01*
X120789355Y-104545208D01*
X120786198Y-104540700D01*
X120624300Y-104378802D01*
X120619792Y-104375645D01*
X120619789Y-104375643D01*
X120508886Y-104297988D01*
X121598576Y-104297988D01*
X121605644Y-104311434D01*
X122307188Y-105012978D01*
X122321132Y-105020592D01*
X122322965Y-105020461D01*
X122329580Y-105016210D01*
X123035077Y-104310713D01*
X123041507Y-104298938D01*
X123032211Y-104286923D01*
X122981006Y-104251069D01*
X122971511Y-104245586D01*
X122774053Y-104153510D01*
X122763761Y-104149764D01*
X122553312Y-104093375D01*
X122542519Y-104091472D01*
X122325475Y-104072483D01*
X122314525Y-104072483D01*
X122097481Y-104091472D01*
X122086688Y-104093375D01*
X121876239Y-104149764D01*
X121865947Y-104153510D01*
X121668489Y-104245586D01*
X121658994Y-104251069D01*
X121606952Y-104287509D01*
X121598576Y-104297988D01*
X120508886Y-104297988D01*
X120436749Y-104247477D01*
X120431767Y-104245154D01*
X120431762Y-104245151D01*
X120234225Y-104153039D01*
X120234224Y-104153039D01*
X120229243Y-104150716D01*
X120223935Y-104149294D01*
X120223933Y-104149293D01*
X120013402Y-104092881D01*
X120013400Y-104092881D01*
X120008087Y-104091457D01*
X119780000Y-104071502D01*
X119551913Y-104091457D01*
X119546600Y-104092881D01*
X119546598Y-104092881D01*
X119336067Y-104149293D01*
X119336065Y-104149294D01*
X119330757Y-104150716D01*
X119325776Y-104153039D01*
X119325775Y-104153039D01*
X119128238Y-104245151D01*
X119128233Y-104245154D01*
X119123251Y-104247477D01*
X119051114Y-104297988D01*
X118940211Y-104375643D01*
X118940208Y-104375645D01*
X118935700Y-104378802D01*
X118773802Y-104540700D01*
X118770645Y-104545208D01*
X118770643Y-104545211D01*
X118728000Y-104606112D01*
X118642477Y-104728251D01*
X118640154Y-104733233D01*
X118640151Y-104733238D01*
X118624195Y-104767457D01*
X118577278Y-104820742D01*
X118509001Y-104840203D01*
X118441041Y-104819661D01*
X118395805Y-104767457D01*
X118379849Y-104733238D01*
X118379846Y-104733233D01*
X118377523Y-104728251D01*
X118292000Y-104606112D01*
X118249357Y-104545211D01*
X118249355Y-104545208D01*
X118246198Y-104540700D01*
X118084300Y-104378802D01*
X118079792Y-104375645D01*
X118079789Y-104375643D01*
X117968886Y-104297988D01*
X117896749Y-104247477D01*
X117891767Y-104245154D01*
X117891762Y-104245151D01*
X117694225Y-104153039D01*
X117694224Y-104153039D01*
X117689243Y-104150716D01*
X117683935Y-104149294D01*
X117683933Y-104149293D01*
X117473402Y-104092881D01*
X117473400Y-104092881D01*
X117468087Y-104091457D01*
X117240000Y-104071502D01*
X117011913Y-104091457D01*
X117006600Y-104092881D01*
X117006598Y-104092881D01*
X116796067Y-104149293D01*
X116796065Y-104149294D01*
X116790757Y-104150716D01*
X116785776Y-104153039D01*
X116785775Y-104153039D01*
X116588238Y-104245151D01*
X116588233Y-104245154D01*
X116583251Y-104247477D01*
X116511114Y-104297988D01*
X116400211Y-104375643D01*
X116400208Y-104375645D01*
X116395700Y-104378802D01*
X116233802Y-104540700D01*
X116230643Y-104545211D01*
X116227108Y-104549424D01*
X116225974Y-104548473D01*
X116175929Y-104588471D01*
X116105310Y-104595776D01*
X116041951Y-104563742D01*
X116005970Y-104502538D01*
X116002918Y-104485483D01*
X116001745Y-104474684D01*
X115950615Y-104338295D01*
X115863261Y-104221739D01*
X115746705Y-104134385D01*
X115610316Y-104083255D01*
X115548134Y-104076500D01*
X113851866Y-104076500D01*
X113789684Y-104083255D01*
X113653295Y-104134385D01*
X113536739Y-104221739D01*
X113449385Y-104338295D01*
X113398255Y-104474684D01*
X113391500Y-104536866D01*
X113391500Y-106233134D01*
X106973020Y-106233134D01*
X107001529Y-106016590D01*
X107003156Y-105950000D01*
X106984852Y-105727361D01*
X106930431Y-105510702D01*
X106841354Y-105305840D01*
X106775607Y-105204210D01*
X106722822Y-105122617D01*
X106722820Y-105122614D01*
X106720014Y-105118277D01*
X106569670Y-104953051D01*
X106565619Y-104949852D01*
X106565615Y-104949848D01*
X106398414Y-104817800D01*
X106398410Y-104817798D01*
X106394359Y-104814598D01*
X106198789Y-104706638D01*
X106193920Y-104704914D01*
X106193916Y-104704912D01*
X105993087Y-104633795D01*
X105993083Y-104633794D01*
X105988212Y-104632069D01*
X105983119Y-104631162D01*
X105983116Y-104631161D01*
X105773373Y-104593800D01*
X105773367Y-104593799D01*
X105768284Y-104592894D01*
X105694452Y-104591992D01*
X105550081Y-104590228D01*
X105550079Y-104590228D01*
X105544911Y-104590165D01*
X105324091Y-104623955D01*
X105111756Y-104693357D01*
X104913607Y-104796507D01*
X104909474Y-104799610D01*
X104909471Y-104799612D01*
X104739100Y-104927530D01*
X104734965Y-104930635D01*
X104654508Y-105014829D01*
X104654283Y-105015064D01*
X104592759Y-105050494D01*
X104521846Y-105047037D01*
X104464060Y-105005791D01*
X104445207Y-104972243D01*
X104403767Y-104861703D01*
X104400615Y-104853295D01*
X104313261Y-104736739D01*
X104196705Y-104649385D01*
X104060316Y-104598255D01*
X103998134Y-104591500D01*
X102201866Y-104591500D01*
X102139684Y-104598255D01*
X102003295Y-104649385D01*
X101886739Y-104736739D01*
X101799385Y-104853295D01*
X101748255Y-104989684D01*
X101741500Y-105051866D01*
X101741500Y-106848134D01*
X100628500Y-106848134D01*
X100628500Y-105051866D01*
X100621745Y-104989684D01*
X100570615Y-104853295D01*
X100483261Y-104736739D01*
X100366705Y-104649385D01*
X100318093Y-104631161D01*
X100248203Y-104604960D01*
X100191439Y-104562318D01*
X100166739Y-104495756D01*
X100181947Y-104426408D01*
X100203493Y-104397727D01*
X100290088Y-104311434D01*
X100308096Y-104293489D01*
X100367594Y-104210689D01*
X100435435Y-104116277D01*
X100438453Y-104112077D01*
X100458022Y-104072483D01*
X100535136Y-103916453D01*
X100535137Y-103916451D01*
X100537430Y-103911811D01*
X100602370Y-103698069D01*
X100631529Y-103476590D01*
X100632688Y-103429169D01*
X100633074Y-103413365D01*
X100633074Y-103413361D01*
X100633156Y-103410000D01*
X100614852Y-103187361D01*
X100560431Y-102970702D01*
X100471354Y-102765840D01*
X100387630Y-102636422D01*
X100352822Y-102582617D01*
X100352820Y-102582614D01*
X100350014Y-102578277D01*
X100199670Y-102413051D01*
X100195619Y-102409852D01*
X100195615Y-102409848D01*
X100028414Y-102277800D01*
X100028410Y-102277798D01*
X100024359Y-102274598D01*
X99983053Y-102251796D01*
X99933084Y-102201364D01*
X99918312Y-102131921D01*
X99943428Y-102065516D01*
X99970780Y-102038909D01*
X100014603Y-102007650D01*
X100149860Y-101911173D01*
X100308096Y-101753489D01*
X100344551Y-101702757D01*
X100435435Y-101576277D01*
X100438453Y-101572077D01*
X100460341Y-101527791D01*
X100511143Y-101425000D01*
X104524474Y-101425000D01*
X104544818Y-101657532D01*
X104546242Y-101662845D01*
X104546242Y-101662847D01*
X104584636Y-101806134D01*
X104605231Y-101882998D01*
X104607553Y-101887978D01*
X104607554Y-101887980D01*
X104701553Y-102089561D01*
X104701556Y-102089566D01*
X104703879Y-102094548D01*
X104707035Y-102099055D01*
X104707036Y-102099057D01*
X104832194Y-102277800D01*
X104837763Y-102285754D01*
X105002816Y-102450807D01*
X105007324Y-102453964D01*
X105007327Y-102453966D01*
X105179406Y-102574457D01*
X105194022Y-102584691D01*
X105199004Y-102587014D01*
X105199009Y-102587017D01*
X105400590Y-102681016D01*
X105405572Y-102683339D01*
X105410880Y-102684761D01*
X105410882Y-102684762D01*
X105625723Y-102742328D01*
X105625725Y-102742328D01*
X105631038Y-102743752D01*
X105863570Y-102764096D01*
X106096102Y-102743752D01*
X106101415Y-102742328D01*
X106101417Y-102742328D01*
X106316258Y-102684762D01*
X106316260Y-102684761D01*
X106321568Y-102683339D01*
X106326550Y-102681016D01*
X106528131Y-102587017D01*
X106528136Y-102587014D01*
X106533118Y-102584691D01*
X106547734Y-102574457D01*
X106719813Y-102453966D01*
X106719816Y-102453964D01*
X106724324Y-102450807D01*
X106889377Y-102285754D01*
X106894947Y-102277800D01*
X107020104Y-102099057D01*
X107020105Y-102099055D01*
X107023261Y-102094548D01*
X107025584Y-102089566D01*
X107025587Y-102089561D01*
X107119586Y-101887980D01*
X107119587Y-101887978D01*
X107121909Y-101882998D01*
X107142505Y-101806134D01*
X107180898Y-101662847D01*
X107180898Y-101662845D01*
X107182322Y-101657532D01*
X107202666Y-101425000D01*
X107182322Y-101192468D01*
X107178950Y-101179882D01*
X107123332Y-100972312D01*
X107123331Y-100972310D01*
X107121909Y-100967002D01*
X107107728Y-100936590D01*
X107025587Y-100760439D01*
X107025584Y-100760434D01*
X107023261Y-100755452D01*
X106979572Y-100693057D01*
X106892536Y-100568757D01*
X106892534Y-100568754D01*
X106889377Y-100564246D01*
X106724324Y-100399193D01*
X106719816Y-100396036D01*
X106719813Y-100396034D01*
X106537622Y-100268463D01*
X106533118Y-100265309D01*
X106529723Y-100263726D01*
X106481104Y-100212734D01*
X106467670Y-100143020D01*
X106494058Y-100077110D01*
X106529553Y-100046353D01*
X106533118Y-100044691D01*
X106569809Y-100019000D01*
X169015904Y-100019000D01*
X169036248Y-100251532D01*
X169037672Y-100256845D01*
X169037672Y-100256847D01*
X169085601Y-100435720D01*
X169096661Y-100476998D01*
X169098983Y-100481978D01*
X169098984Y-100481980D01*
X169192983Y-100683561D01*
X169192986Y-100683566D01*
X169195309Y-100688548D01*
X169198465Y-100693055D01*
X169198466Y-100693057D01*
X169320015Y-100866646D01*
X169329193Y-100879754D01*
X169472602Y-101023163D01*
X169506628Y-101085475D01*
X169501563Y-101156290D01*
X169459016Y-101213126D01*
X169419128Y-101231809D01*
X169419293Y-101232248D01*
X169413772Y-101234318D01*
X169412657Y-101234840D01*
X169411896Y-101235021D01*
X169291446Y-101280176D01*
X169275851Y-101288714D01*
X169173776Y-101365215D01*
X169161215Y-101377776D01*
X169084714Y-101479851D01*
X169076176Y-101495446D01*
X169031022Y-101615894D01*
X169027395Y-101631149D01*
X169021869Y-101682014D01*
X169021500Y-101688828D01*
X169021500Y-102286885D01*
X169025975Y-102302124D01*
X169027365Y-102303329D01*
X169035048Y-102305000D01*
X171670384Y-102305000D01*
X171685623Y-102300525D01*
X171686828Y-102299135D01*
X171688499Y-102291452D01*
X171688499Y-101688831D01*
X171688129Y-101682010D01*
X171682605Y-101631148D01*
X171678979Y-101615896D01*
X171633824Y-101495446D01*
X171625286Y-101479851D01*
X171548785Y-101377776D01*
X171536224Y-101365215D01*
X171434149Y-101288714D01*
X171418554Y-101280176D01*
X171298104Y-101235021D01*
X171297343Y-101234840D01*
X171296812Y-101234537D01*
X171290707Y-101232248D01*
X171291077Y-101231260D01*
X171235698Y-101199620D01*
X171202879Y-101136664D01*
X171209308Y-101065959D01*
X171237398Y-101023163D01*
X171380807Y-100879754D01*
X171389986Y-100866646D01*
X171511534Y-100693057D01*
X171511535Y-100693055D01*
X171514691Y-100688548D01*
X171517014Y-100683566D01*
X171517017Y-100683561D01*
X171611016Y-100481980D01*
X171611017Y-100481978D01*
X171613339Y-100476998D01*
X171624400Y-100435720D01*
X171672328Y-100256847D01*
X171672328Y-100256845D01*
X171673752Y-100251532D01*
X171694096Y-100019000D01*
X171673752Y-99786468D01*
X171660712Y-99737800D01*
X171614762Y-99566312D01*
X171614761Y-99566310D01*
X171613339Y-99561002D01*
X171611016Y-99556020D01*
X171517017Y-99354439D01*
X171517014Y-99354434D01*
X171514691Y-99349452D01*
X171431047Y-99229996D01*
X171383966Y-99162757D01*
X171383964Y-99162754D01*
X171380807Y-99158246D01*
X171215754Y-98993193D01*
X171211246Y-98990036D01*
X171211243Y-98990034D01*
X171097512Y-98910399D01*
X171024548Y-98859309D01*
X171021153Y-98857726D01*
X170972534Y-98806734D01*
X170959100Y-98737020D01*
X170985488Y-98671110D01*
X171020983Y-98640353D01*
X171024548Y-98638691D01*
X171161499Y-98542797D01*
X171211243Y-98507966D01*
X171211246Y-98507964D01*
X171215754Y-98504807D01*
X171380807Y-98339754D01*
X171407225Y-98302026D01*
X171511534Y-98153057D01*
X171511535Y-98153055D01*
X171514691Y-98148548D01*
X171517014Y-98143566D01*
X171517017Y-98143561D01*
X171611016Y-97941980D01*
X171611017Y-97941978D01*
X171613339Y-97936998D01*
X171616570Y-97924942D01*
X171672328Y-97716847D01*
X171672328Y-97716845D01*
X171673752Y-97711532D01*
X171694096Y-97479000D01*
X171673752Y-97246468D01*
X171672328Y-97241153D01*
X171614762Y-97026312D01*
X171614761Y-97026310D01*
X171613339Y-97021002D01*
X171611016Y-97016020D01*
X171517017Y-96814439D01*
X171517014Y-96814434D01*
X171514691Y-96809452D01*
X171447236Y-96713116D01*
X171383966Y-96622757D01*
X171383964Y-96622754D01*
X171380807Y-96618246D01*
X171215754Y-96453193D01*
X171211246Y-96450036D01*
X171211243Y-96450034D01*
X171029057Y-96322466D01*
X171029055Y-96322465D01*
X171024548Y-96319309D01*
X171019566Y-96316986D01*
X171019561Y-96316983D01*
X170817980Y-96222984D01*
X170817978Y-96222983D01*
X170812998Y-96220661D01*
X170807690Y-96219239D01*
X170807688Y-96219238D01*
X170592847Y-96161672D01*
X170592845Y-96161672D01*
X170587532Y-96160248D01*
X170355000Y-96139904D01*
X170122468Y-96160248D01*
X170117155Y-96161672D01*
X170117153Y-96161672D01*
X169902312Y-96219238D01*
X169902310Y-96219239D01*
X169897002Y-96220661D01*
X169892022Y-96222983D01*
X169892020Y-96222984D01*
X169690439Y-96316983D01*
X169690434Y-96316986D01*
X169685452Y-96319309D01*
X169680945Y-96322465D01*
X169680943Y-96322466D01*
X169498757Y-96450034D01*
X169498754Y-96450036D01*
X169494246Y-96453193D01*
X169329193Y-96618246D01*
X169326036Y-96622754D01*
X169326034Y-96622757D01*
X169262764Y-96713116D01*
X169195309Y-96809452D01*
X169192986Y-96814434D01*
X169192983Y-96814439D01*
X169098984Y-97016020D01*
X169096661Y-97021002D01*
X169095239Y-97026310D01*
X169095238Y-97026312D01*
X169037672Y-97241153D01*
X169036248Y-97246468D01*
X169015904Y-97479000D01*
X169036248Y-97711532D01*
X169037672Y-97716845D01*
X169037672Y-97716847D01*
X169093431Y-97924942D01*
X169096661Y-97936998D01*
X169098983Y-97941978D01*
X169098984Y-97941980D01*
X169192983Y-98143561D01*
X169192986Y-98143566D01*
X169195309Y-98148548D01*
X169198465Y-98153055D01*
X169198466Y-98153057D01*
X169302776Y-98302026D01*
X169329193Y-98339754D01*
X169494246Y-98504807D01*
X169498754Y-98507964D01*
X169498757Y-98507966D01*
X169548501Y-98542797D01*
X169685452Y-98638691D01*
X169688847Y-98640274D01*
X169737466Y-98691266D01*
X169750900Y-98760980D01*
X169724512Y-98826890D01*
X169689017Y-98857647D01*
X169685452Y-98859309D01*
X169612488Y-98910399D01*
X169498757Y-98990034D01*
X169498754Y-98990036D01*
X169494246Y-98993193D01*
X169329193Y-99158246D01*
X169326036Y-99162754D01*
X169326034Y-99162757D01*
X169278953Y-99229996D01*
X169195309Y-99349452D01*
X169192986Y-99354434D01*
X169192983Y-99354439D01*
X169098984Y-99556020D01*
X169096661Y-99561002D01*
X169095239Y-99566310D01*
X169095238Y-99566312D01*
X169049288Y-99737800D01*
X169036248Y-99786468D01*
X169015904Y-100019000D01*
X106569809Y-100019000D01*
X106714243Y-99917866D01*
X106719813Y-99913966D01*
X106719816Y-99913964D01*
X106724324Y-99910807D01*
X106889377Y-99745754D01*
X106894947Y-99737800D01*
X107020104Y-99559057D01*
X107020105Y-99559055D01*
X107023261Y-99554548D01*
X107025584Y-99549566D01*
X107025587Y-99549561D01*
X107119586Y-99347980D01*
X107119587Y-99347978D01*
X107121909Y-99342998D01*
X107182322Y-99117532D01*
X107202666Y-98885000D01*
X107182322Y-98652468D01*
X107178950Y-98639882D01*
X107123332Y-98432312D01*
X107123331Y-98432310D01*
X107121909Y-98427002D01*
X107106174Y-98393258D01*
X107025587Y-98220439D01*
X107025584Y-98220434D01*
X107023261Y-98215452D01*
X106979572Y-98153057D01*
X106892536Y-98028757D01*
X106892534Y-98028754D01*
X106889377Y-98024246D01*
X106724324Y-97859193D01*
X106719816Y-97856036D01*
X106719813Y-97856034D01*
X106585285Y-97761837D01*
X106533118Y-97725309D01*
X106529723Y-97723726D01*
X106481104Y-97672734D01*
X106467670Y-97603020D01*
X106494058Y-97537110D01*
X106529553Y-97506353D01*
X106533118Y-97504691D01*
X106651250Y-97421974D01*
X106719813Y-97373966D01*
X106719816Y-97373964D01*
X106724324Y-97370807D01*
X106889377Y-97205754D01*
X106916160Y-97167505D01*
X107020104Y-97019057D01*
X107020105Y-97019055D01*
X107023261Y-97014548D01*
X107025584Y-97009566D01*
X107025587Y-97009561D01*
X107119586Y-96807980D01*
X107119587Y-96807978D01*
X107121909Y-96802998D01*
X107173949Y-96608783D01*
X107180898Y-96582847D01*
X107180898Y-96582845D01*
X107182322Y-96577532D01*
X107202666Y-96345000D01*
X107182322Y-96112468D01*
X107169154Y-96063324D01*
X107123332Y-95892312D01*
X107123331Y-95892310D01*
X107121909Y-95887002D01*
X107109309Y-95859981D01*
X107025587Y-95680439D01*
X107025584Y-95680434D01*
X107023261Y-95675452D01*
X106994305Y-95634098D01*
X106892536Y-95488757D01*
X106892534Y-95488754D01*
X106889377Y-95484246D01*
X106724324Y-95319193D01*
X106719816Y-95316036D01*
X106719813Y-95316034D01*
X106580572Y-95218537D01*
X106533118Y-95185309D01*
X106529723Y-95183726D01*
X106481104Y-95132734D01*
X106467670Y-95063020D01*
X106494058Y-94997110D01*
X106529553Y-94966353D01*
X106533118Y-94964691D01*
X106710641Y-94840388D01*
X106719813Y-94833966D01*
X106719816Y-94833964D01*
X106724324Y-94830807D01*
X106889377Y-94665754D01*
X106894251Y-94658794D01*
X107020104Y-94479057D01*
X107020105Y-94479055D01*
X107023261Y-94474548D01*
X107025584Y-94469566D01*
X107025587Y-94469561D01*
X107119586Y-94267980D01*
X107119587Y-94267978D01*
X107121909Y-94262998D01*
X107154973Y-94139603D01*
X107180898Y-94042847D01*
X107180898Y-94042845D01*
X107182322Y-94037532D01*
X107202666Y-93805000D01*
X107182322Y-93572468D01*
X107180263Y-93564783D01*
X107123332Y-93352312D01*
X107123331Y-93352310D01*
X107121909Y-93347002D01*
X107055579Y-93204757D01*
X107025587Y-93140439D01*
X107025584Y-93140434D01*
X107023261Y-93135452D01*
X107012296Y-93119792D01*
X106892536Y-92948757D01*
X106892534Y-92948754D01*
X106889377Y-92944246D01*
X106724324Y-92779193D01*
X106719816Y-92776036D01*
X106719813Y-92776034D01*
X106614320Y-92702167D01*
X106533118Y-92645309D01*
X106529723Y-92643726D01*
X106481104Y-92592734D01*
X106467670Y-92523020D01*
X106494058Y-92457110D01*
X106529553Y-92426353D01*
X106533118Y-92424691D01*
X106698356Y-92308990D01*
X106719813Y-92293966D01*
X106719816Y-92293964D01*
X106724324Y-92290807D01*
X106887226Y-92127905D01*
X106949538Y-92093879D01*
X106976321Y-92091000D01*
X113503537Y-92091000D01*
X113514082Y-92091442D01*
X113563870Y-92095623D01*
X113641313Y-92085289D01*
X113644313Y-92084927D01*
X113686068Y-92080391D01*
X113715204Y-92077226D01*
X113715206Y-92077226D01*
X113721987Y-92076489D01*
X113728453Y-92074313D01*
X113730803Y-92073796D01*
X113731353Y-92073699D01*
X113732120Y-92073520D01*
X113732655Y-92073365D01*
X113735002Y-92072789D01*
X113741760Y-92071887D01*
X113815112Y-92045189D01*
X113818013Y-92044174D01*
X113885609Y-92021425D01*
X113885616Y-92021422D01*
X113892081Y-92019246D01*
X113897930Y-92015731D01*
X113900123Y-92014718D01*
X113900638Y-92014506D01*
X113901336Y-92014173D01*
X113901837Y-92013900D01*
X113903991Y-92012840D01*
X113910404Y-92010506D01*
X113976372Y-91968641D01*
X113978964Y-91967041D01*
X113994159Y-91957911D01*
X114045914Y-91926814D01*
X114050865Y-91922133D01*
X114052801Y-91920663D01*
X114053732Y-91920015D01*
X114057566Y-91917115D01*
X114061934Y-91914343D01*
X114066034Y-91910677D01*
X114117957Y-91858754D01*
X114120479Y-91856301D01*
X114171352Y-91808193D01*
X114171354Y-91808191D01*
X114176310Y-91803504D01*
X114180144Y-91797863D01*
X114184273Y-91793011D01*
X114191130Y-91785581D01*
X117479806Y-88496905D01*
X117542118Y-88462879D01*
X117568901Y-88460000D01*
X150190967Y-88460000D01*
X150201512Y-88460442D01*
X150251300Y-88464623D01*
X150328743Y-88454289D01*
X150331743Y-88453927D01*
X150373498Y-88449391D01*
X150402634Y-88446226D01*
X150402636Y-88446226D01*
X150409417Y-88445489D01*
X150415883Y-88443313D01*
X150418233Y-88442796D01*
X150418783Y-88442699D01*
X150419550Y-88442520D01*
X150420085Y-88442365D01*
X150422432Y-88441789D01*
X150429190Y-88440887D01*
X150502542Y-88414189D01*
X150505443Y-88413174D01*
X150573039Y-88390425D01*
X150573046Y-88390422D01*
X150579511Y-88388246D01*
X150585360Y-88384731D01*
X150587553Y-88383718D01*
X150588068Y-88383506D01*
X150588766Y-88383173D01*
X150589267Y-88382900D01*
X150591421Y-88381840D01*
X150597834Y-88379506D01*
X150663802Y-88337641D01*
X150666394Y-88336041D01*
X150733344Y-88295814D01*
X150738295Y-88291133D01*
X150740231Y-88289663D01*
X150741162Y-88289015D01*
X150744996Y-88286115D01*
X150749364Y-88283343D01*
X150753464Y-88279677D01*
X150805386Y-88227755D01*
X150807908Y-88225302D01*
X150858782Y-88177193D01*
X150858784Y-88177191D01*
X150863740Y-88172504D01*
X150867574Y-88166863D01*
X150871703Y-88162011D01*
X150878560Y-88154581D01*
X152589261Y-86443879D01*
X154829840Y-86443879D01*
X154865486Y-86705808D01*
X154866795Y-86710298D01*
X154866796Y-86710304D01*
X154883394Y-86767248D01*
X154939457Y-86959590D01*
X155050127Y-87199652D01*
X155052690Y-87203561D01*
X155192499Y-87416805D01*
X155192503Y-87416810D01*
X155195065Y-87420718D01*
X155233848Y-87464171D01*
X155346955Y-87590896D01*
X155371086Y-87617933D01*
X155448023Y-87681921D01*
X155534431Y-87753785D01*
X155574324Y-87786964D01*
X155800314Y-87924099D01*
X155804622Y-87925905D01*
X155804623Y-87925906D01*
X156039776Y-88024514D01*
X156039781Y-88024516D01*
X156044091Y-88026323D01*
X156048623Y-88027474D01*
X156048626Y-88027475D01*
X156134673Y-88049328D01*
X156300301Y-88091392D01*
X156519856Y-88113500D01*
X156677108Y-88113500D01*
X156679433Y-88113327D01*
X156679439Y-88113327D01*
X156868964Y-88099243D01*
X156868968Y-88099242D01*
X156873616Y-88098897D01*
X157131441Y-88040557D01*
X157141933Y-88036477D01*
X157373458Y-87946442D01*
X157373460Y-87946441D01*
X157377811Y-87944749D01*
X157405986Y-87928646D01*
X157546819Y-87848153D01*
X157607313Y-87813578D01*
X157814906Y-87649925D01*
X157996030Y-87457385D01*
X157998696Y-87453542D01*
X158144042Y-87244026D01*
X158144045Y-87244021D01*
X158146704Y-87240188D01*
X158153126Y-87227165D01*
X158222741Y-87086000D01*
X174144502Y-87086000D01*
X174164457Y-87314087D01*
X174165881Y-87319400D01*
X174165881Y-87319402D01*
X174221375Y-87526505D01*
X174223716Y-87535243D01*
X174226039Y-87540224D01*
X174226039Y-87540225D01*
X174318151Y-87737762D01*
X174318154Y-87737767D01*
X174320477Y-87742749D01*
X174380031Y-87827800D01*
X174446128Y-87922196D01*
X174451802Y-87930300D01*
X174613700Y-88092198D01*
X174618208Y-88095355D01*
X174618211Y-88095357D01*
X174633998Y-88106411D01*
X174801251Y-88223523D01*
X174806233Y-88225846D01*
X174806238Y-88225849D01*
X175003775Y-88317961D01*
X175008757Y-88320284D01*
X175014065Y-88321706D01*
X175014067Y-88321707D01*
X175224598Y-88378119D01*
X175224600Y-88378119D01*
X175229913Y-88379543D01*
X175458000Y-88399498D01*
X175686087Y-88379543D01*
X175691400Y-88378119D01*
X175691402Y-88378119D01*
X175901933Y-88321707D01*
X175901935Y-88321706D01*
X175907243Y-88320284D01*
X175912225Y-88317961D01*
X176109762Y-88225849D01*
X176109767Y-88225846D01*
X176114749Y-88223523D01*
X176282002Y-88106411D01*
X176297789Y-88095357D01*
X176297792Y-88095355D01*
X176302300Y-88092198D01*
X176464198Y-87930300D01*
X176469873Y-87922196D01*
X176535969Y-87827800D01*
X176595523Y-87742749D01*
X176597846Y-87737767D01*
X176597849Y-87737762D01*
X176689961Y-87540225D01*
X176689961Y-87540224D01*
X176692284Y-87535243D01*
X176694626Y-87526505D01*
X176750119Y-87319402D01*
X176750119Y-87319400D01*
X176751543Y-87314087D01*
X176771498Y-87086000D01*
X181764502Y-87086000D01*
X181784457Y-87314087D01*
X181785881Y-87319400D01*
X181785881Y-87319402D01*
X181841375Y-87526505D01*
X181843716Y-87535243D01*
X181846039Y-87540224D01*
X181846039Y-87540225D01*
X181938151Y-87737762D01*
X181938154Y-87737767D01*
X181940477Y-87742749D01*
X182000031Y-87827800D01*
X182066128Y-87922196D01*
X182071802Y-87930300D01*
X182233700Y-88092198D01*
X182238208Y-88095355D01*
X182238211Y-88095357D01*
X182253998Y-88106411D01*
X182421251Y-88223523D01*
X182426233Y-88225846D01*
X182426238Y-88225849D01*
X182623775Y-88317961D01*
X182628757Y-88320284D01*
X182634065Y-88321706D01*
X182634067Y-88321707D01*
X182844598Y-88378119D01*
X182844600Y-88378119D01*
X182849913Y-88379543D01*
X183078000Y-88399498D01*
X183306087Y-88379543D01*
X183311400Y-88378119D01*
X183311402Y-88378119D01*
X183521933Y-88321707D01*
X183521935Y-88321706D01*
X183527243Y-88320284D01*
X183532225Y-88317961D01*
X183729762Y-88225849D01*
X183729767Y-88225846D01*
X183734749Y-88223523D01*
X183902002Y-88106411D01*
X183917789Y-88095357D01*
X183917792Y-88095355D01*
X183922300Y-88092198D01*
X184084198Y-87930300D01*
X184089873Y-87922196D01*
X184155969Y-87827800D01*
X184215523Y-87742749D01*
X184217846Y-87737767D01*
X184217849Y-87737762D01*
X184309961Y-87540225D01*
X184309961Y-87540224D01*
X184312284Y-87535243D01*
X184314626Y-87526505D01*
X184370119Y-87319402D01*
X184370119Y-87319400D01*
X184371543Y-87314087D01*
X184391498Y-87086000D01*
X184371543Y-86857913D01*
X184370119Y-86852598D01*
X184313707Y-86642067D01*
X184313706Y-86642065D01*
X184312284Y-86636757D01*
X184299674Y-86609715D01*
X184217849Y-86434238D01*
X184217846Y-86434233D01*
X184215523Y-86429251D01*
X184122892Y-86296961D01*
X184087357Y-86246211D01*
X184087355Y-86246208D01*
X184084198Y-86241700D01*
X183922300Y-86079802D01*
X183917792Y-86076645D01*
X183917789Y-86076643D01*
X183770604Y-85973583D01*
X183734749Y-85948477D01*
X183729767Y-85946154D01*
X183729762Y-85946151D01*
X183532225Y-85854039D01*
X183532224Y-85854039D01*
X183527243Y-85851716D01*
X183521935Y-85850294D01*
X183521933Y-85850293D01*
X183311402Y-85793881D01*
X183311400Y-85793881D01*
X183306087Y-85792457D01*
X183078000Y-85772502D01*
X182849913Y-85792457D01*
X182844600Y-85793881D01*
X182844598Y-85793881D01*
X182634067Y-85850293D01*
X182634065Y-85850294D01*
X182628757Y-85851716D01*
X182623776Y-85854039D01*
X182623775Y-85854039D01*
X182426238Y-85946151D01*
X182426233Y-85946154D01*
X182421251Y-85948477D01*
X182385396Y-85973583D01*
X182238211Y-86076643D01*
X182238208Y-86076645D01*
X182233700Y-86079802D01*
X182071802Y-86241700D01*
X182068645Y-86246208D01*
X182068643Y-86246211D01*
X182033108Y-86296961D01*
X181940477Y-86429251D01*
X181938154Y-86434233D01*
X181938151Y-86434238D01*
X181856326Y-86609715D01*
X181843716Y-86636757D01*
X181842294Y-86642065D01*
X181842293Y-86642067D01*
X181785881Y-86852598D01*
X181784457Y-86857913D01*
X181764502Y-87086000D01*
X176771498Y-87086000D01*
X176751543Y-86857913D01*
X176750119Y-86852598D01*
X176693707Y-86642067D01*
X176693706Y-86642065D01*
X176692284Y-86636757D01*
X176679674Y-86609715D01*
X176597849Y-86434238D01*
X176597846Y-86434233D01*
X176595523Y-86429251D01*
X176502892Y-86296961D01*
X176467357Y-86246211D01*
X176467355Y-86246208D01*
X176464198Y-86241700D01*
X176302300Y-86079802D01*
X176297792Y-86076645D01*
X176297789Y-86076643D01*
X176150604Y-85973583D01*
X176114749Y-85948477D01*
X176109767Y-85946154D01*
X176109762Y-85946151D01*
X175912225Y-85854039D01*
X175912224Y-85854039D01*
X175907243Y-85851716D01*
X175901935Y-85850294D01*
X175901933Y-85850293D01*
X175691402Y-85793881D01*
X175691400Y-85793881D01*
X175686087Y-85792457D01*
X175458000Y-85772502D01*
X175229913Y-85792457D01*
X175224600Y-85793881D01*
X175224598Y-85793881D01*
X175014067Y-85850293D01*
X175014065Y-85850294D01*
X175008757Y-85851716D01*
X175003776Y-85854039D01*
X175003775Y-85854039D01*
X174806238Y-85946151D01*
X174806233Y-85946154D01*
X174801251Y-85948477D01*
X174765396Y-85973583D01*
X174618211Y-86076643D01*
X174618208Y-86076645D01*
X174613700Y-86079802D01*
X174451802Y-86241700D01*
X174448645Y-86246208D01*
X174448643Y-86246211D01*
X174413108Y-86296961D01*
X174320477Y-86429251D01*
X174318154Y-86434233D01*
X174318151Y-86434238D01*
X174236326Y-86609715D01*
X174223716Y-86636757D01*
X174222294Y-86642065D01*
X174222293Y-86642067D01*
X174165881Y-86852598D01*
X174164457Y-86857913D01*
X174144502Y-87086000D01*
X158222741Y-87086000D01*
X158261555Y-87007294D01*
X158261556Y-87007291D01*
X158263620Y-87003106D01*
X158344209Y-86751347D01*
X158386700Y-86490441D01*
X158390160Y-86226121D01*
X158354514Y-85964192D01*
X158352181Y-85956186D01*
X158309502Y-85809765D01*
X158280543Y-85710410D01*
X158169873Y-85470348D01*
X158050189Y-85287800D01*
X158027501Y-85253195D01*
X158027497Y-85253190D01*
X158024935Y-85249282D01*
X157895083Y-85103795D01*
X157852031Y-85055559D01*
X157852029Y-85055557D01*
X157848914Y-85052067D01*
X157645676Y-84883036D01*
X157419686Y-84745901D01*
X157375969Y-84727569D01*
X157180224Y-84645486D01*
X157180219Y-84645484D01*
X157175909Y-84643677D01*
X157171377Y-84642526D01*
X157171374Y-84642525D01*
X157043879Y-84610146D01*
X156919699Y-84578608D01*
X156700144Y-84556500D01*
X156542892Y-84556500D01*
X156540567Y-84556673D01*
X156540561Y-84556673D01*
X156351036Y-84570757D01*
X156351032Y-84570758D01*
X156346384Y-84571103D01*
X156088559Y-84629443D01*
X156084207Y-84631135D01*
X156084205Y-84631136D01*
X155846542Y-84723558D01*
X155846540Y-84723559D01*
X155842189Y-84725251D01*
X155838135Y-84727568D01*
X155838133Y-84727569D01*
X155806059Y-84745901D01*
X155612687Y-84856422D01*
X155405094Y-85020075D01*
X155223970Y-85212615D01*
X155221304Y-85216458D01*
X155093158Y-85401181D01*
X155073296Y-85429812D01*
X155071230Y-85434001D01*
X155071229Y-85434003D01*
X154968019Y-85643293D01*
X154956380Y-85666894D01*
X154875791Y-85918653D01*
X154875041Y-85923259D01*
X154839736Y-86140043D01*
X154833300Y-86179559D01*
X154832629Y-86230798D01*
X154830109Y-86423365D01*
X154829840Y-86443879D01*
X152589261Y-86443879D01*
X152624789Y-86408351D01*
X152687101Y-86374326D01*
X152724865Y-86371925D01*
X152794524Y-86378019D01*
X152794525Y-86378019D01*
X152800000Y-86378498D01*
X153028087Y-86358543D01*
X153033400Y-86357119D01*
X153033402Y-86357119D01*
X153243933Y-86300707D01*
X153243935Y-86300706D01*
X153249243Y-86299284D01*
X153254225Y-86296961D01*
X153451762Y-86204849D01*
X153451767Y-86204846D01*
X153456749Y-86202523D01*
X153606844Y-86097425D01*
X153639789Y-86074357D01*
X153639792Y-86074355D01*
X153644300Y-86071198D01*
X153806198Y-85909300D01*
X153814945Y-85896809D01*
X153887015Y-85793881D01*
X153937523Y-85721749D01*
X153939846Y-85716767D01*
X153939849Y-85716762D01*
X154031961Y-85519225D01*
X154031961Y-85519224D01*
X154034284Y-85514243D01*
X154046072Y-85470252D01*
X154092119Y-85298402D01*
X154092119Y-85298400D01*
X154093543Y-85293087D01*
X154113498Y-85065000D01*
X154093543Y-84836913D01*
X154063393Y-84724391D01*
X154035707Y-84621067D01*
X154035706Y-84621065D01*
X154034284Y-84615757D01*
X154014328Y-84572960D01*
X153939849Y-84413238D01*
X153939846Y-84413233D01*
X153937523Y-84408251D01*
X153864098Y-84303389D01*
X153809357Y-84225211D01*
X153809355Y-84225208D01*
X153806198Y-84220700D01*
X153644300Y-84058802D01*
X153639792Y-84055645D01*
X153639789Y-84055643D01*
X153506251Y-83962139D01*
X153456749Y-83927477D01*
X153451767Y-83925154D01*
X153451762Y-83925151D01*
X153254225Y-83833039D01*
X153254224Y-83833039D01*
X153249243Y-83830716D01*
X153243935Y-83829294D01*
X153243933Y-83829293D01*
X153033402Y-83772881D01*
X153033400Y-83772881D01*
X153028087Y-83771457D01*
X152800000Y-83751502D01*
X152571913Y-83771457D01*
X152566600Y-83772881D01*
X152566598Y-83772881D01*
X152356067Y-83829293D01*
X152356065Y-83829294D01*
X152350757Y-83830716D01*
X152345776Y-83833039D01*
X152345775Y-83833039D01*
X152148238Y-83925151D01*
X152148233Y-83925154D01*
X152143251Y-83927477D01*
X152093749Y-83962139D01*
X151960211Y-84055643D01*
X151960208Y-84055645D01*
X151955700Y-84058802D01*
X151793802Y-84220700D01*
X151790645Y-84225208D01*
X151790643Y-84225211D01*
X151735902Y-84303389D01*
X151662477Y-84408251D01*
X151660154Y-84413233D01*
X151660151Y-84413238D01*
X151644195Y-84447457D01*
X151597278Y-84500742D01*
X151529001Y-84520203D01*
X151461041Y-84499661D01*
X151415805Y-84447457D01*
X151399849Y-84413238D01*
X151399846Y-84413233D01*
X151397523Y-84408251D01*
X151324098Y-84303389D01*
X151269357Y-84225211D01*
X151269355Y-84225208D01*
X151266198Y-84220700D01*
X151104300Y-84058802D01*
X151099792Y-84055645D01*
X151099789Y-84055643D01*
X150966251Y-83962139D01*
X150916749Y-83927477D01*
X150911767Y-83925154D01*
X150911762Y-83925151D01*
X150714225Y-83833039D01*
X150714224Y-83833039D01*
X150709243Y-83830716D01*
X150703935Y-83829294D01*
X150703933Y-83829293D01*
X150493402Y-83772881D01*
X150493400Y-83772881D01*
X150488087Y-83771457D01*
X150260000Y-83751502D01*
X150031913Y-83771457D01*
X150026600Y-83772881D01*
X150026598Y-83772881D01*
X149816067Y-83829293D01*
X149816065Y-83829294D01*
X149810757Y-83830716D01*
X149805776Y-83833039D01*
X149805775Y-83833039D01*
X149608238Y-83925151D01*
X149608233Y-83925154D01*
X149603251Y-83927477D01*
X149553749Y-83962139D01*
X149420211Y-84055643D01*
X149420208Y-84055645D01*
X149415700Y-84058802D01*
X149253802Y-84220700D01*
X149250645Y-84225208D01*
X149250643Y-84225211D01*
X149195902Y-84303389D01*
X149122477Y-84408251D01*
X149120154Y-84413233D01*
X149120151Y-84413238D01*
X149104195Y-84447457D01*
X149057278Y-84500742D01*
X148989001Y-84520203D01*
X148921041Y-84499661D01*
X148875805Y-84447457D01*
X148859849Y-84413238D01*
X148859846Y-84413233D01*
X148857523Y-84408251D01*
X148784098Y-84303389D01*
X148729357Y-84225211D01*
X148729355Y-84225208D01*
X148726198Y-84220700D01*
X148564300Y-84058802D01*
X148559792Y-84055645D01*
X148559789Y-84055643D01*
X148426251Y-83962139D01*
X148376749Y-83927477D01*
X148371767Y-83925154D01*
X148371762Y-83925151D01*
X148174225Y-83833039D01*
X148174224Y-83833039D01*
X148169243Y-83830716D01*
X148163935Y-83829294D01*
X148163933Y-83829293D01*
X147953402Y-83772881D01*
X147953400Y-83772881D01*
X147948087Y-83771457D01*
X147720000Y-83751502D01*
X147491913Y-83771457D01*
X147486600Y-83772881D01*
X147486598Y-83772881D01*
X147276067Y-83829293D01*
X147276065Y-83829294D01*
X147270757Y-83830716D01*
X147265776Y-83833039D01*
X147265775Y-83833039D01*
X147068238Y-83925151D01*
X147068233Y-83925154D01*
X147063251Y-83927477D01*
X147013749Y-83962139D01*
X146880211Y-84055643D01*
X146880208Y-84055645D01*
X146875700Y-84058802D01*
X146713802Y-84220700D01*
X146710645Y-84225208D01*
X146710643Y-84225211D01*
X146655902Y-84303389D01*
X146582477Y-84408251D01*
X146580154Y-84413233D01*
X146580151Y-84413238D01*
X146564195Y-84447457D01*
X146517278Y-84500742D01*
X146449001Y-84520203D01*
X146381041Y-84499661D01*
X146335805Y-84447457D01*
X146319849Y-84413238D01*
X146319846Y-84413233D01*
X146317523Y-84408251D01*
X146244098Y-84303389D01*
X146189357Y-84225211D01*
X146189355Y-84225208D01*
X146186198Y-84220700D01*
X146153414Y-84187916D01*
X146119388Y-84125604D01*
X146124453Y-84054789D01*
X146153414Y-84009726D01*
X148300235Y-81862905D01*
X148362547Y-81828879D01*
X148389330Y-81826000D01*
X161713312Y-81826000D01*
X161781433Y-81846002D01*
X161827926Y-81899658D01*
X161838030Y-81969932D01*
X161808536Y-82034512D01*
X161802407Y-82041095D01*
X161787802Y-82055700D01*
X161656477Y-82243251D01*
X161654154Y-82248233D01*
X161654151Y-82248238D01*
X161575172Y-82417611D01*
X161559716Y-82450757D01*
X161558294Y-82456065D01*
X161558293Y-82456067D01*
X161501881Y-82666598D01*
X161500457Y-82671913D01*
X161480502Y-82900000D01*
X161500457Y-83128087D01*
X161559716Y-83349243D01*
X161562039Y-83354224D01*
X161562039Y-83354225D01*
X161654151Y-83551762D01*
X161654154Y-83551767D01*
X161656477Y-83556749D01*
X161787802Y-83744300D01*
X161949700Y-83906198D01*
X161954208Y-83909355D01*
X161954211Y-83909357D01*
X161980089Y-83927477D01*
X162137251Y-84037523D01*
X162142233Y-84039846D01*
X162142238Y-84039849D01*
X162333466Y-84129019D01*
X162344757Y-84134284D01*
X162350065Y-84135706D01*
X162350067Y-84135707D01*
X162560598Y-84192119D01*
X162560600Y-84192119D01*
X162565913Y-84193543D01*
X162794000Y-84213498D01*
X163022087Y-84193543D01*
X163027400Y-84192119D01*
X163027402Y-84192119D01*
X163237933Y-84135707D01*
X163237935Y-84135706D01*
X163243243Y-84134284D01*
X163254534Y-84129019D01*
X163445762Y-84039849D01*
X163445767Y-84039846D01*
X163450749Y-84037523D01*
X163607911Y-83927477D01*
X163633789Y-83909357D01*
X163633792Y-83909355D01*
X163638300Y-83906198D01*
X163800198Y-83744300D01*
X163931523Y-83556749D01*
X163933846Y-83551767D01*
X163933849Y-83551762D01*
X164025961Y-83354225D01*
X164025961Y-83354224D01*
X164028284Y-83349243D01*
X164087543Y-83128087D01*
X164107498Y-82900000D01*
X164087543Y-82671913D01*
X164086119Y-82666598D01*
X164029707Y-82456067D01*
X164029706Y-82456065D01*
X164028284Y-82450757D01*
X164012828Y-82417611D01*
X163933849Y-82248238D01*
X163933846Y-82248233D01*
X163931523Y-82243251D01*
X163800198Y-82055700D01*
X163785593Y-82041095D01*
X163751567Y-81978783D01*
X163756632Y-81907968D01*
X163799179Y-81851132D01*
X163865699Y-81826321D01*
X163874688Y-81826000D01*
X168119668Y-81826000D01*
X168187789Y-81846002D01*
X168208763Y-81862904D01*
X169070649Y-82724789D01*
X169104674Y-82787102D01*
X169107075Y-82824866D01*
X169100502Y-82900000D01*
X169120457Y-83128087D01*
X169179716Y-83349243D01*
X169182039Y-83354224D01*
X169182039Y-83354225D01*
X169274151Y-83551762D01*
X169274154Y-83551767D01*
X169276477Y-83556749D01*
X169407802Y-83744300D01*
X169569700Y-83906198D01*
X169574208Y-83909355D01*
X169574211Y-83909357D01*
X169600089Y-83927477D01*
X169757251Y-84037523D01*
X169762233Y-84039846D01*
X169762238Y-84039849D01*
X169953466Y-84129019D01*
X169964757Y-84134284D01*
X169970065Y-84135706D01*
X169970067Y-84135707D01*
X170180598Y-84192119D01*
X170180600Y-84192119D01*
X170185913Y-84193543D01*
X170414000Y-84213498D01*
X170642087Y-84193543D01*
X170647400Y-84192119D01*
X170647402Y-84192119D01*
X170857933Y-84135707D01*
X170857935Y-84135706D01*
X170863243Y-84134284D01*
X170874534Y-84129019D01*
X171065762Y-84039849D01*
X171065767Y-84039846D01*
X171070749Y-84037523D01*
X171227911Y-83927477D01*
X171253789Y-83909357D01*
X171253792Y-83909355D01*
X171258300Y-83906198D01*
X171420198Y-83744300D01*
X171551523Y-83556749D01*
X171553846Y-83551767D01*
X171553849Y-83551762D01*
X171645961Y-83354225D01*
X171645961Y-83354224D01*
X171648284Y-83349243D01*
X171707543Y-83128087D01*
X171727498Y-82900000D01*
X171720925Y-82824866D01*
X171734914Y-82755263D01*
X171757350Y-82724791D01*
X172619235Y-81862905D01*
X172681548Y-81828880D01*
X172708331Y-81826000D01*
X174367778Y-81826000D01*
X174435899Y-81846002D01*
X174482392Y-81899658D01*
X174492496Y-81969932D01*
X174470991Y-82024271D01*
X174379634Y-82154742D01*
X174376477Y-82159251D01*
X174374154Y-82164233D01*
X174374151Y-82164238D01*
X174302566Y-82317755D01*
X174279716Y-82366757D01*
X174278294Y-82372065D01*
X174278293Y-82372067D01*
X174258543Y-82445775D01*
X174220457Y-82587913D01*
X174200502Y-82816000D01*
X174220457Y-83044087D01*
X174221881Y-83049400D01*
X174221881Y-83049402D01*
X174241497Y-83122607D01*
X174279716Y-83265243D01*
X174282039Y-83270224D01*
X174282039Y-83270225D01*
X174374151Y-83467762D01*
X174374154Y-83467767D01*
X174376477Y-83472749D01*
X174422323Y-83538223D01*
X174484103Y-83626454D01*
X174507802Y-83660300D01*
X174669700Y-83822198D01*
X174674208Y-83825355D01*
X174674211Y-83825357D01*
X174744843Y-83874814D01*
X174857251Y-83953523D01*
X174862233Y-83955846D01*
X174862238Y-83955849D01*
X175042379Y-84039849D01*
X175064757Y-84050284D01*
X175070065Y-84051706D01*
X175070067Y-84051707D01*
X175280598Y-84108119D01*
X175280600Y-84108119D01*
X175285913Y-84109543D01*
X175514000Y-84129498D01*
X175742087Y-84109543D01*
X175747400Y-84108119D01*
X175747402Y-84108119D01*
X175957933Y-84051707D01*
X175957935Y-84051706D01*
X175963243Y-84050284D01*
X175985621Y-84039849D01*
X176165762Y-83955849D01*
X176165767Y-83955846D01*
X176170749Y-83953523D01*
X176283157Y-83874814D01*
X176353789Y-83825357D01*
X176353792Y-83825355D01*
X176358300Y-83822198D01*
X176520198Y-83660300D01*
X176543898Y-83626454D01*
X176605677Y-83538223D01*
X176651523Y-83472749D01*
X176653846Y-83467767D01*
X176653849Y-83467762D01*
X176745961Y-83270225D01*
X176745961Y-83270224D01*
X176748284Y-83265243D01*
X176786504Y-83122607D01*
X176806119Y-83049402D01*
X176806119Y-83049400D01*
X176807543Y-83044087D01*
X176827498Y-82816000D01*
X176807543Y-82587913D01*
X176769457Y-82445775D01*
X176749707Y-82372067D01*
X176749706Y-82372065D01*
X176748284Y-82366757D01*
X176725434Y-82317755D01*
X176653849Y-82164238D01*
X176653846Y-82164233D01*
X176651523Y-82159251D01*
X176648366Y-82154742D01*
X176557009Y-82024271D01*
X176534321Y-81956997D01*
X176551606Y-81888136D01*
X176603376Y-81839552D01*
X176660222Y-81826000D01*
X181987778Y-81826000D01*
X182055899Y-81846002D01*
X182102392Y-81899658D01*
X182112496Y-81969932D01*
X182090991Y-82024271D01*
X181999634Y-82154742D01*
X181996477Y-82159251D01*
X181994154Y-82164233D01*
X181994151Y-82164238D01*
X181922566Y-82317755D01*
X181899716Y-82366757D01*
X181898294Y-82372065D01*
X181898293Y-82372067D01*
X181878543Y-82445775D01*
X181840457Y-82587913D01*
X181820502Y-82816000D01*
X181840457Y-83044087D01*
X181841881Y-83049400D01*
X181841881Y-83049402D01*
X181861497Y-83122607D01*
X181899716Y-83265243D01*
X181902039Y-83270224D01*
X181902039Y-83270225D01*
X181994151Y-83467762D01*
X181994154Y-83467767D01*
X181996477Y-83472749D01*
X182042323Y-83538223D01*
X182104103Y-83626454D01*
X182127802Y-83660300D01*
X182289700Y-83822198D01*
X182294208Y-83825355D01*
X182294211Y-83825357D01*
X182364843Y-83874814D01*
X182477251Y-83953523D01*
X182482233Y-83955846D01*
X182482238Y-83955849D01*
X182662379Y-84039849D01*
X182684757Y-84050284D01*
X182690065Y-84051706D01*
X182690067Y-84051707D01*
X182900598Y-84108119D01*
X182900600Y-84108119D01*
X182905913Y-84109543D01*
X183134000Y-84129498D01*
X183362087Y-84109543D01*
X183367400Y-84108119D01*
X183367402Y-84108119D01*
X183577933Y-84051707D01*
X183577935Y-84051706D01*
X183583243Y-84050284D01*
X183605621Y-84039849D01*
X183785762Y-83955849D01*
X183785767Y-83955846D01*
X183790749Y-83953523D01*
X183903157Y-83874814D01*
X183973789Y-83825357D01*
X183973792Y-83825355D01*
X183978300Y-83822198D01*
X184140198Y-83660300D01*
X184163898Y-83626454D01*
X184225677Y-83538223D01*
X184271523Y-83472749D01*
X184273846Y-83467767D01*
X184273849Y-83467762D01*
X184365961Y-83270225D01*
X184365961Y-83270224D01*
X184368284Y-83265243D01*
X184406504Y-83122607D01*
X184426119Y-83049402D01*
X184426119Y-83049400D01*
X184427543Y-83044087D01*
X184447498Y-82816000D01*
X184427543Y-82587913D01*
X184389457Y-82445775D01*
X184369707Y-82372067D01*
X184369706Y-82372065D01*
X184368284Y-82366757D01*
X184345434Y-82317755D01*
X184273849Y-82164238D01*
X184273846Y-82164233D01*
X184271523Y-82159251D01*
X184268366Y-82154742D01*
X184177009Y-82024271D01*
X184154321Y-81956997D01*
X184171606Y-81888136D01*
X184223376Y-81839552D01*
X184280222Y-81826000D01*
X191925669Y-81826000D01*
X191993790Y-81846002D01*
X192014764Y-81862905D01*
X196350232Y-86198373D01*
X196384258Y-86260685D01*
X196386424Y-86300857D01*
X196377251Y-86386695D01*
X196377548Y-86391848D01*
X196377548Y-86391851D01*
X196384164Y-86506590D01*
X196390110Y-86609715D01*
X196391247Y-86614761D01*
X196391248Y-86614767D01*
X196396204Y-86636757D01*
X196439222Y-86827639D01*
X196523266Y-87034616D01*
X196639987Y-87225088D01*
X196786250Y-87393938D01*
X196958126Y-87536632D01*
X196964275Y-87540225D01*
X197031445Y-87579476D01*
X197080169Y-87631114D01*
X197093240Y-87700897D01*
X197066509Y-87766669D01*
X197026055Y-87800027D01*
X197013607Y-87806507D01*
X197009474Y-87809610D01*
X197009471Y-87809612D01*
X196839100Y-87937530D01*
X196834965Y-87940635D01*
X196831393Y-87944373D01*
X196728640Y-88051898D01*
X196680629Y-88102138D01*
X196554743Y-88286680D01*
X196531080Y-88337658D01*
X196472564Y-88463721D01*
X196460688Y-88489305D01*
X196451981Y-88520702D01*
X196450851Y-88524776D01*
X196413372Y-88585074D01*
X196349243Y-88615537D01*
X196278825Y-88606494D01*
X196240339Y-88580199D01*
X195190385Y-87530245D01*
X195183242Y-87522478D01*
X195155390Y-87489520D01*
X195150985Y-87484307D01*
X195088934Y-87436866D01*
X195086514Y-87434968D01*
X195063485Y-87416452D01*
X195025650Y-87386031D01*
X195019540Y-87382998D01*
X195017504Y-87381696D01*
X195017048Y-87381377D01*
X195016390Y-87380967D01*
X195015900Y-87380698D01*
X195013834Y-87379447D01*
X195008414Y-87375303D01*
X194937646Y-87342304D01*
X194934875Y-87340970D01*
X194902621Y-87324959D01*
X194864898Y-87306233D01*
X194858273Y-87304581D01*
X194856006Y-87303747D01*
X194855481Y-87303528D01*
X194854777Y-87303279D01*
X194854227Y-87303117D01*
X194851943Y-87302339D01*
X194845761Y-87299457D01*
X194839103Y-87297969D01*
X194839095Y-87297966D01*
X194769542Y-87282419D01*
X194766546Y-87281711D01*
X194697385Y-87264467D01*
X194697382Y-87264467D01*
X194690762Y-87262816D01*
X194683941Y-87262625D01*
X194681544Y-87262297D01*
X194680430Y-87262096D01*
X194675656Y-87261434D01*
X194670616Y-87260307D01*
X194665125Y-87260000D01*
X194591711Y-87260000D01*
X194588193Y-87259951D01*
X194587283Y-87259926D01*
X194511365Y-87257805D01*
X194504658Y-87259084D01*
X194498323Y-87259594D01*
X194488216Y-87260000D01*
X193390751Y-87260000D01*
X193322630Y-87239998D01*
X193301656Y-87223095D01*
X193138754Y-87060193D01*
X193134246Y-87057036D01*
X193134243Y-87057034D01*
X192952057Y-86929466D01*
X192952055Y-86929465D01*
X192947548Y-86926309D01*
X192942566Y-86923986D01*
X192942561Y-86923983D01*
X192740980Y-86829984D01*
X192740978Y-86829983D01*
X192735998Y-86827661D01*
X192730690Y-86826239D01*
X192730688Y-86826238D01*
X192515847Y-86768672D01*
X192515845Y-86768672D01*
X192510532Y-86767248D01*
X192278000Y-86746904D01*
X192045468Y-86767248D01*
X192040155Y-86768672D01*
X192040153Y-86768672D01*
X191825312Y-86826238D01*
X191825310Y-86826239D01*
X191820002Y-86827661D01*
X191815022Y-86829983D01*
X191815020Y-86829984D01*
X191613439Y-86923983D01*
X191613434Y-86923986D01*
X191608452Y-86926309D01*
X191603945Y-86929465D01*
X191603943Y-86929466D01*
X191421757Y-87057034D01*
X191421754Y-87057036D01*
X191417246Y-87060193D01*
X191252193Y-87225246D01*
X191249036Y-87229754D01*
X191249034Y-87229757D01*
X191124262Y-87407950D01*
X191118309Y-87416452D01*
X191115986Y-87421434D01*
X191115983Y-87421439D01*
X191021984Y-87623020D01*
X191019661Y-87628002D01*
X191018239Y-87633310D01*
X191018238Y-87633312D01*
X190966686Y-87825709D01*
X190959248Y-87853468D01*
X190938904Y-88086000D01*
X190959248Y-88318532D01*
X190960672Y-88323845D01*
X190960672Y-88323847D01*
X191014511Y-88524776D01*
X191019661Y-88543998D01*
X191021983Y-88548978D01*
X191021984Y-88548980D01*
X191115983Y-88750561D01*
X191115986Y-88750566D01*
X191118309Y-88755548D01*
X191121465Y-88760055D01*
X191121466Y-88760057D01*
X191241864Y-88932002D01*
X191252193Y-88946754D01*
X191417246Y-89111807D01*
X191421754Y-89114964D01*
X191421757Y-89114966D01*
X191586037Y-89229996D01*
X191608452Y-89245691D01*
X191613434Y-89248014D01*
X191613439Y-89248017D01*
X191781787Y-89326519D01*
X191820002Y-89344339D01*
X191825310Y-89345761D01*
X191825312Y-89345762D01*
X192040153Y-89403328D01*
X192040155Y-89403328D01*
X192045468Y-89404752D01*
X192278000Y-89425096D01*
X192510532Y-89404752D01*
X192515845Y-89403328D01*
X192515847Y-89403328D01*
X192730688Y-89345762D01*
X192730690Y-89345761D01*
X192735998Y-89344339D01*
X192774213Y-89326519D01*
X192942561Y-89248017D01*
X192942566Y-89248014D01*
X192947548Y-89245691D01*
X192969963Y-89229996D01*
X193134243Y-89114966D01*
X193134246Y-89114964D01*
X193138754Y-89111807D01*
X193301656Y-88948905D01*
X193363968Y-88914879D01*
X193390751Y-88912000D01*
X194183669Y-88912000D01*
X194251790Y-88932002D01*
X194272764Y-88948905D01*
X195330521Y-90006661D01*
X196385384Y-91061524D01*
X196419409Y-91123836D01*
X196417706Y-91184291D01*
X196400989Y-91244570D01*
X196377251Y-91466695D01*
X196377548Y-91471848D01*
X196377548Y-91471851D01*
X196383011Y-91566590D01*
X196390110Y-91689715D01*
X196391247Y-91694761D01*
X196391248Y-91694767D01*
X196409148Y-91774193D01*
X196439222Y-91907639D01*
X196494663Y-92044174D01*
X196515188Y-92094721D01*
X196523266Y-92114616D01*
X196532845Y-92130247D01*
X196631236Y-92290807D01*
X196639987Y-92305088D01*
X196786250Y-92473938D01*
X196958126Y-92616632D01*
X197031955Y-92659774D01*
X197080679Y-92711412D01*
X197093750Y-92781195D01*
X197067019Y-92846967D01*
X197026562Y-92880327D01*
X197018457Y-92884546D01*
X197009738Y-92890036D01*
X196839433Y-93017905D01*
X196831726Y-93024748D01*
X196684590Y-93178717D01*
X196678104Y-93186727D01*
X196558098Y-93362649D01*
X196553000Y-93371623D01*
X196463338Y-93564783D01*
X196459775Y-93574470D01*
X196404389Y-93774183D01*
X196405912Y-93782607D01*
X196418292Y-93786000D01*
X199058344Y-93786000D01*
X199071875Y-93782027D01*
X199073180Y-93772947D01*
X199031214Y-93605875D01*
X199027894Y-93596124D01*
X198942972Y-93400814D01*
X198938105Y-93391739D01*
X198822426Y-93212926D01*
X198816136Y-93204757D01*
X198672806Y-93047240D01*
X198665273Y-93040215D01*
X198498139Y-92908222D01*
X198489556Y-92902520D01*
X198452602Y-92882120D01*
X198402631Y-92831687D01*
X198397508Y-92807604D01*
X200034787Y-92807604D01*
X200044567Y-93018899D01*
X200045971Y-93024724D01*
X200045971Y-93024725D01*
X200085014Y-93186727D01*
X200094125Y-93224534D01*
X200096607Y-93229992D01*
X200096608Y-93229996D01*
X200138256Y-93321594D01*
X200181674Y-93417087D01*
X200304054Y-93589611D01*
X200456850Y-93735881D01*
X200461881Y-93739130D01*
X200461888Y-93739135D01*
X200489607Y-93757033D01*
X200535984Y-93810789D01*
X200545937Y-93881085D01*
X200516304Y-93945602D01*
X200499091Y-93961970D01*
X200384143Y-94052262D01*
X200375494Y-94060499D01*
X200244788Y-94211123D01*
X200237853Y-94220847D01*
X200137990Y-94393467D01*
X200133016Y-94404331D01*
X200067593Y-94592727D01*
X200067352Y-94593716D01*
X200068820Y-94604008D01*
X200082385Y-94608000D01*
X202757402Y-94608000D01*
X202770933Y-94604027D01*
X202772288Y-94594601D01*
X202750806Y-94505463D01*
X202746917Y-94494168D01*
X202664371Y-94312618D01*
X202658424Y-94302276D01*
X202543032Y-94139603D01*
X202535239Y-94130575D01*
X202391169Y-93992658D01*
X202381800Y-93985259D01*
X202354423Y-93967582D01*
X202308045Y-93913828D01*
X202298091Y-93843532D01*
X202327722Y-93779015D01*
X202344937Y-93762644D01*
X202460202Y-93672102D01*
X202464920Y-93668396D01*
X202468852Y-93663865D01*
X202468855Y-93663862D01*
X202599621Y-93513167D01*
X202603552Y-93508637D01*
X202606552Y-93503451D01*
X202606555Y-93503447D01*
X202706467Y-93330742D01*
X202709473Y-93325546D01*
X202778861Y-93125729D01*
X202779722Y-93119792D01*
X202808352Y-92922336D01*
X202808352Y-92922333D01*
X202809213Y-92916396D01*
X202799433Y-92705101D01*
X202758439Y-92535000D01*
X202751281Y-92505299D01*
X202751280Y-92505297D01*
X202749875Y-92499466D01*
X202739782Y-92477266D01*
X202664806Y-92312368D01*
X202662326Y-92306913D01*
X202539946Y-92134389D01*
X202387150Y-91988119D01*
X202381255Y-91984312D01*
X202354837Y-91967254D01*
X202308460Y-91913499D01*
X202298507Y-91843203D01*
X202328139Y-91778686D01*
X202345353Y-91762317D01*
X202352446Y-91756746D01*
X202464920Y-91668396D01*
X202468852Y-91663865D01*
X202468855Y-91663862D01*
X202599621Y-91513167D01*
X202603552Y-91508637D01*
X202606552Y-91503451D01*
X202606555Y-91503447D01*
X202706467Y-91330742D01*
X202709473Y-91325546D01*
X202778861Y-91125729D01*
X202787562Y-91065720D01*
X202808352Y-90922336D01*
X202808352Y-90922333D01*
X202809213Y-90916396D01*
X202799433Y-90705101D01*
X202767819Y-90573923D01*
X202751281Y-90505299D01*
X202751280Y-90505297D01*
X202749875Y-90499466D01*
X202706525Y-90404122D01*
X202664806Y-90312368D01*
X202662326Y-90306913D01*
X202568669Y-90174880D01*
X202543412Y-90139275D01*
X202543411Y-90139274D01*
X202539946Y-90134389D01*
X202387150Y-89988119D01*
X202381255Y-89984312D01*
X202354837Y-89967254D01*
X202308460Y-89913499D01*
X202298507Y-89843203D01*
X202328139Y-89778686D01*
X202345353Y-89762317D01*
X202352446Y-89756746D01*
X202464920Y-89668396D01*
X202468852Y-89663865D01*
X202468855Y-89663862D01*
X202599621Y-89513167D01*
X202603552Y-89508637D01*
X202606552Y-89503451D01*
X202606555Y-89503447D01*
X202706467Y-89330742D01*
X202709473Y-89325546D01*
X202778861Y-89125729D01*
X202781445Y-89107910D01*
X202808352Y-88922336D01*
X202808352Y-88922333D01*
X202809213Y-88916396D01*
X202799433Y-88705101D01*
X202760607Y-88543998D01*
X202751281Y-88505299D01*
X202751280Y-88505297D01*
X202749875Y-88499466D01*
X202743121Y-88484610D01*
X202669052Y-88321707D01*
X202662326Y-88306913D01*
X202539946Y-88134389D01*
X202387150Y-87988119D01*
X202209452Y-87873380D01*
X202133652Y-87842832D01*
X202018832Y-87796558D01*
X202018829Y-87796557D01*
X202013263Y-87794314D01*
X201805663Y-87753772D01*
X201800101Y-87753500D01*
X201094154Y-87753500D01*
X200936434Y-87768548D01*
X200733466Y-87828092D01*
X200728139Y-87830836D01*
X200728138Y-87830836D01*
X200550751Y-87922196D01*
X200550748Y-87922198D01*
X200545420Y-87924942D01*
X200379080Y-88055604D01*
X200375148Y-88060135D01*
X200375145Y-88060138D01*
X200286043Y-88162819D01*
X200240448Y-88215363D01*
X200237448Y-88220549D01*
X200237445Y-88220553D01*
X200178926Y-88321707D01*
X200134527Y-88398454D01*
X200065139Y-88598271D01*
X200064278Y-88604206D01*
X200064278Y-88604208D01*
X200045700Y-88732342D01*
X200034787Y-88807604D01*
X200044567Y-89018899D01*
X200045971Y-89024724D01*
X200045971Y-89024725D01*
X200066019Y-89107910D01*
X200094125Y-89224534D01*
X200096607Y-89229992D01*
X200096608Y-89229996D01*
X200138010Y-89321054D01*
X200181674Y-89417087D01*
X200304054Y-89589611D01*
X200456850Y-89735881D01*
X200461888Y-89739134D01*
X200489163Y-89756746D01*
X200535540Y-89810501D01*
X200545493Y-89880797D01*
X200515861Y-89945314D01*
X200498649Y-89961681D01*
X200379080Y-90055604D01*
X200375148Y-90060135D01*
X200375145Y-90060138D01*
X200256554Y-90196802D01*
X200240448Y-90215363D01*
X200237448Y-90220549D01*
X200237445Y-90220553D01*
X200196480Y-90291364D01*
X200134527Y-90398454D01*
X200065139Y-90598271D01*
X200064278Y-90604206D01*
X200064278Y-90604208D01*
X200054989Y-90668277D01*
X200034787Y-90807604D01*
X200044567Y-91018899D01*
X200045971Y-91024724D01*
X200045971Y-91024725D01*
X200054642Y-91060702D01*
X200094125Y-91224534D01*
X200096607Y-91229992D01*
X200096608Y-91229996D01*
X200140053Y-91325546D01*
X200181674Y-91417087D01*
X200304054Y-91589611D01*
X200456850Y-91735881D01*
X200461888Y-91739134D01*
X200489163Y-91756746D01*
X200535540Y-91810501D01*
X200545493Y-91880797D01*
X200515861Y-91945314D01*
X200498649Y-91961681D01*
X200379080Y-92055604D01*
X200375148Y-92060135D01*
X200375145Y-92060138D01*
X200306474Y-92139275D01*
X200240448Y-92215363D01*
X200237448Y-92220549D01*
X200237445Y-92220553D01*
X200187485Y-92306913D01*
X200134527Y-92398454D01*
X200065139Y-92598271D01*
X200064278Y-92604206D01*
X200064278Y-92604208D01*
X200044646Y-92739611D01*
X200034787Y-92807604D01*
X198397508Y-92807604D01*
X198387859Y-92762245D01*
X198412975Y-92695839D01*
X198440327Y-92669232D01*
X198475536Y-92644118D01*
X198619860Y-92541173D01*
X198637757Y-92523339D01*
X198724615Y-92436783D01*
X198778096Y-92383489D01*
X198837594Y-92300689D01*
X198905435Y-92206277D01*
X198908453Y-92202077D01*
X198918534Y-92181681D01*
X199005136Y-92006453D01*
X199005137Y-92006451D01*
X199007430Y-92001811D01*
X199051275Y-91857502D01*
X199070865Y-91793023D01*
X199070865Y-91793021D01*
X199072370Y-91788069D01*
X199101529Y-91566590D01*
X199103156Y-91500000D01*
X199084852Y-91277361D01*
X199030431Y-91060702D01*
X198941354Y-90855840D01*
X198820014Y-90668277D01*
X198669670Y-90503051D01*
X198665619Y-90499852D01*
X198665615Y-90499848D01*
X198498414Y-90367800D01*
X198498410Y-90367798D01*
X198494359Y-90364598D01*
X198453053Y-90341796D01*
X198403084Y-90291364D01*
X198388312Y-90221921D01*
X198413428Y-90155516D01*
X198440780Y-90128909D01*
X198484603Y-90097650D01*
X198619860Y-90001173D01*
X198651788Y-89969357D01*
X198760619Y-89860905D01*
X198778096Y-89843489D01*
X198824662Y-89778686D01*
X198905435Y-89666277D01*
X198908453Y-89662077D01*
X198918235Y-89642286D01*
X199005136Y-89466453D01*
X199005137Y-89466451D01*
X199007430Y-89461811D01*
X199042687Y-89345768D01*
X199070865Y-89253023D01*
X199070865Y-89253021D01*
X199072370Y-89248069D01*
X199101529Y-89026590D01*
X199103156Y-88960000D01*
X199084852Y-88737361D01*
X199030431Y-88520702D01*
X198941354Y-88315840D01*
X198882782Y-88225302D01*
X198822822Y-88132617D01*
X198822820Y-88132614D01*
X198820014Y-88128277D01*
X198669670Y-87963051D01*
X198665619Y-87959852D01*
X198665615Y-87959848D01*
X198498414Y-87827800D01*
X198498410Y-87827798D01*
X198494359Y-87824598D01*
X198453053Y-87801796D01*
X198403084Y-87751364D01*
X198388312Y-87681921D01*
X198413428Y-87615516D01*
X198440780Y-87588909D01*
X198484603Y-87557650D01*
X198619860Y-87461173D01*
X198623662Y-87457385D01*
X198774435Y-87307137D01*
X198778096Y-87303489D01*
X198787310Y-87290667D01*
X198905435Y-87126277D01*
X198908453Y-87122077D01*
X198923578Y-87091475D01*
X199005136Y-86926453D01*
X199005137Y-86926451D01*
X199007430Y-86921811D01*
X199059221Y-86751347D01*
X199070865Y-86713023D01*
X199070865Y-86713021D01*
X199072370Y-86708069D01*
X199101529Y-86486590D01*
X199101611Y-86483240D01*
X199103074Y-86423365D01*
X199103074Y-86423361D01*
X199103156Y-86420000D01*
X199084852Y-86197361D01*
X199030431Y-85980702D01*
X198941354Y-85775840D01*
X198868164Y-85662706D01*
X198822822Y-85592617D01*
X198822820Y-85592614D01*
X198820014Y-85588277D01*
X198669670Y-85423051D01*
X198665619Y-85419852D01*
X198665615Y-85419848D01*
X198498414Y-85287800D01*
X198498410Y-85287798D01*
X198494359Y-85284598D01*
X198298789Y-85176638D01*
X198293920Y-85174914D01*
X198293916Y-85174912D01*
X198093087Y-85103795D01*
X198093083Y-85103794D01*
X198088212Y-85102069D01*
X198083119Y-85101162D01*
X198083116Y-85101161D01*
X197873373Y-85063800D01*
X197873367Y-85063799D01*
X197868284Y-85062894D01*
X197794452Y-85061992D01*
X197650081Y-85060228D01*
X197650079Y-85060228D01*
X197644911Y-85060165D01*
X197639802Y-85060947D01*
X197639799Y-85060947D01*
X197633596Y-85061896D01*
X197624177Y-85063338D01*
X197553816Y-85053871D01*
X197516023Y-85027883D01*
X192932385Y-80444245D01*
X192925242Y-80436478D01*
X192901767Y-80408699D01*
X192892985Y-80398307D01*
X192830934Y-80350866D01*
X192828514Y-80348968D01*
X192767650Y-80300031D01*
X192761540Y-80296998D01*
X192759504Y-80295696D01*
X192759048Y-80295377D01*
X192758390Y-80294967D01*
X192757900Y-80294698D01*
X192755834Y-80293447D01*
X192750414Y-80289303D01*
X192679646Y-80256304D01*
X192676875Y-80254970D01*
X192668896Y-80251009D01*
X192606898Y-80220233D01*
X192600273Y-80218581D01*
X192598006Y-80217747D01*
X192597481Y-80217528D01*
X192596777Y-80217279D01*
X192596227Y-80217117D01*
X192593943Y-80216339D01*
X192587761Y-80213457D01*
X192581103Y-80211969D01*
X192581095Y-80211966D01*
X192511542Y-80196419D01*
X192508546Y-80195711D01*
X192439385Y-80178467D01*
X192439382Y-80178467D01*
X192432762Y-80176816D01*
X192425941Y-80176625D01*
X192423544Y-80176297D01*
X192422430Y-80176096D01*
X192417656Y-80175434D01*
X192412616Y-80174307D01*
X192407125Y-80174000D01*
X192333711Y-80174000D01*
X192330193Y-80173951D01*
X192329283Y-80173926D01*
X192253365Y-80171805D01*
X192246658Y-80173084D01*
X192240323Y-80173594D01*
X192230216Y-80174000D01*
X172354034Y-80174000D01*
X172343490Y-80173558D01*
X172334001Y-80172761D01*
X172293701Y-80169377D01*
X172286942Y-80170279D01*
X172286937Y-80170279D01*
X172216306Y-80179703D01*
X172213252Y-80180073D01*
X172142366Y-80187774D01*
X172142365Y-80187774D01*
X172135583Y-80188511D01*
X172129116Y-80190688D01*
X172126768Y-80191204D01*
X172126210Y-80191302D01*
X172125452Y-80191479D01*
X172124915Y-80191635D01*
X172122568Y-80192211D01*
X172115810Y-80193113D01*
X172059915Y-80213457D01*
X172042460Y-80219810D01*
X172039557Y-80220826D01*
X171971961Y-80243575D01*
X171971954Y-80243578D01*
X171965489Y-80245754D01*
X171959640Y-80249269D01*
X171957447Y-80250282D01*
X171956932Y-80250494D01*
X171956234Y-80250827D01*
X171955733Y-80251100D01*
X171953579Y-80252160D01*
X171947166Y-80254494D01*
X171881198Y-80296359D01*
X171878624Y-80297948D01*
X171811656Y-80338186D01*
X171806705Y-80342867D01*
X171804769Y-80344337D01*
X171803838Y-80344984D01*
X171800000Y-80347887D01*
X171795636Y-80350657D01*
X171791537Y-80354323D01*
X171739632Y-80406228D01*
X171737110Y-80408681D01*
X171686223Y-80456802D01*
X171686220Y-80456806D01*
X171681260Y-80461496D01*
X171677422Y-80467143D01*
X171673293Y-80471995D01*
X171666435Y-80479425D01*
X170589211Y-81556649D01*
X170526899Y-81590675D01*
X170489135Y-81593075D01*
X170419476Y-81586981D01*
X170419475Y-81586981D01*
X170414000Y-81586502D01*
X170408525Y-81586981D01*
X170408524Y-81586981D01*
X170338865Y-81593075D01*
X170269260Y-81579085D01*
X170238789Y-81556649D01*
X169126385Y-80444245D01*
X169119242Y-80436478D01*
X169095767Y-80408699D01*
X169086985Y-80398307D01*
X169024934Y-80350866D01*
X169022514Y-80348968D01*
X168961650Y-80300031D01*
X168955540Y-80296998D01*
X168953504Y-80295696D01*
X168953048Y-80295377D01*
X168952390Y-80294967D01*
X168951900Y-80294698D01*
X168949834Y-80293447D01*
X168944414Y-80289303D01*
X168873646Y-80256304D01*
X168870875Y-80254970D01*
X168862896Y-80251009D01*
X168800898Y-80220233D01*
X168794273Y-80218581D01*
X168792006Y-80217747D01*
X168791481Y-80217528D01*
X168790777Y-80217279D01*
X168790227Y-80217117D01*
X168787943Y-80216339D01*
X168781761Y-80213457D01*
X168775103Y-80211969D01*
X168775095Y-80211966D01*
X168705542Y-80196419D01*
X168702546Y-80195711D01*
X168633385Y-80178467D01*
X168633382Y-80178467D01*
X168626762Y-80176816D01*
X168619941Y-80176625D01*
X168617544Y-80176297D01*
X168616430Y-80176096D01*
X168611656Y-80175434D01*
X168606616Y-80174307D01*
X168601125Y-80174000D01*
X168527711Y-80174000D01*
X168524193Y-80173951D01*
X168523283Y-80173926D01*
X168447365Y-80171805D01*
X168440658Y-80173084D01*
X168434323Y-80173594D01*
X168424216Y-80174000D01*
X148035033Y-80174000D01*
X148024489Y-80173558D01*
X148015000Y-80172761D01*
X147974700Y-80169377D01*
X147897257Y-80179711D01*
X147894257Y-80180073D01*
X147852502Y-80184609D01*
X147823366Y-80187774D01*
X147823364Y-80187774D01*
X147816583Y-80188511D01*
X147810117Y-80190687D01*
X147807767Y-80191204D01*
X147807218Y-80191301D01*
X147806459Y-80191478D01*
X147805914Y-80191636D01*
X147803575Y-80192211D01*
X147796810Y-80193113D01*
X147723404Y-80219831D01*
X147720569Y-80220824D01*
X147646489Y-80245754D01*
X147640639Y-80249269D01*
X147638427Y-80250291D01*
X147637922Y-80250499D01*
X147637239Y-80250825D01*
X147636723Y-80251106D01*
X147634582Y-80252160D01*
X147628166Y-80254495D01*
X147622401Y-80258153D01*
X147622402Y-80258153D01*
X147562241Y-80296331D01*
X147559623Y-80297948D01*
X147517534Y-80323238D01*
X147492656Y-80338186D01*
X147487699Y-80342874D01*
X147485763Y-80344343D01*
X147484840Y-80344984D01*
X147480995Y-80347892D01*
X147476636Y-80350658D01*
X147472536Y-80354323D01*
X147420613Y-80406246D01*
X147418091Y-80408699D01*
X147367224Y-80456802D01*
X147362260Y-80461496D01*
X147358426Y-80467137D01*
X147354297Y-80471989D01*
X147347440Y-80479419D01*
X144624245Y-83202615D01*
X144616478Y-83209758D01*
X144578307Y-83242015D01*
X144574164Y-83247434D01*
X144574163Y-83247435D01*
X144530869Y-83304062D01*
X144528971Y-83306482D01*
X144480031Y-83367350D01*
X144476998Y-83373460D01*
X144475696Y-83375496D01*
X144475377Y-83375952D01*
X144474967Y-83376610D01*
X144474698Y-83377100D01*
X144473447Y-83379166D01*
X144469303Y-83384586D01*
X144449435Y-83427194D01*
X144436305Y-83455351D01*
X144434971Y-83458122D01*
X144400233Y-83528102D01*
X144398581Y-83534727D01*
X144397747Y-83536994D01*
X144397528Y-83537519D01*
X144397279Y-83538223D01*
X144397117Y-83538773D01*
X144396339Y-83541057D01*
X144393457Y-83547239D01*
X144391969Y-83553897D01*
X144391966Y-83553905D01*
X144376419Y-83623458D01*
X144375711Y-83626454D01*
X144358467Y-83695615D01*
X144356816Y-83702238D01*
X144356625Y-83709059D01*
X144356297Y-83711456D01*
X144356096Y-83712570D01*
X144355434Y-83717344D01*
X144354307Y-83722384D01*
X144354000Y-83727875D01*
X144354000Y-83801289D01*
X144353951Y-83804807D01*
X144351805Y-83881635D01*
X144353084Y-83888342D01*
X144353594Y-83894677D01*
X144354000Y-83904784D01*
X144354000Y-83988312D01*
X144333998Y-84056433D01*
X144317095Y-84077407D01*
X144173802Y-84220700D01*
X144170645Y-84225208D01*
X144170643Y-84225211D01*
X144115902Y-84303389D01*
X144042477Y-84408251D01*
X144040154Y-84413233D01*
X144040151Y-84413238D01*
X144024195Y-84447457D01*
X143977278Y-84500742D01*
X143909001Y-84520203D01*
X143841041Y-84499661D01*
X143795805Y-84447457D01*
X143779849Y-84413238D01*
X143779846Y-84413233D01*
X143777523Y-84408251D01*
X143704098Y-84303389D01*
X143649357Y-84225211D01*
X143649355Y-84225208D01*
X143646198Y-84220700D01*
X143484300Y-84058802D01*
X143479792Y-84055645D01*
X143479789Y-84055643D01*
X143346251Y-83962139D01*
X143296749Y-83927477D01*
X143291767Y-83925154D01*
X143291762Y-83925151D01*
X143094225Y-83833039D01*
X143094224Y-83833039D01*
X143089243Y-83830716D01*
X143083935Y-83829294D01*
X143083933Y-83829293D01*
X142873402Y-83772881D01*
X142873400Y-83772881D01*
X142868087Y-83771457D01*
X142640000Y-83751502D01*
X142411913Y-83771457D01*
X142406600Y-83772881D01*
X142406598Y-83772881D01*
X142196067Y-83829293D01*
X142196065Y-83829294D01*
X142190757Y-83830716D01*
X142185776Y-83833039D01*
X142185775Y-83833039D01*
X141988238Y-83925151D01*
X141988233Y-83925154D01*
X141983251Y-83927477D01*
X141933749Y-83962139D01*
X141800211Y-84055643D01*
X141800208Y-84055645D01*
X141795700Y-84058802D01*
X141633802Y-84220700D01*
X141630645Y-84225208D01*
X141630643Y-84225211D01*
X141575902Y-84303389D01*
X141502477Y-84408251D01*
X141500154Y-84413233D01*
X141500151Y-84413238D01*
X141484195Y-84447457D01*
X141437278Y-84500742D01*
X141369001Y-84520203D01*
X141301041Y-84499661D01*
X141255805Y-84447457D01*
X141239849Y-84413238D01*
X141239846Y-84413233D01*
X141237523Y-84408251D01*
X141164098Y-84303389D01*
X141109357Y-84225211D01*
X141109355Y-84225208D01*
X141106198Y-84220700D01*
X140944300Y-84058802D01*
X140939792Y-84055645D01*
X140939789Y-84055643D01*
X140806251Y-83962139D01*
X140756749Y-83927477D01*
X140751767Y-83925154D01*
X140751762Y-83925151D01*
X140554225Y-83833039D01*
X140554224Y-83833039D01*
X140549243Y-83830716D01*
X140543935Y-83829294D01*
X140543933Y-83829293D01*
X140333402Y-83772881D01*
X140333400Y-83772881D01*
X140328087Y-83771457D01*
X140100000Y-83751502D01*
X139871913Y-83771457D01*
X139866600Y-83772881D01*
X139866598Y-83772881D01*
X139656067Y-83829293D01*
X139656065Y-83829294D01*
X139650757Y-83830716D01*
X139645776Y-83833039D01*
X139645775Y-83833039D01*
X139448238Y-83925151D01*
X139448233Y-83925154D01*
X139443251Y-83927477D01*
X139393749Y-83962139D01*
X139260211Y-84055643D01*
X139260208Y-84055645D01*
X139255700Y-84058802D01*
X139093802Y-84220700D01*
X139090645Y-84225208D01*
X139090643Y-84225211D01*
X139035902Y-84303389D01*
X138962477Y-84408251D01*
X138960154Y-84413233D01*
X138960151Y-84413238D01*
X138944195Y-84447457D01*
X138897278Y-84500742D01*
X138829001Y-84520203D01*
X138761041Y-84499661D01*
X138715805Y-84447457D01*
X138699849Y-84413238D01*
X138699846Y-84413233D01*
X138697523Y-84408251D01*
X138624098Y-84303389D01*
X138569357Y-84225211D01*
X138569355Y-84225208D01*
X138566198Y-84220700D01*
X138404300Y-84058802D01*
X138399792Y-84055645D01*
X138399789Y-84055643D01*
X138266251Y-83962139D01*
X138216749Y-83927477D01*
X138211767Y-83925154D01*
X138211762Y-83925151D01*
X138014225Y-83833039D01*
X138014224Y-83833039D01*
X138009243Y-83830716D01*
X138003935Y-83829294D01*
X138003933Y-83829293D01*
X137793402Y-83772881D01*
X137793400Y-83772881D01*
X137788087Y-83771457D01*
X137560000Y-83751502D01*
X137331913Y-83771457D01*
X137326600Y-83772881D01*
X137326598Y-83772881D01*
X137116067Y-83829293D01*
X137116065Y-83829294D01*
X137110757Y-83830716D01*
X137105776Y-83833039D01*
X137105775Y-83833039D01*
X136908238Y-83925151D01*
X136908233Y-83925154D01*
X136903251Y-83927477D01*
X136853749Y-83962139D01*
X136720211Y-84055643D01*
X136720208Y-84055645D01*
X136715700Y-84058802D01*
X136553802Y-84220700D01*
X136550645Y-84225208D01*
X136550643Y-84225211D01*
X136495902Y-84303389D01*
X136422477Y-84408251D01*
X136420154Y-84413233D01*
X136420151Y-84413238D01*
X136404195Y-84447457D01*
X136357278Y-84500742D01*
X136289001Y-84520203D01*
X136221041Y-84499661D01*
X136175805Y-84447457D01*
X136159849Y-84413238D01*
X136159846Y-84413233D01*
X136157523Y-84408251D01*
X136084098Y-84303389D01*
X136029357Y-84225211D01*
X136029355Y-84225208D01*
X136026198Y-84220700D01*
X135864300Y-84058802D01*
X135859792Y-84055645D01*
X135859789Y-84055643D01*
X135726251Y-83962139D01*
X135676749Y-83927477D01*
X135671767Y-83925154D01*
X135671762Y-83925151D01*
X135474225Y-83833039D01*
X135474224Y-83833039D01*
X135469243Y-83830716D01*
X135463935Y-83829294D01*
X135463933Y-83829293D01*
X135253402Y-83772881D01*
X135253400Y-83772881D01*
X135248087Y-83771457D01*
X135020000Y-83751502D01*
X134791913Y-83771457D01*
X134786600Y-83772881D01*
X134786598Y-83772881D01*
X134576067Y-83829293D01*
X134576065Y-83829294D01*
X134570757Y-83830716D01*
X134565776Y-83833039D01*
X134565775Y-83833039D01*
X134368238Y-83925151D01*
X134368233Y-83925154D01*
X134363251Y-83927477D01*
X134313749Y-83962139D01*
X134180211Y-84055643D01*
X134180208Y-84055645D01*
X134175700Y-84058802D01*
X134013802Y-84220700D01*
X134010645Y-84225208D01*
X134010643Y-84225211D01*
X133955902Y-84303389D01*
X133882477Y-84408251D01*
X133880154Y-84413233D01*
X133880151Y-84413238D01*
X133864195Y-84447457D01*
X133817278Y-84500742D01*
X133749001Y-84520203D01*
X133681041Y-84499661D01*
X133635805Y-84447457D01*
X133619849Y-84413238D01*
X133619846Y-84413233D01*
X133617523Y-84408251D01*
X133544098Y-84303389D01*
X133489357Y-84225211D01*
X133489355Y-84225208D01*
X133486198Y-84220700D01*
X133324300Y-84058802D01*
X133319792Y-84055645D01*
X133319789Y-84055643D01*
X133186251Y-83962139D01*
X133136749Y-83927477D01*
X133131767Y-83925154D01*
X133131762Y-83925151D01*
X132934225Y-83833039D01*
X132934224Y-83833039D01*
X132929243Y-83830716D01*
X132923935Y-83829294D01*
X132923933Y-83829293D01*
X132713402Y-83772881D01*
X132713400Y-83772881D01*
X132708087Y-83771457D01*
X132480000Y-83751502D01*
X132251913Y-83771457D01*
X132246600Y-83772881D01*
X132246598Y-83772881D01*
X132036067Y-83829293D01*
X132036065Y-83829294D01*
X132030757Y-83830716D01*
X132025776Y-83833039D01*
X132025775Y-83833039D01*
X131828238Y-83925151D01*
X131828233Y-83925154D01*
X131823251Y-83927477D01*
X131773749Y-83962139D01*
X131640211Y-84055643D01*
X131640208Y-84055645D01*
X131635700Y-84058802D01*
X131473802Y-84220700D01*
X131470645Y-84225208D01*
X131470643Y-84225211D01*
X131415902Y-84303389D01*
X131342477Y-84408251D01*
X131340154Y-84413233D01*
X131340151Y-84413238D01*
X131324195Y-84447457D01*
X131277278Y-84500742D01*
X131209001Y-84520203D01*
X131141041Y-84499661D01*
X131095805Y-84447457D01*
X131079849Y-84413238D01*
X131079846Y-84413233D01*
X131077523Y-84408251D01*
X131004098Y-84303389D01*
X130949357Y-84225211D01*
X130949355Y-84225208D01*
X130946198Y-84220700D01*
X130784300Y-84058802D01*
X130779792Y-84055645D01*
X130779789Y-84055643D01*
X130646251Y-83962139D01*
X130596749Y-83927477D01*
X130591767Y-83925154D01*
X130591762Y-83925151D01*
X130394225Y-83833039D01*
X130394224Y-83833039D01*
X130389243Y-83830716D01*
X130383935Y-83829294D01*
X130383933Y-83829293D01*
X130173402Y-83772881D01*
X130173400Y-83772881D01*
X130168087Y-83771457D01*
X129940000Y-83751502D01*
X129711913Y-83771457D01*
X129706600Y-83772881D01*
X129706598Y-83772881D01*
X129496067Y-83829293D01*
X129496065Y-83829294D01*
X129490757Y-83830716D01*
X129485776Y-83833039D01*
X129485775Y-83833039D01*
X129288238Y-83925151D01*
X129288233Y-83925154D01*
X129283251Y-83927477D01*
X129233749Y-83962139D01*
X129100211Y-84055643D01*
X129100208Y-84055645D01*
X129095700Y-84058802D01*
X128933802Y-84220700D01*
X128930645Y-84225208D01*
X128930643Y-84225211D01*
X128875902Y-84303389D01*
X128802477Y-84408251D01*
X128800154Y-84413233D01*
X128800151Y-84413238D01*
X128784195Y-84447457D01*
X128737278Y-84500742D01*
X128669001Y-84520203D01*
X128601041Y-84499661D01*
X128555805Y-84447457D01*
X128539849Y-84413238D01*
X128539846Y-84413233D01*
X128537523Y-84408251D01*
X128464098Y-84303389D01*
X128409357Y-84225211D01*
X128409355Y-84225208D01*
X128406198Y-84220700D01*
X128244300Y-84058802D01*
X128239792Y-84055645D01*
X128239789Y-84055643D01*
X128106251Y-83962139D01*
X128056749Y-83927477D01*
X128051767Y-83925154D01*
X128051762Y-83925151D01*
X127854225Y-83833039D01*
X127854224Y-83833039D01*
X127849243Y-83830716D01*
X127843935Y-83829294D01*
X127843933Y-83829293D01*
X127633402Y-83772881D01*
X127633400Y-83772881D01*
X127628087Y-83771457D01*
X127400000Y-83751502D01*
X127171913Y-83771457D01*
X127166600Y-83772881D01*
X127166598Y-83772881D01*
X126956067Y-83829293D01*
X126956065Y-83829294D01*
X126950757Y-83830716D01*
X126945776Y-83833039D01*
X126945775Y-83833039D01*
X126748238Y-83925151D01*
X126748233Y-83925154D01*
X126743251Y-83927477D01*
X126693749Y-83962139D01*
X126560211Y-84055643D01*
X126560208Y-84055645D01*
X126555700Y-84058802D01*
X126393802Y-84220700D01*
X126390645Y-84225208D01*
X126390643Y-84225211D01*
X126335902Y-84303389D01*
X126262477Y-84408251D01*
X126260154Y-84413233D01*
X126260151Y-84413238D01*
X126244195Y-84447457D01*
X126197278Y-84500742D01*
X126129001Y-84520203D01*
X126061041Y-84499661D01*
X126015805Y-84447457D01*
X125999849Y-84413238D01*
X125999846Y-84413233D01*
X125997523Y-84408251D01*
X125924098Y-84303389D01*
X125869357Y-84225211D01*
X125869355Y-84225208D01*
X125866198Y-84220700D01*
X125704300Y-84058802D01*
X125699792Y-84055645D01*
X125699789Y-84055643D01*
X125566251Y-83962139D01*
X125516749Y-83927477D01*
X125511767Y-83925154D01*
X125511762Y-83925151D01*
X125314225Y-83833039D01*
X125314224Y-83833039D01*
X125309243Y-83830716D01*
X125303935Y-83829294D01*
X125303933Y-83829293D01*
X125093402Y-83772881D01*
X125093400Y-83772881D01*
X125088087Y-83771457D01*
X124860000Y-83751502D01*
X124631913Y-83771457D01*
X124626600Y-83772881D01*
X124626598Y-83772881D01*
X124416067Y-83829293D01*
X124416065Y-83829294D01*
X124410757Y-83830716D01*
X124405776Y-83833039D01*
X124405775Y-83833039D01*
X124208238Y-83925151D01*
X124208233Y-83925154D01*
X124203251Y-83927477D01*
X124153749Y-83962139D01*
X124020211Y-84055643D01*
X124020208Y-84055645D01*
X124015700Y-84058802D01*
X123853802Y-84220700D01*
X123850645Y-84225208D01*
X123850643Y-84225211D01*
X123795902Y-84303389D01*
X123722477Y-84408251D01*
X123720154Y-84413233D01*
X123720151Y-84413238D01*
X123645672Y-84572960D01*
X123625716Y-84615757D01*
X123624294Y-84621065D01*
X123624293Y-84621067D01*
X123596607Y-84724391D01*
X123566457Y-84836913D01*
X123546502Y-85065000D01*
X123566457Y-85293087D01*
X123567881Y-85298400D01*
X123567881Y-85298402D01*
X123613929Y-85470252D01*
X123625716Y-85514243D01*
X123628039Y-85519225D01*
X123628041Y-85519230D01*
X123671650Y-85612751D01*
X123682311Y-85682942D01*
X123653331Y-85747755D01*
X123593911Y-85786611D01*
X123557455Y-85792000D01*
X115637314Y-85792000D01*
X115626770Y-85791558D01*
X115617281Y-85790761D01*
X115576981Y-85787377D01*
X115499538Y-85797711D01*
X115496538Y-85798073D01*
X115454783Y-85802609D01*
X115425647Y-85805774D01*
X115425645Y-85805774D01*
X115418864Y-85806511D01*
X115412398Y-85808687D01*
X115410048Y-85809204D01*
X115409498Y-85809301D01*
X115408731Y-85809480D01*
X115408196Y-85809635D01*
X115405849Y-85810211D01*
X115399091Y-85811113D01*
X115325741Y-85837810D01*
X115322838Y-85838826D01*
X115255242Y-85861575D01*
X115255235Y-85861578D01*
X115248770Y-85863754D01*
X115242921Y-85867269D01*
X115240728Y-85868282D01*
X115240213Y-85868494D01*
X115239515Y-85868827D01*
X115239014Y-85869100D01*
X115236860Y-85870160D01*
X115230447Y-85872494D01*
X115164479Y-85914359D01*
X115161891Y-85915956D01*
X115094937Y-85956186D01*
X115089986Y-85960867D01*
X115088050Y-85962337D01*
X115087119Y-85962984D01*
X115083281Y-85965887D01*
X115078917Y-85968657D01*
X115074818Y-85972323D01*
X115022913Y-86024228D01*
X115020391Y-86026681D01*
X114969504Y-86074802D01*
X114969501Y-86074806D01*
X114964541Y-86079496D01*
X114960703Y-86085143D01*
X114956574Y-86089995D01*
X114949716Y-86097425D01*
X113238335Y-87808806D01*
X113176023Y-87842832D01*
X113149240Y-87845711D01*
X106976321Y-87845711D01*
X106908200Y-87825709D01*
X106887226Y-87808806D01*
X106724324Y-87645904D01*
X106719816Y-87642747D01*
X106719813Y-87642745D01*
X106537627Y-87515177D01*
X106537625Y-87515176D01*
X106533118Y-87512020D01*
X106531317Y-87511180D01*
X106483075Y-87460583D01*
X106469641Y-87390869D01*
X106496029Y-87324959D01*
X106532072Y-87293729D01*
X106537376Y-87290667D01*
X106594928Y-87250369D01*
X106603303Y-87239891D01*
X106596235Y-87226443D01*
X105876382Y-86506590D01*
X105862438Y-86498976D01*
X105860605Y-86499107D01*
X105853990Y-86503358D01*
X105130183Y-87227165D01*
X105123753Y-87238939D01*
X105133050Y-87250955D01*
X105189764Y-87290667D01*
X105195068Y-87293729D01*
X105244062Y-87345111D01*
X105257500Y-87414824D01*
X105231114Y-87480736D01*
X105196165Y-87511021D01*
X105194022Y-87512020D01*
X105189515Y-87515176D01*
X105189513Y-87515177D01*
X105007327Y-87642745D01*
X105007324Y-87642747D01*
X105002816Y-87645904D01*
X104837763Y-87810957D01*
X104834606Y-87815465D01*
X104834604Y-87815468D01*
X104710810Y-87992264D01*
X104703879Y-88002163D01*
X104701556Y-88007145D01*
X104701553Y-88007150D01*
X104607554Y-88208731D01*
X104605231Y-88213713D01*
X104603809Y-88219021D01*
X104603808Y-88219023D01*
X104557122Y-88393258D01*
X104544818Y-88439179D01*
X104524474Y-88671711D01*
X104544818Y-88904243D01*
X104546242Y-88909556D01*
X104546242Y-88909558D01*
X104601281Y-89114966D01*
X104605231Y-89129709D01*
X104607553Y-89134689D01*
X104607554Y-89134691D01*
X104701553Y-89336272D01*
X104701556Y-89336277D01*
X104703879Y-89341259D01*
X104707035Y-89345766D01*
X104707036Y-89345768D01*
X104809433Y-89492005D01*
X104837763Y-89532465D01*
X105002816Y-89697518D01*
X105007324Y-89700675D01*
X105007327Y-89700677D01*
X105147830Y-89799058D01*
X105194022Y-89831402D01*
X105210942Y-89839292D01*
X105242829Y-89854162D01*
X105296113Y-89901080D01*
X105315573Y-89969357D01*
X105295030Y-90037317D01*
X105242828Y-90082550D01*
X105227028Y-90089918D01*
X105199009Y-90102983D01*
X105199004Y-90102986D01*
X105194022Y-90105309D01*
X105189515Y-90108465D01*
X105189513Y-90108466D01*
X105007327Y-90236034D01*
X105007324Y-90236036D01*
X105002816Y-90239193D01*
X104837763Y-90404246D01*
X104834606Y-90408754D01*
X104834604Y-90408757D01*
X104768579Y-90503051D01*
X104703879Y-90595452D01*
X104701556Y-90600434D01*
X104701553Y-90600439D01*
X104649955Y-90711091D01*
X104605231Y-90807002D01*
X104603809Y-90812310D01*
X104603808Y-90812312D01*
X104550059Y-91012909D01*
X104544818Y-91032468D01*
X104524474Y-91265000D01*
X104544818Y-91497532D01*
X104546242Y-91502845D01*
X104546242Y-91502847D01*
X104597667Y-91694767D01*
X104605231Y-91722998D01*
X104607553Y-91727978D01*
X104607554Y-91727980D01*
X104701553Y-91929561D01*
X104701556Y-91929566D01*
X104703879Y-91934548D01*
X104707035Y-91939055D01*
X104707036Y-91939057D01*
X104833048Y-92119020D01*
X104837763Y-92125754D01*
X105002816Y-92290807D01*
X105007324Y-92293964D01*
X105007327Y-92293966D01*
X105028784Y-92308990D01*
X105194022Y-92424691D01*
X105197417Y-92426274D01*
X105246036Y-92477266D01*
X105259470Y-92546980D01*
X105233082Y-92612890D01*
X105197587Y-92643647D01*
X105194022Y-92645309D01*
X105112820Y-92702167D01*
X105007327Y-92776034D01*
X105007324Y-92776036D01*
X105002816Y-92779193D01*
X104837763Y-92944246D01*
X104834606Y-92948754D01*
X104834604Y-92948757D01*
X104714844Y-93119792D01*
X104703879Y-93135452D01*
X104701556Y-93140434D01*
X104701553Y-93140439D01*
X104671561Y-93204757D01*
X104605231Y-93347002D01*
X104603809Y-93352310D01*
X104603808Y-93352312D01*
X104546877Y-93564783D01*
X104544818Y-93572468D01*
X104524474Y-93805000D01*
X104544818Y-94037532D01*
X104546242Y-94042845D01*
X104546242Y-94042847D01*
X104572168Y-94139603D01*
X104605231Y-94262998D01*
X104607553Y-94267978D01*
X104607554Y-94267980D01*
X104701553Y-94469561D01*
X104701556Y-94469566D01*
X104703879Y-94474548D01*
X104707035Y-94479055D01*
X104707036Y-94479057D01*
X104832890Y-94658794D01*
X104837763Y-94665754D01*
X105002816Y-94830807D01*
X105007324Y-94833964D01*
X105007327Y-94833966D01*
X105016499Y-94840388D01*
X105194022Y-94964691D01*
X105197417Y-94966274D01*
X105246036Y-95017266D01*
X105259470Y-95086980D01*
X105233082Y-95152890D01*
X105197587Y-95183647D01*
X105194022Y-95185309D01*
X105146568Y-95218537D01*
X105007327Y-95316034D01*
X105007324Y-95316036D01*
X105002816Y-95319193D01*
X104837763Y-95484246D01*
X104834606Y-95488754D01*
X104834604Y-95488757D01*
X104732835Y-95634098D01*
X104703879Y-95675452D01*
X104701556Y-95680434D01*
X104701553Y-95680439D01*
X104617831Y-95859981D01*
X104605231Y-95887002D01*
X104603809Y-95892310D01*
X104603808Y-95892312D01*
X104557986Y-96063324D01*
X104544818Y-96112468D01*
X104524474Y-96345000D01*
X104544818Y-96577532D01*
X104546242Y-96582845D01*
X104546242Y-96582847D01*
X104553192Y-96608783D01*
X104605231Y-96802998D01*
X104607553Y-96807978D01*
X104607554Y-96807980D01*
X104701553Y-97009561D01*
X104701556Y-97009566D01*
X104703879Y-97014548D01*
X104707035Y-97019055D01*
X104707036Y-97019057D01*
X104810981Y-97167505D01*
X104837763Y-97205754D01*
X105002816Y-97370807D01*
X105007324Y-97373964D01*
X105007327Y-97373966D01*
X105075890Y-97421974D01*
X105194022Y-97504691D01*
X105197417Y-97506274D01*
X105246036Y-97557266D01*
X105259470Y-97626980D01*
X105233082Y-97692890D01*
X105197587Y-97723647D01*
X105194022Y-97725309D01*
X105141855Y-97761837D01*
X105007327Y-97856034D01*
X105007324Y-97856036D01*
X105002816Y-97859193D01*
X104837763Y-98024246D01*
X104834606Y-98028754D01*
X104834604Y-98028757D01*
X104747568Y-98153057D01*
X104703879Y-98215452D01*
X104701556Y-98220434D01*
X104701553Y-98220439D01*
X104620966Y-98393258D01*
X104605231Y-98427002D01*
X104603809Y-98432310D01*
X104603808Y-98432312D01*
X104548190Y-98639882D01*
X104544818Y-98652468D01*
X104524474Y-98885000D01*
X104544818Y-99117532D01*
X104605231Y-99342998D01*
X104607553Y-99347978D01*
X104607554Y-99347980D01*
X104701553Y-99549561D01*
X104701556Y-99549566D01*
X104703879Y-99554548D01*
X104707035Y-99559055D01*
X104707036Y-99559057D01*
X104832194Y-99737800D01*
X104837763Y-99745754D01*
X105002816Y-99910807D01*
X105007324Y-99913964D01*
X105007327Y-99913966D01*
X105012897Y-99917866D01*
X105194022Y-100044691D01*
X105197417Y-100046274D01*
X105246036Y-100097266D01*
X105259470Y-100166980D01*
X105233082Y-100232890D01*
X105197587Y-100263647D01*
X105194022Y-100265309D01*
X105189518Y-100268463D01*
X105007327Y-100396034D01*
X105007324Y-100396036D01*
X105002816Y-100399193D01*
X104837763Y-100564246D01*
X104834606Y-100568754D01*
X104834604Y-100568757D01*
X104747568Y-100693057D01*
X104703879Y-100755452D01*
X104701556Y-100760434D01*
X104701553Y-100760439D01*
X104619412Y-100936590D01*
X104605231Y-100967002D01*
X104603809Y-100972310D01*
X104603808Y-100972312D01*
X104548190Y-101179882D01*
X104544818Y-101192468D01*
X104524474Y-101425000D01*
X100511143Y-101425000D01*
X100535136Y-101376453D01*
X100535137Y-101376451D01*
X100537430Y-101371811D01*
X100602370Y-101158069D01*
X100631529Y-100936590D01*
X100631611Y-100933240D01*
X100633074Y-100873365D01*
X100633074Y-100873361D01*
X100633156Y-100870000D01*
X100614852Y-100647361D01*
X100560431Y-100430702D01*
X100471354Y-100225840D01*
X100354317Y-100044928D01*
X100352822Y-100042617D01*
X100352820Y-100042614D01*
X100350014Y-100038277D01*
X100199670Y-99873051D01*
X100195619Y-99869852D01*
X100195615Y-99869848D01*
X100028414Y-99737800D01*
X100028410Y-99737798D01*
X100024359Y-99734598D01*
X99828789Y-99626638D01*
X99823920Y-99624914D01*
X99823916Y-99624912D01*
X99623087Y-99553795D01*
X99623083Y-99553794D01*
X99618212Y-99552069D01*
X99613119Y-99551162D01*
X99613116Y-99551161D01*
X99403373Y-99513800D01*
X99403367Y-99513799D01*
X99398284Y-99512894D01*
X99324452Y-99511992D01*
X99180081Y-99510228D01*
X99180079Y-99510228D01*
X99174911Y-99510165D01*
X98954091Y-99543955D01*
X98741756Y-99613357D01*
X98543607Y-99716507D01*
X98539474Y-99719610D01*
X98539471Y-99719612D01*
X98369100Y-99847530D01*
X98364965Y-99850635D01*
X98210629Y-100012138D01*
X98207715Y-100016410D01*
X98207714Y-100016411D01*
X98192798Y-100038277D01*
X98084743Y-100196680D01*
X98052887Y-100265309D01*
X97995391Y-100389174D01*
X97990688Y-100399305D01*
X97930989Y-100614570D01*
X97907251Y-100836695D01*
X97907548Y-100841848D01*
X97907548Y-100841851D01*
X97917390Y-101012539D01*
X97920110Y-101059715D01*
X97921247Y-101064761D01*
X97921248Y-101064767D01*
X97921517Y-101065959D01*
X97969222Y-101277639D01*
X98029059Y-101425000D01*
X98036174Y-101442522D01*
X98053266Y-101484616D01*
X98088539Y-101542176D01*
X98162486Y-101662847D01*
X98169987Y-101675088D01*
X98173367Y-101678990D01*
X98178836Y-101685303D01*
X98316250Y-101843938D01*
X98488126Y-101986632D01*
X98558595Y-102027811D01*
X98561445Y-102029476D01*
X98610169Y-102081114D01*
X98623240Y-102150897D01*
X98596509Y-102216669D01*
X98556055Y-102250027D01*
X98543607Y-102256507D01*
X98539474Y-102259610D01*
X98539471Y-102259612D01*
X98369100Y-102387530D01*
X98364965Y-102390635D01*
X98210629Y-102552138D01*
X98084743Y-102736680D01*
X97990688Y-102939305D01*
X97930989Y-103154570D01*
X97907251Y-103376695D01*
X94810895Y-103376695D01*
X94807315Y-103364374D01*
X94805347Y-103356707D01*
X94676993Y-102782486D01*
X94675509Y-102774711D01*
X94583465Y-102193564D01*
X94582474Y-102185720D01*
X94579183Y-102150897D01*
X94553357Y-101877688D01*
X94527103Y-101599950D01*
X94526606Y-101592050D01*
X94509404Y-101044668D01*
X94510842Y-101021327D01*
X94511804Y-101015145D01*
X94513186Y-101006270D01*
X94511547Y-100993730D01*
X94509064Y-100974749D01*
X94508000Y-100958411D01*
X94508000Y-93971585D01*
X95036698Y-93971585D01*
X95043364Y-94105488D01*
X95051454Y-94267980D01*
X95052936Y-94297759D01*
X95053577Y-94301490D01*
X95053578Y-94301498D01*
X95106245Y-94608000D01*
X95108241Y-94619619D01*
X95109329Y-94623258D01*
X95109330Y-94623261D01*
X95200112Y-94926812D01*
X95201814Y-94932504D01*
X95203327Y-94935975D01*
X95203329Y-94935981D01*
X95229972Y-94997110D01*
X95332297Y-95231881D01*
X95334220Y-95235152D01*
X95334222Y-95235156D01*
X95376584Y-95307215D01*
X95497802Y-95513414D01*
X95500103Y-95516429D01*
X95693631Y-95770012D01*
X95693636Y-95770017D01*
X95695931Y-95773025D01*
X95757931Y-95836670D01*
X95909505Y-95992264D01*
X95923814Y-96006953D01*
X95996635Y-96065607D01*
X96175196Y-96209431D01*
X96175201Y-96209435D01*
X96178149Y-96211809D01*
X96455253Y-96384627D01*
X96751112Y-96522903D01*
X96754721Y-96524086D01*
X97041954Y-96618246D01*
X97061440Y-96624634D01*
X97381742Y-96688346D01*
X97385514Y-96688633D01*
X97385522Y-96688634D01*
X97703602Y-96712829D01*
X97703607Y-96712829D01*
X97707379Y-96713116D01*
X98033633Y-96698586D01*
X98093425Y-96688634D01*
X98352037Y-96645590D01*
X98352042Y-96645589D01*
X98355778Y-96644967D01*
X98669149Y-96553034D01*
X98672616Y-96551544D01*
X98672620Y-96551543D01*
X98965721Y-96425616D01*
X98965723Y-96425615D01*
X98969205Y-96424119D01*
X99251601Y-96260091D01*
X99512245Y-96063324D01*
X99691136Y-95890873D01*
X99744632Y-95839303D01*
X99744635Y-95839300D01*
X99747363Y-95836670D01*
X99888345Y-95663501D01*
X99951155Y-95586351D01*
X99951158Y-95586347D01*
X99953549Y-95583410D01*
X99955570Y-95580207D01*
X100125788Y-95310428D01*
X100125790Y-95310425D01*
X100127815Y-95307215D01*
X100164477Y-95229832D01*
X100236817Y-95077139D01*
X100267638Y-95012084D01*
X100283052Y-94965882D01*
X100369790Y-94705897D01*
X100369792Y-94705891D01*
X100370992Y-94702293D01*
X100436381Y-94382329D01*
X100442105Y-94311962D01*
X100462674Y-94059061D01*
X100462856Y-94056826D01*
X100463451Y-94000000D01*
X100463009Y-93992658D01*
X100444026Y-93677793D01*
X100444026Y-93677789D01*
X100443798Y-93674015D01*
X100438650Y-93645824D01*
X100385805Y-93356473D01*
X100385804Y-93356469D01*
X100385125Y-93352751D01*
X100377722Y-93328907D01*
X100289404Y-93044477D01*
X100288282Y-93040863D01*
X100154670Y-92742869D01*
X99986226Y-92463084D01*
X99983899Y-92460100D01*
X99983894Y-92460093D01*
X99787726Y-92208558D01*
X99787724Y-92208556D01*
X99785390Y-92205563D01*
X99555070Y-91974034D01*
X99298603Y-91771852D01*
X99019705Y-91601945D01*
X99016261Y-91600379D01*
X99016257Y-91600377D01*
X98905667Y-91550095D01*
X98722414Y-91466775D01*
X98411037Y-91368300D01*
X98183683Y-91325546D01*
X98093809Y-91308645D01*
X98093807Y-91308645D01*
X98090086Y-91307945D01*
X97764208Y-91286586D01*
X97760428Y-91286794D01*
X97760427Y-91286794D01*
X97662897Y-91292162D01*
X97438124Y-91304532D01*
X97434397Y-91305193D01*
X97434393Y-91305193D01*
X97319552Y-91325546D01*
X97116557Y-91361522D01*
X97112941Y-91362624D01*
X97112933Y-91362626D01*
X96807789Y-91455627D01*
X96804167Y-91456731D01*
X96505477Y-91588781D01*
X96480041Y-91603914D01*
X96228074Y-91753817D01*
X96228068Y-91753821D01*
X96224814Y-91755757D01*
X96221812Y-91758073D01*
X95979114Y-91945314D01*
X95966244Y-91955243D01*
X95874873Y-92045190D01*
X95779299Y-92139275D01*
X95733513Y-92184347D01*
X95731149Y-92187314D01*
X95731146Y-92187317D01*
X95562899Y-92398454D01*
X95529991Y-92439751D01*
X95358626Y-92717757D01*
X95221902Y-93014336D01*
X95220741Y-93017940D01*
X95220741Y-93017941D01*
X95212196Y-93044477D01*
X95121797Y-93325192D01*
X95121079Y-93328903D01*
X95121078Y-93328907D01*
X95060482Y-93642105D01*
X95060481Y-93642114D01*
X95059763Y-93645824D01*
X95059496Y-93649600D01*
X95059495Y-93649605D01*
X95037840Y-93955452D01*
X95036698Y-93971585D01*
X94508000Y-93971585D01*
X94508000Y-88049328D01*
X94509500Y-88029943D01*
X94511805Y-88015142D01*
X94511805Y-88015139D01*
X94513186Y-88006270D01*
X94511355Y-87992264D01*
X94510168Y-87983192D01*
X94509166Y-87962896D01*
X94510329Y-87925906D01*
X94513799Y-87815468D01*
X94526606Y-87407950D01*
X94527103Y-87400050D01*
X94572104Y-86923983D01*
X94582475Y-86814271D01*
X94583466Y-86806427D01*
X94589672Y-86767248D01*
X94675510Y-86225282D01*
X94676993Y-86217514D01*
X94694310Y-86140043D01*
X104525455Y-86140043D01*
X104544833Y-86361532D01*
X104546736Y-86372327D01*
X104604280Y-86587084D01*
X104608026Y-86597376D01*
X104701991Y-86798884D01*
X104707469Y-86808370D01*
X104747769Y-86865926D01*
X104758247Y-86874301D01*
X104771695Y-86867233D01*
X105491548Y-86147380D01*
X105497926Y-86135700D01*
X106227978Y-86135700D01*
X106228109Y-86137533D01*
X106232360Y-86144148D01*
X106956167Y-86867955D01*
X106967941Y-86874385D01*
X106979957Y-86865088D01*
X107019671Y-86808370D01*
X107025149Y-86798884D01*
X107119114Y-86597376D01*
X107122860Y-86587084D01*
X107180404Y-86372327D01*
X107182307Y-86361532D01*
X107201685Y-86140043D01*
X107201685Y-86129093D01*
X107182307Y-85907604D01*
X107180404Y-85896809D01*
X107122860Y-85682052D01*
X107119114Y-85671760D01*
X107025149Y-85470252D01*
X107019671Y-85460766D01*
X106979371Y-85403210D01*
X106968893Y-85394835D01*
X106955445Y-85401903D01*
X106235592Y-86121756D01*
X106227978Y-86135700D01*
X105497926Y-86135700D01*
X105499162Y-86133436D01*
X105499031Y-86131603D01*
X105494780Y-86124988D01*
X104770973Y-85401181D01*
X104759199Y-85394751D01*
X104747183Y-85404048D01*
X104707469Y-85460766D01*
X104701991Y-85470252D01*
X104608026Y-85671760D01*
X104604280Y-85682052D01*
X104546736Y-85896809D01*
X104544833Y-85907604D01*
X104525455Y-86129093D01*
X104525455Y-86140043D01*
X94694310Y-86140043D01*
X94805347Y-85643293D01*
X94807315Y-85635626D01*
X94940663Y-85176638D01*
X94971470Y-85070601D01*
X94973912Y-85063085D01*
X94973981Y-85062894D01*
X95169926Y-84518634D01*
X104541000Y-84518634D01*
X104547755Y-84580816D01*
X104598885Y-84717205D01*
X104686239Y-84833761D01*
X104802795Y-84921115D01*
X104939184Y-84972245D01*
X105001366Y-84979000D01*
X105021309Y-84979000D01*
X105089430Y-84999002D01*
X105117211Y-85029319D01*
X105117371Y-85029159D01*
X105850758Y-85762546D01*
X105864702Y-85770160D01*
X105866535Y-85770029D01*
X105873150Y-85765778D01*
X106609769Y-85029159D01*
X106610369Y-85029759D01*
X106645714Y-84994413D01*
X106706101Y-84979000D01*
X106748634Y-84979000D01*
X106810816Y-84972245D01*
X106947205Y-84921115D01*
X107063761Y-84833761D01*
X107151115Y-84717205D01*
X107202245Y-84580816D01*
X107209000Y-84518634D01*
X107209000Y-82771366D01*
X107202245Y-82709184D01*
X107151115Y-82572795D01*
X107063761Y-82456239D01*
X106947205Y-82368885D01*
X106810816Y-82317755D01*
X106748634Y-82311000D01*
X105001366Y-82311000D01*
X104939184Y-82317755D01*
X104802795Y-82368885D01*
X104686239Y-82456239D01*
X104598885Y-82572795D01*
X104547755Y-82709184D01*
X104541000Y-82771366D01*
X104541000Y-84518634D01*
X95169926Y-84518634D01*
X95173225Y-84509472D01*
X95176127Y-84502144D01*
X95409814Y-83962124D01*
X95413170Y-83954992D01*
X95680299Y-83430723D01*
X95684112Y-83423787D01*
X95983629Y-82917331D01*
X95987871Y-82910648D01*
X96318586Y-82424015D01*
X96323228Y-82417624D01*
X96683872Y-81952685D01*
X96688902Y-81946606D01*
X97078015Y-81505244D01*
X97083434Y-81499474D01*
X97499474Y-81083434D01*
X97505244Y-81078015D01*
X97946606Y-80688902D01*
X97952685Y-80683872D01*
X98417624Y-80323228D01*
X98424015Y-80318586D01*
X98910648Y-79987871D01*
X98917331Y-79983629D01*
X99423787Y-79684112D01*
X99430723Y-79680299D01*
X99518622Y-79635512D01*
X99954992Y-79413170D01*
X99962124Y-79409814D01*
X100502144Y-79176127D01*
X100509472Y-79173225D01*
X101063098Y-78973908D01*
X101070601Y-78971470D01*
X101365085Y-78885914D01*
X101635626Y-78807315D01*
X101643293Y-78805347D01*
X102217514Y-78676993D01*
X102225282Y-78675510D01*
X102806436Y-78583465D01*
X102814271Y-78582475D01*
X103064373Y-78558834D01*
X103400050Y-78527103D01*
X103407950Y-78526606D01*
X103955332Y-78509404D01*
X103978673Y-78510842D01*
X103982411Y-78511424D01*
X103993730Y-78513186D01*
X104002632Y-78512022D01*
X104002635Y-78512022D01*
X104025251Y-78509064D01*
X104041589Y-78508000D01*
X193950672Y-78508000D01*
X193970057Y-78509500D01*
G37*
%TD.AperFunction*%
%TD*%
M02*
