M48
; DRILL file {KiCad 6.0.0-rc1-unknown-5bf9bd3ebb~144~ubuntu20.04.1} date Mon 20 Dec 2021 20:37:37 +08
; FORMAT={-:-/ absolute / inch / decimal}
; #@! TF.CreationDate,2021-12-20T20:37:37+08:00
; #@! TF.GenerationSoftware,Kicad,Pcbnew,6.0.0-rc1-unknown-5bf9bd3ebb~144~ubuntu20.04.1
; #@! TF.FileFunction,Plated,1,2,PTH
FMAT,2
INCH
; #@! TA.AperFunction,Plated,PTH,ComponentDrill
T1C0.0295
; #@! TA.AperFunction,Plated,PTH,ComponentDrill
T2C0.0315
; #@! TA.AperFunction,Plated,PTH,ViaDrill
T3C0.0350
; #@! TA.AperFunction,Plated,PTH,ComponentDrill
T4C0.0350
; #@! TA.AperFunction,Plated,PTH,ComponentDrill
T5C0.0394
; #@! TA.AperFunction,Plated,PTH,ViaDrill
T6C0.1654
%
G90
G05
T1
X7.93Y-3.4985
X7.93Y-3.5772
X7.93Y-3.656
X7.93Y-3.7347
X7.93Y-3.8135
X7.93Y-3.8922
X7.93Y-3.9709
T2
X4.5157Y-4.149
X4.6157Y-4.149
X4.7157Y-4.149
X4.8157Y-4.149
X4.9157Y-3.349
X4.9157Y-4.149
X5.0157Y-3.349
X5.0157Y-4.149
X5.1157Y-3.349
X5.1157Y-4.149
X5.2157Y-3.349
X5.2157Y-4.149
X5.3157Y-3.349
X5.3157Y-4.149
X5.4157Y-3.349
X5.4157Y-4.149
X5.5157Y-3.349
X5.5157Y-4.149
X5.6157Y-3.349
X5.6157Y-4.149
X5.7157Y-3.349
X5.7157Y-4.149
X5.8157Y-3.349
X5.8157Y-4.149
X5.9157Y-3.349
X5.9157Y-4.149
X6.0157Y-3.349
X6.0157Y-4.149
X6.4092Y-3.2638
X6.7092Y-3.2638
X6.9078Y-3.4286
X6.91Y-3.2605
X7.2078Y-3.4286
X7.21Y-3.2605
T3
X7.57Y-3.468
T4
X4.1679Y-3.3911
X4.1679Y-3.491
X4.1679Y-3.5931
X4.1679Y-3.6931
X4.1679Y-3.7931
X4.1679Y-3.8931
X4.1679Y-3.9931
X4.1683Y-3.2931
X6.7069Y-3.8378
X6.7069Y-3.9378
X6.7069Y-4.0378
X7.4069Y-3.8378
X7.4069Y-3.9378
X7.4069Y-4.0378
T5
X3.9083Y-3.9713
X3.9083Y-4.0713
X3.9083Y-4.1713
X4.0591Y-4.1713
X4.1591Y-4.1713
X7.785Y-3.4024
X7.785Y-3.5024
X7.785Y-3.6024
X7.785Y-3.7024
X7.785Y-3.8024
X7.785Y-3.9024
X7.785Y-4.0024
X7.785Y-4.1024
T6
X3.8484Y-3.7008
T0
M30
