%TF.GenerationSoftware,KiCad,Pcbnew,6.0.0-rc1-unknown-5bf9bd3ebb~144~ubuntu20.04.1*%
%TF.CreationDate,2021-12-20T20:37:33+08:00*%
%TF.ProjectId,kicad-openctd,6b696361-642d-46f7-9065-6e6374642e6b,rev?*%
%TF.SameCoordinates,Original*%
%TF.FileFunction,Soldermask,Bot*%
%TF.FilePolarity,Negative*%
%FSLAX46Y46*%
G04 Gerber Fmt 4.6, Leading zero omitted, Abs format (unit mm)*
G04 Created by KiCad (PCBNEW 6.0.0-rc1-unknown-5bf9bd3ebb~144~ubuntu20.04.1) date 2021-12-20 20:37:33*
%MOMM*%
%LPD*%
G01*
G04 APERTURE LIST*
G04 Aperture macros list*
%AMRoundRect*
0 Rectangle with rounded corners*
0 $1 Rounding radius*
0 $2 $3 $4 $5 $6 $7 $8 $9 X,Y pos of 4 corners*
0 Add a 4 corners polygon primitive as box body*
4,1,4,$2,$3,$4,$5,$6,$7,$8,$9,$2,$3,0*
0 Add four circle primitives for the rounded corners*
1,1,$1+$1,$2,$3*
1,1,$1+$1,$4,$5*
1,1,$1+$1,$6,$7*
1,1,$1+$1,$8,$9*
0 Add four rect primitives between the rounded corners*
20,1,$1+$1,$2,$3,$4,$5,0*
20,1,$1+$1,$4,$5,$6,$7,0*
20,1,$1+$1,$6,$7,$8,$9,0*
20,1,$1+$1,$8,$9,$2,$3,0*%
G04 Aperture macros list end*
%ADD10C,1.600000*%
%ADD11O,1.600000X1.600000*%
%ADD12C,2.540000*%
%ADD13R,1.600000X1.600000*%
%ADD14R,1.651000X1.651000*%
%ADD15C,1.651000*%
%ADD16R,1.700000X1.700000*%
%ADD17O,1.700000X1.700000*%
%ADD18RoundRect,0.250000X0.625000X-0.350000X0.625000X0.350000X-0.625000X0.350000X-0.625000X-0.350000X0*%
%ADD19O,1.750000X1.200000*%
G04 APERTURE END LIST*
D10*
%TO.C,R1*%
X162794000Y-82900000D03*
D11*
X170414000Y-82900000D03*
%TD*%
D12*
%TO.C,U3*%
X156610000Y-86335000D03*
X156610000Y-104115000D03*
D13*
X114700000Y-105385000D03*
D10*
X117240000Y-105385000D03*
X119780000Y-105385000D03*
X122320000Y-105385000D03*
X124860000Y-105385000D03*
X127400000Y-105385000D03*
X129940000Y-105385000D03*
X132480000Y-105385000D03*
X135020000Y-105385000D03*
X137560000Y-105385000D03*
X140100000Y-105385000D03*
X142640000Y-105385000D03*
X145180000Y-105385000D03*
X147720000Y-105385000D03*
X150260000Y-105385000D03*
X152800000Y-105385000D03*
X152800000Y-85065000D03*
X150260000Y-85065000D03*
X147720000Y-85065000D03*
X145180000Y-85065000D03*
X142640000Y-85065000D03*
X140100000Y-85065000D03*
X137560000Y-85065000D03*
X135020000Y-85065000D03*
X132480000Y-85065000D03*
X129940000Y-85065000D03*
X127400000Y-85065000D03*
X124860000Y-85065000D03*
%TD*%
D14*
%TO.C,U2*%
X170355000Y-102559000D03*
D15*
X170355000Y-100019000D03*
X170355000Y-97479000D03*
D14*
X188135000Y-97479000D03*
D15*
X188135000Y-100019000D03*
X188135000Y-102559000D03*
%TD*%
D16*
%TO.C,J1*%
X103100000Y-105950000D03*
D17*
X105640000Y-105950000D03*
%TD*%
D16*
%TO.C,J2*%
X99270000Y-105950000D03*
D17*
X99270000Y-103410000D03*
X99270000Y-100870000D03*
%TD*%
D10*
%TO.C,R3*%
X175458000Y-87086000D03*
D11*
X183078000Y-87086000D03*
%TD*%
D10*
%TO.C,R2*%
X175514000Y-82816000D03*
D11*
X183134000Y-82816000D03*
%TD*%
D14*
%TO.C,U1*%
X105875000Y-83645000D03*
D15*
X105863570Y-86134568D03*
X105863570Y-88671711D03*
X105863570Y-91265000D03*
X105863570Y-93805000D03*
X105863570Y-96345000D03*
X105863570Y-98885000D03*
X105863570Y-101425000D03*
%TD*%
D18*
%TO.C,J4*%
X201422000Y-100862000D03*
D19*
X201422000Y-98862000D03*
X201422000Y-96862000D03*
X201422000Y-94862000D03*
X201422000Y-92862000D03*
X201422000Y-90862000D03*
X201422000Y-88862000D03*
%TD*%
D16*
%TO.C,J3*%
X197740000Y-104200000D03*
D17*
X197740000Y-101660000D03*
X197740000Y-99120000D03*
X197740000Y-96580000D03*
X197740000Y-94040000D03*
X197740000Y-91500000D03*
X197740000Y-88960000D03*
X197740000Y-86420000D03*
%TD*%
M02*
